<svg width="49" height="49" viewBox="0 0 49 49" fill="none" xmlns="http://www.w3.org/2000/svg">
<path d="M0.706543 0.963867V14.8288H14.5347V0.963867H0.706543ZM10.5846 10.8682H4.65792V4.92576H10.5846V10.8682Z" fill="#F29E38"/>
<path d="M0.706543 34.6377V48.5037H14.5347V34.6377H0.706543ZM10.5846 44.5428H4.65792V38.6004H10.5846V44.5428Z" fill="#F29E38"/>
<path d="M34.2915 0.963867V14.8288H48.1196V0.963867H34.2915ZM44.1687 10.8682H38.242V4.92576H44.1687V10.8682Z" fill="#F29E38"/>
<path d="M44.1677 18.7912V30.6761H34.2905V34.6371H48.1187V18.791L44.1677 18.7912Z" fill="#F29E38"/>
<path d="M34.2915 38.5996V48.5031H38.242V42.5607H44.1687V48.5031H48.1201V38.5996H34.2915Z" fill="#F29E38"/>
<path d="M18.4865 0.963867V4.92576H26.3883V14.8292H30.3397V0.964292L18.4865 0.963867Z" fill="#F29E38"/>
<path d="M26.388 18.791V26.7148H18.4861V38.5996H26.388V48.5031H30.3394V34.6371H22.4375V30.6761H30.3394V22.7531H34.2907V26.715H38.2413V18.7912L26.388 18.791Z" fill="#F29E38"/>
<path d="M18.4865 42.5605H22.4378V48.503H18.4865V42.5605Z" fill="#F29E38"/>
<path d="M8.60791 26.7148H14.5345V30.6759H8.60791V26.7148Z" fill="#F29E38"/>
<path d="M18.4865 8.88672V18.791H0.706543V30.6759H4.65792V22.7529H22.4378V8.88693L18.4865 8.88672Z" fill="#F29E38"/>
</svg>
