<svg width="48" height="35" viewBox="0 0 48 35" fill="none" xmlns="http://www.w3.org/2000/svg">
<path d="M41.2609 34.6228H6.7787C3.21401 34.6228 0.313232 31.7143 0.313232 28.1401V6.53151C0.313232 2.95733 3.21401 0.0488281 6.7787 0.0488281H41.2609C44.8256 0.0488281 47.7264 2.95733 47.7264 6.53151V28.1401C47.7264 31.7143 44.8256 34.6228 41.2609 34.6228ZM6.77778 4.37C5.59044 4.37 4.62275 5.34027 4.62275 6.53077V28.1394C4.62275 29.3299 5.59044 30.3001 6.77778 30.3001H41.26C42.4473 30.3001 43.415 29.3299 43.415 28.1394V6.53077C43.415 5.34027 42.4473 4.37 41.26 4.37H6.77778Z" fill="#F29E38"/>
<path d="M19.7089 23.8186H11.0884C9.8967 23.8186 8.93335 22.8506 8.93335 21.6578C8.93335 20.4651 9.8967 19.4971 11.0884 19.4971H19.7089C20.9005 19.4971 21.8639 20.4651 21.8639 21.6578C21.8639 22.8506 20.9005 23.8186 19.7089 23.8186Z" fill="#F29E38"/>
<path d="M19.7089 15.175H11.0884C9.8967 15.175 8.93335 14.207 8.93335 13.0143C8.93335 11.8216 9.8967 10.8535 11.0884 10.8535H19.7089C20.9005 10.8535 21.8639 11.8216 21.8639 13.0143C21.8639 14.207 20.9005 15.175 19.7089 15.175Z" fill="#F29E38"/>
<path d="M36.9504 14.0944C36.9504 16.4823 35.0216 18.4163 32.64 18.4163C30.2584 18.4163 28.3296 16.4823 28.3296 14.0944C28.3296 11.7064 30.2584 9.77246 32.64 9.77246C35.0216 9.77246 36.9504 11.7064 36.9504 14.0944Z" fill="#F29E38"/>
<path d="M32.64 20.2656C29.2738 20.2656 27.2522 21.8107 27.2522 23.3536C27.2522 24.1249 29.2738 24.8987 32.64 24.8987C35.7994 24.8987 38.0277 24.1275 38.0277 23.3536C38.0277 21.8107 35.9156 20.2656 32.64 20.2656Z" fill="#F29E38"/>
</svg>
