<svg width="49" height="49" viewBox="0 0 49 49" fill="none" xmlns="http://www.w3.org/2000/svg">
<path d="M27.7595 4.06427C27.7595 5.7764 26.3749 7.16467 24.6674 7.16467C22.9598 7.16467 21.5752 5.7764 21.5752 4.06427C21.5752 2.35178 22.9598 0.963867 24.6674 0.963867C26.3749 0.963867 27.7595 2.35178 27.7595 4.06427Z" fill="#F29E38"/>
<path d="M28.5216 7.48535C27.7914 8.33554 26.7965 8.91446 25.6976 9.12829V10.2653C25.6976 10.8359 25.2358 11.2986 24.6667 11.2986C24.0977 11.2986 23.6359 10.8359 23.6359 10.2653V9.12829C22.5395 8.90857 21.5463 8.33071 20.8119 7.48535C18.6059 9.23176 18.4824 11.3812 18.4824 13.3657H30.8511C30.8511 11.2986 30.7686 9.33522 28.5216 7.48535Z" fill="#F29E38"/>
<path d="M27.7595 39.202C27.7595 40.9145 26.3749 42.3024 24.6674 42.3024C22.9598 42.3024 21.5752 40.9145 21.5752 39.202C21.5752 37.4898 22.9598 36.1016 24.6674 36.1016C26.3749 36.1016 27.7595 37.4898 27.7595 39.202Z" fill="#F29E38"/>
<path d="M28.5216 42.623C27.7914 43.4736 26.7965 44.0525 25.6976 44.2663V45.403C25.6976 45.974 25.2358 46.4366 24.6667 46.4366C24.0977 46.4366 23.6359 45.974 23.6359 45.403V44.2663C22.5395 44.0466 21.5463 43.4688 20.8119 42.623C18.6059 44.3698 18.4824 46.5193 18.4824 48.5034H30.8511C30.8511 46.4366 30.7686 44.4729 28.5216 42.623Z" fill="#F29E38"/>
<path d="M45.2815 21.6336C45.2815 23.3457 43.8973 24.734 42.1893 24.734C40.4818 24.734 39.0972 23.3457 39.0972 21.6336C39.0972 19.9215 40.4818 18.5332 42.1893 18.5332C43.8973 18.5332 45.2815 19.9215 45.2815 21.6336Z" fill="#F29E38"/>
<path d="M46.0436 25.0537C45.3133 25.9042 44.3184 26.4832 43.2196 26.697V27.8337C43.2196 28.4043 42.7581 28.8673 42.1887 28.8673C41.6196 28.8673 41.1582 28.4043 41.1582 27.8337V26.697C40.0615 26.4769 39.0683 25.8991 38.3339 25.0537C36.1283 26.8001 36.0044 28.9499 36.0044 30.9341H48.373C48.373 28.5157 48.1877 26.8001 46.0436 25.0537Z" fill="#F29E38"/>
<path d="M10.2373 21.6336C10.2373 23.3457 8.85272 24.734 7.14514 24.734C5.43721 24.734 4.05298 23.3457 4.05298 21.6336C4.05298 19.9215 5.43721 18.5332 7.14514 18.5332C8.85272 18.5332 10.2373 19.9215 10.2373 21.6336Z" fill="#F29E38"/>
<path d="M10.9999 25.0537C10.2693 25.9042 9.27437 26.4832 8.1755 26.697V27.8337C8.1755 28.4043 7.71409 28.8673 7.14502 28.8673C6.57559 28.8673 6.11418 28.4043 6.11418 27.8337V26.697C5.01743 26.4769 4.02459 25.8991 3.29015 25.0537C1.0842 26.8001 0.960693 28.9499 0.960693 30.9341H13.3293C13.3293 28.8673 13.2469 26.9036 10.9999 25.0537Z" fill="#F29E38"/>
<path d="M22.6776 31.6892C21.461 29.9369 20.7253 27.8946 20.5438 25.7676H17.4517C17.6556 27.1566 18.2585 28.4563 19.1865 29.5075C20.1142 30.559 21.3272 31.3172 22.6777 31.6892H22.6776Z" fill="#F29E38"/>
<path d="M22.6776 17.7784C21.3406 18.1625 20.143 18.9258 19.2285 19.9763C18.3143 21.0268 17.7225 22.32 17.5237 23.6999H20.6159C20.776 21.5794 21.4866 19.5379 22.6776 17.7783V17.7784Z" fill="#F29E38"/>
<path d="M22.6575 25.7666C22.84 27.6417 23.5358 29.4297 24.6674 30.9338C25.8177 29.4355 26.531 27.647 26.7287 25.7666H22.6575Z" fill="#F29E38"/>
<path d="M24.6674 18.5332C23.5357 20.0373 22.84 21.8253 22.6575 23.7004H26.7287C26.531 21.8201 25.8177 20.0315 24.6674 18.5332Z" fill="#F29E38"/>
<path d="M26.6567 31.6891C27.9937 31.305 29.1913 30.5417 30.1058 29.4912C31.02 28.4407 31.6118 27.1475 31.8106 25.7676H28.7905C28.609 27.8946 27.8732 29.9368 26.6567 31.6892V31.6891Z" fill="#F29E38"/>
<path d="M26.6566 17.7783C27.8731 19.5306 28.6089 21.5729 28.7903 23.6999H31.8825C31.6785 22.3109 31.0756 21.0112 30.1476 19.96C29.22 18.9085 28.007 18.1503 26.6565 17.7783H26.6566Z" fill="#F29E38"/>
<path d="M33.9438 9.81053C38.9531 12.9109 38.9016 15.7013 40.2931 15.7013C40.6696 15.7006 41.0158 15.494 41.1963 15.1625C41.3764 14.831 41.3623 14.4272 41.159 14.1095C39.587 11.6375 37.4716 9.5586 34.9747 8.03258C34.7386 7.8606 34.4411 7.79693 34.1557 7.85714C33.8703 7.91769 33.6239 8.09624 33.4773 8.34919C33.3306 8.60179 33.2978 8.90525 33.3868 9.18381C33.4755 9.46201 33.6781 9.6897 33.9439 9.81046L33.9438 9.81053Z" fill="#F29E38"/>
<path d="M39.2313 34.5001C35.2115 40.5459 31.1092 39.8846 32.0161 41.8172C32.138 42.065 32.3537 42.2539 32.6149 42.3411C32.8765 42.4287 33.1619 42.4072 33.4076 42.2823C36.439 40.7577 39.0215 38.4674 40.9009 35.6368C41.0873 35.1842 40.9313 34.6627 40.5272 34.3876C40.123 34.1125 39.5819 34.1592 39.2313 34.5001L39.2313 34.5001Z" fill="#F29E38"/>
<path d="M16.8227 40.4419C10.4117 37.2277 10.4631 33.0217 8.67986 34.2411H8.6802C8.20982 34.5567 8.0811 35.193 8.39169 35.6675C10.2736 38.4966 12.8602 40.7838 15.8951 42.3022C16.4076 42.5593 17.0305 42.3509 17.2866 41.8371C17.543 41.3236 17.3352 40.699 16.8227 40.4419H16.8227Z" fill="#F29E38"/>
<path d="M9.93879 15.2262C13.4227 9.75929 16.9065 10.059 15.8346 8.35374L15.8343 8.3534C15.5371 7.87 14.9066 7.71775 14.4225 8.01256C11.9297 9.55275 9.81555 11.6368 8.2381 14.1099C8.03656 14.5718 8.19703 15.1123 8.61772 15.3885C9.03875 15.665 9.59679 15.5961 9.93879 15.2262V15.2262Z" fill="#F29E38"/>
</svg>
