<svg width="30" height="49" viewBox="0 0 30 49" fill="none" xmlns="http://www.w3.org/2000/svg">
<path d="M13.1474 27.2296V15.7686H9.44502V27.2296H7.57153L9.43215 30.4646L11.2994 33.7055L13.16 30.4646L15.0272 27.2296H13.1474Z" fill="#F29E38"/>
<path d="M17.04 22.2444V33.7055H20.7486V22.2444H22.6221L20.7614 19.0032L18.8942 15.7686L17.0336 19.0032L15.1664 22.2444H17.04Z" fill="#F29E38"/>
<path d="M25.2257 0.963952H4.96746C3.87165 0.96561 2.82105 1.40306 2.04608 2.17976C1.27109 2.95682 0.835105 4.01019 0.833496 5.10926V44.3582V44.3579C0.83515 45.4566 1.27111 46.5104 2.04608 47.2871C2.82108 48.0641 3.87165 48.5016 4.96746 48.5032H25.219C26.3151 48.5015 27.3657 48.0641 28.1407 47.2871C28.9157 46.5103 29.3517 45.4566 29.3533 44.3579V5.10893V5.10926C29.3516 4.01146 28.9163 2.95883 28.143 2.18206C27.3693 1.40533 26.3205 0.967178 25.2256 0.963867L25.2257 0.963952ZM23.0539 3.17338C23.5077 3.17604 23.9156 3.45231 24.0876 3.8735C24.2596 4.29503 24.162 4.77857 23.8398 5.09959C23.518 5.42062 23.0351 5.51581 22.6157 5.34103C22.1966 5.16625 21.9233 4.75567 21.9233 4.30029C21.9217 4.00048 22.0394 3.71194 22.2505 3.49935C22.4612 3.28676 22.7483 3.16703 23.0473 3.16703L23.0539 3.17338ZM10.702 3.98195H19.351V4.74608H10.6952V3.98195H10.702ZM6.99337 3.17338H6.99304C7.44719 3.17604 7.85506 3.45231 8.02704 3.8735C8.19904 4.29503 8.10113 4.77857 7.77929 5.09959C7.45712 5.42062 6.97419 5.51581 6.55511 5.34103C6.13569 5.16625 5.86247 4.75567 5.86247 4.30029C5.86081 4.00048 5.97857 3.71194 6.1896 3.49935C6.40064 3.28676 6.68741 3.16703 6.98677 3.16703L6.99337 3.17338ZM15.0963 47.3128C14.5505 47.3128 14.0272 47.0952 13.6412 46.7085C13.2555 46.3215 13.0385 45.7968 13.0385 45.2495C13.0385 44.7023 13.2555 44.1776 13.6412 43.7906C14.0272 43.4038 14.5504 43.1866 15.0963 43.1866C15.6421 43.1866 16.1653 43.4038 16.5514 43.7906C16.937 44.1776 17.154 44.7022 17.154 45.2495C17.154 45.7968 16.937 46.3214 16.5514 46.7085C16.1654 47.0952 15.6421 47.3128 15.0963 47.3128ZM27.162 40.2257C27.1759 40.6575 27.0188 41.0773 26.7247 41.3934C26.431 41.7098 26.0241 41.8965 25.5935 41.9131H4.63662C4.20595 41.8965 3.79943 41.7098 3.50541 41.3934C3.21168 41.0774 3.05424 40.6575 3.06812 40.2257V9.242C3.05423 8.81019 3.21168 8.39034 3.50541 8.0739C3.79947 7.75783 4.20598 7.57112 4.63662 7.55453H25.5935C26.0242 7.57112 26.431 7.75783 26.7247 8.0739C27.0188 8.3903 27.1759 8.81017 27.162 9.242V40.2257Z" fill="#F29E38"/>
</svg>
