<svg width="57" height="49" viewBox="0 0 57 49" fill="none" xmlns="http://www.w3.org/2000/svg">
<path d="M49.1122 28.6629C48.7187 28.6629 48.3186 28.701 47.9244 28.7775C46.6365 29.0253 45.5381 29.6592 44.6614 30.6595C44.4135 30.941 44.2 31.234 44.0157 31.5262C43.818 31.3823 43.5907 31.2546 43.3649 31.1266V25.3147C43.8821 25.3841 44.4464 25.4356 45.0557 25.4356C45.8358 25.4356 46.5851 25.3556 47.3436 25.1914L51.7473 24.2375C52.9225 23.9826 53.8874 23.1805 54.3247 22.0918C54.5825 21.4531 54.6339 20.7775 54.4868 20.1309C55.1768 19.338 55.4824 18.2437 55.2511 17.1728C55.2495 17.1649 55.2476 17.1577 55.246 17.1498C55.7268 16.6054 56.0246 15.9108 56.0811 15.1552C56.1432 14.3294 55.9111 13.5317 55.4389 12.889C55.5596 12.301 55.5248 11.6849 55.329 11.1022C54.8684 9.73795 53.5426 8.82165 52.0288 8.82165C51.7702 8.82165 51.5108 8.849 51.2582 8.90411L47.7339 9.66771C47.6912 8.53105 47.5109 7.37735 47.4033 6.91026C46.9782 5.0401 45.2784 3.68218 43.3538 3.66442C43.3024 2.04211 41.9782 0.735352 40.3475 0.735352H16.4844C14.822 0.735352 13.4694 2.09124 13.4694 3.75841V14.5434C13.3337 14.602 13.2036 14.6528 13.0842 14.6782C12.3899 14.8272 11.8122 14.7848 11.0348 14.6952L8.35269 12.9619C8.05691 12.7708 7.69828 12.7061 7.35189 12.7791C7.00749 12.8536 6.70697 13.0626 6.51559 13.3591L1.13398 21.7294C0.736193 22.3475 0.91334 23.1726 1.53098 23.5713L4.27756 25.3475C4.43612 25.558 4.59547 25.7844 4.76629 26.0322C5.51759 27.121 6.54565 28.6112 8.43059 29.8296L12.2163 32.2782C12.6026 32.5268 13.0284 32.6921 13.4697 32.7817V45.4981C13.4697 47.1649 14.822 48.5212 16.4848 48.5212H40.3499C41.6394 48.5212 42.7343 47.7005 43.1649 46.5567C43.2322 46.5948 43.2962 46.6321 43.365 46.6705C44.1373 47.1074 45.0151 47.6074 45.9115 48.1307C46.2045 48.3084 46.543 48.4035 46.8894 48.4035C47.008 48.4035 47.1266 48.392 47.2488 48.369C47.7102 48.2802 48.1187 48.0273 48.3959 47.6657C49.046 46.8299 49.6739 46.0386 50.2437 45.3292C53.6308 41.0843 56.0781 38.0159 55.3382 34.1698C54.7162 30.9267 52.1555 28.6628 49.112 28.6628L49.1122 28.6629ZM39.6162 22.5922L38.789 22.7714L37.2532 15.6409L38.0796 15.4617L39.6162 22.5922ZM44.8155 7.50385C45.0334 8.45854 45.1813 10.4397 45.0247 10.9531C44.8875 11.4051 44.999 11.8963 45.3177 12.2444C45.6364 12.5925 46.1148 12.7428 46.5763 12.6449L51.8215 11.5082C52.1785 11.4293 52.6788 11.5578 52.8128 11.955C52.9057 12.2349 52.8179 12.4569 52.757 12.5652C52.4233 13.1547 52.5842 13.9017 53.1319 14.3006C53.4312 14.519 53.4419 14.8306 53.432 14.9543C53.4233 15.0776 53.3664 15.3833 53.0398 15.5522C52.7041 15.7263 52.4577 16.0363 52.3632 16.4038C52.2695 16.7713 52.3359 17.1615 52.5467 17.4766C52.5989 17.5547 52.6352 17.64 52.6546 17.7331C52.7246 18.0582 52.5676 18.3921 52.2746 18.5459C51.9389 18.7199 51.6946 19.03 51.5997 19.3967C51.5067 19.7642 51.5732 20.1544 51.7831 20.4687C51.9195 20.6737 51.9468 20.8842 51.8618 21.094C51.7547 21.3596 51.4961 21.5654 51.186 21.6332L46.7827 22.5855C46.2105 22.71 45.6462 22.7702 45.0563 22.7702C44.1306 22.7702 43.2919 22.6164 42.5513 22.4808C42.4663 22.4657 42.3841 22.4507 42.3014 22.4356L40.5699 14.4027C41.1219 13.9472 41.6542 13.4436 42.1829 12.6213C43.2094 11.0244 43.3015 8.2083 43.0358 6.35042C43.844 6.20015 44.6404 6.73024 44.8156 7.50372L44.8155 7.50385ZM8.02879 15.922L8.73896 16.3811L8.04381 17.4619L4.79667 22.5125L4.0865 22.0526L8.02879 15.922ZM9.86949 27.589C8.42934 26.6581 7.64373 25.5198 6.95093 24.5152C6.9023 24.4442 6.85366 24.374 6.80581 24.3054L10.7279 18.2034L11.2459 17.3978C12.0004 17.4715 12.8102 17.4616 13.6438 17.2824C14.2282 17.1555 14.8309 16.8669 15.4188 16.4974C15.4773 16.4665 15.5339 16.4324 15.586 16.3927C16.8004 15.5927 17.9333 14.4354 18.6675 13.4521C19.3433 13.9184 19.5445 14.8402 19.1119 15.5304C18.5939 16.3598 17.3013 17.8652 16.8277 18.1174C16.4113 18.3394 16.144 18.7656 16.1242 19.2374C16.1048 19.71 16.3358 20.1576 16.732 20.4133L21.2428 23.329C21.6141 23.5688 21.7865 24.0272 21.628 24.3475C21.4979 24.6111 21.278 24.7055 21.1594 24.7384C20.5073 24.9188 20.0938 25.5607 20.2001 26.2311C20.2436 26.509 20.1345 26.7053 20.0352 26.8226C19.8917 26.9903 19.688 27.0875 19.4781 27.0875C19.4037 27.0875 19.3274 27.0752 19.2515 27.051C18.8901 26.9364 18.4978 26.9792 18.1728 27.1743C17.847 27.3678 17.6185 27.6901 17.5457 28.0632C17.5271 28.1556 17.4927 28.2408 17.4421 28.3209C17.2657 28.5945 16.9099 28.7213 16.6007 28.6266C16.2412 28.512 15.8486 28.5564 15.5235 28.7499C15.1985 28.9433 14.9699 29.2657 14.8964 29.6372C14.7963 30.1442 14.3665 30.1994 14.1878 30.1994C14.002 30.1994 13.8165 30.1435 13.6536 30.0376L9.86949 27.589ZM40.7071 45.4979C40.7071 45.6962 40.5458 45.8568 40.3493 45.8568H16.4841C16.2864 45.8568 16.1263 45.695 16.1263 45.4979L16.1267 32.2639C16.4908 32.0125 16.8044 31.6938 17.0432 31.3163C18.1167 31.247 19.0903 30.6776 19.6767 29.7658C19.6811 29.7586 19.6854 29.7523 19.689 29.7464C20.6004 29.6905 21.4542 29.2623 22.0583 28.5538C22.4703 28.0705 22.7333 27.4873 22.829 26.8708C23.3296 26.5413 23.7412 26.0794 24.0132 25.5287C24.776 23.9797 24.2046 22.0703 22.6854 21.0891L19.6546 19.1301C20.4269 18.2963 21.1125 17.3523 21.3668 16.9463C22.5759 15.0147 21.9947 12.4313 20.071 11.186L19.5917 10.8767C18.6854 10.2923 17.3888 10.5738 16.8044 11.4826C16.6245 11.7613 16.3889 12.0634 16.1279 12.3655L16.1275 3.75771C16.1275 3.55948 16.2876 3.3989 16.4853 3.3989H40.3505C40.5482 3.3989 40.7084 3.55947 40.7084 3.75771V4.62638C40.3592 5.08192 40.1975 5.67625 40.3268 6.28086C40.6411 7.74261 40.5439 10.2535 39.9496 11.1776C39.5288 11.8314 39.1223 12.1573 38.513 12.6422L35.3944 13.3182C35.0488 13.3927 34.7486 13.6017 34.5581 13.8982C34.3667 14.1948 34.3022 14.5564 34.3766 14.9017L36.4739 24.6362C36.6075 25.2606 37.1587 25.6869 37.7716 25.6869C37.8637 25.6869 37.9586 25.6769 38.0523 25.6567L40.7087 25.0822V30.3477C40.2659 30.3291 39.8202 30.3442 39.3722 30.4302C35.8665 31.107 33.7648 34.4453 34.4837 38.1959C35.0764 41.2784 37.3853 43.1363 40.7075 45.1344L40.7071 45.4979ZM48.1587 43.6746C47.7123 44.2312 47.218 44.8513 46.7016 45.5102C45.9795 45.0927 45.2896 44.701 44.6679 44.3486C40.2598 41.8433 37.5999 40.3308 37.0906 37.6887C36.6505 35.3932 37.8205 33.4394 39.872 33.0433C40.0749 33.004 40.2777 32.9846 40.4762 32.9846C40.9582 32.9846 41.4363 33.1043 41.9005 33.339C42.579 33.6828 43.1005 34.2129 43.4185 34.5982C43.7285 34.9729 44.2156 35.1469 44.6929 35.0565C45.1694 34.9641 45.5581 34.6196 45.7064 34.1561C45.8586 33.6828 46.1457 32.9964 46.6542 32.42C47.1413 31.865 47.7198 31.5284 48.4249 31.3924C50.4585 30.9999 52.2955 32.4165 52.7278 34.6704C53.2359 37.3105 51.3288 39.7024 48.1587 43.6746L48.1587 43.6746Z" fill="#F29E38"/>
<path d="M35.0578 6.75595C35.0578 6.01972 34.4627 5.42383 33.7292 5.42383H23.1045C22.3702 5.42383 21.7759 6.01972 21.7759 6.75595C21.7759 7.49219 22.3702 8.08807 23.1045 8.08807H33.7292C34.4635 8.08807 35.0578 7.49219 35.0578 6.75595Z" fill="#F29E38"/>
<path d="M30.0775 41.1699H26.7561C26.0218 41.1699 25.4275 41.7666 25.4275 42.502C25.4275 43.2375 26.0218 43.8342 26.7561 43.8342H30.0775C30.811 43.8342 31.4061 43.2375 31.4061 42.502C31.4061 41.7666 30.8118 41.1699 30.0775 41.1699Z" fill="#F29E38"/>
</svg>
