<svg width="50" height="52" viewBox="0 0 50 52" fill="none" xmlns="http://www.w3.org/2000/svg">
<path d="M29.6298 41.3695L21.5113 39.6037V35.7489C22.2352 35.0357 23.1815 32.4627 23.8424 31.8155C24.7793 30.8983 25.7944 29.7703 26.0826 28.3597C26.468 26.4873 25.6847 26.2485 25.6847 25.6013C25.6847 24.244 25.6721 22.0166 25.2493 20.5714C25.2272 18.6616 24.9139 17.8319 24.2593 17.1187C23.642 16.4497 22.1254 16.6068 21.3326 16.1668C20.1045 15.4852 18.9546 15.2183 17.6666 15.1836C14.5333 15.3028 11.0427 17.2948 9.89594 20.4839C9.46999 21.6648 9.63296 24.2445 9.63296 25.6014C9.63296 26.2487 8.84963 26.4874 9.23499 28.3598C9.52315 29.7704 10.5383 30.8984 11.4752 31.8156C12.1365 32.4629 13.1013 35.0359 13.8221 35.7459V39.6007L5.7036 41.3665C3.54138 41.8377 2 43.7571 2 45.9722V49.7422H33.3333V45.9722C33.3333 43.7572 31.7919 41.8377 29.6297 41.3696L29.6298 41.3695Z" stroke="#F29E38" stroke-width="3.5" stroke-miterlimit="10" stroke-linecap="round" stroke-linejoin="round"/>
<path d="M32.4561 27.4991C33.2394 27.6562 34.0542 27.7505 34.9001 27.7505C41.8248 27.7505 47.4335 22.127 47.4335 15.1839C47.4335 8.24078 41.8248 2.61719 34.9001 2.61719C29.7615 2.61719 25.3435 5.72732 23.4321 10.1886" stroke="#F29E38" stroke-width="3.5" stroke-miterlimit="10" stroke-linecap="round" stroke-linejoin="round"/>
<path d="M34.9001 8.90039V15.1837L39.6002 19.8962" stroke="#F29E38" stroke-width="3.5" stroke-miterlimit="10" stroke-linecap="round" stroke-linejoin="round"/>
</svg>
