<svg width="282" height="137" viewBox="0 0 282 137" fill="none" xmlns="http://www.w3.org/2000/svg">
<path d="M281.306 130.554C281.306 130.391 281.272 130.229 281.206 130.077C281.139 129.926 281.042 129.789 280.919 129.673C280.796 129.558 280.65 129.466 280.489 129.404C280.329 129.342 280.157 129.31 279.983 129.31H270.801C270.628 129.31 270.456 129.278 270.296 129.215C270.135 129.152 269.99 129.06 269.867 128.945C269.745 128.829 269.648 128.691 269.582 128.54C269.516 128.388 269.482 128.226 269.482 128.062C269.482 127.731 269.343 127.414 269.095 127.18C268.847 126.946 268.51 126.814 268.159 126.814H265.709C265.536 126.815 265.364 126.783 265.203 126.721C265.043 126.658 264.897 126.567 264.774 126.451C264.651 126.336 264.554 126.198 264.487 126.047C264.421 125.896 264.386 125.734 264.386 125.57C264.386 125.239 264.247 124.922 263.999 124.688C263.751 124.454 263.414 124.322 263.063 124.322H18.2432C17.8923 124.322 17.5558 124.454 17.3076 124.688C17.0595 124.922 16.9201 125.239 16.9201 125.57C16.9201 125.734 16.8859 125.896 16.8193 126.047C16.7528 126.198 16.6553 126.336 16.5324 126.451C16.4094 126.567 16.2636 126.658 16.1031 126.721C15.9426 126.783 15.7706 126.815 15.5971 126.814H13.1471C12.7962 126.814 12.4597 126.946 12.2116 127.18C11.9634 127.414 11.8241 127.731 11.8241 128.062C11.8246 128.226 11.7909 128.388 11.7249 128.54C11.6588 128.691 11.5618 128.829 11.4392 128.945C11.3167 129.06 11.1711 129.152 11.0108 129.215C10.8506 129.278 10.6787 129.31 10.5052 129.31H1.32306C1.14951 129.31 0.977558 129.342 0.817061 129.404C0.656565 129.466 0.51068 129.558 0.387768 129.673C0.264855 129.789 0.167333 129.926 0.100792 130.077C0.0342507 130.229 -8.68742e-07 130.391 2.62421e-10 130.554C-6.9549e-06 130.884 0.13824 131.2 0.384559 131.434C0.630879 131.668 0.965263 131.8 1.31471 131.802H84.7884C84.962 131.802 85.1338 131.835 85.2941 131.897C85.4544 131.96 85.6 132.052 85.7225 132.168C85.845 132.284 85.9421 132.422 86.0081 132.573C86.0741 132.724 86.1078 132.887 86.1073 133.05C86.1078 133.214 86.0741 133.376 86.008 133.527C85.9419 133.678 85.8448 133.815 85.7222 133.931C85.5997 134.047 85.454 134.138 85.2938 134.201C85.1335 134.263 84.9618 134.295 84.7884 134.294H38.2518C37.9009 134.294 37.5644 134.426 37.3163 134.66C37.0682 134.894 36.9288 135.211 36.9288 135.542C36.9288 135.873 37.0682 136.191 37.3163 136.425C37.5644 136.659 37.9009 136.79 38.2518 136.79H265.947C266.121 136.79 266.293 136.758 266.453 136.695C266.613 136.632 266.759 136.54 266.881 136.425C267.004 136.309 267.101 136.171 267.167 136.02C267.233 135.868 267.267 135.706 267.266 135.542C267.267 135.379 267.233 135.216 267.167 135.065C267.101 134.914 267.004 134.776 266.881 134.66C266.759 134.544 266.613 134.452 266.453 134.389C266.293 134.327 266.121 134.294 265.947 134.294H221.076C220.726 134.294 220.391 134.163 220.143 133.93C219.896 133.697 219.757 133.38 219.757 133.05C219.757 132.72 219.896 132.403 220.143 132.169C220.39 131.935 220.726 131.803 221.076 131.802H279.992C280.341 131.8 280.676 131.668 280.922 131.434C281.168 131.2 281.306 130.884 281.306 130.554Z" fill="#9EE6E0"/>
<path d="M29.5204 136.79H18.8107C18.637 136.79 18.4649 136.758 18.3044 136.695C18.1439 136.632 17.998 136.54 17.8752 136.424C17.7523 136.309 17.6549 136.171 17.5884 136.02C17.5219 135.868 17.4877 135.706 17.4877 135.542C17.4877 135.378 17.5219 135.216 17.5884 135.064C17.6549 134.913 17.7523 134.775 17.8752 134.659C17.998 134.544 18.1439 134.452 18.3044 134.389C18.4649 134.326 18.637 134.294 18.8107 134.294H29.5204C29.8713 134.294 30.2078 134.425 30.4559 134.659C30.7041 134.894 30.8435 135.211 30.8435 135.542C30.8435 135.873 30.7041 136.19 30.4559 136.424C30.2078 136.658 29.8713 136.79 29.5204 136.79Z" fill="#9EE6E0"/>
<path d="M168.997 89.5869H166.943L166.396 94.2285L168.579 93.1183L168.997 89.5869Z" fill="#422C4F"/>
<path d="M166.396 94.2284L162.911 123.708H164.965L168.579 93.1182L166.396 94.2284Z" fill="#99A3B0"/>
<path d="M184.302 93.7127L180.754 123.708H182.807L186.484 92.6025L184.302 93.7127Z" fill="#99A3B0"/>
<path d="M186.839 89.5869H184.79L184.302 93.7127L186.484 92.6025L186.839 89.5869Z" fill="#422C4F"/>
<path d="M194.56 89.5869H192.511L193.012 93.823L194.944 92.8348L194.56 89.5869Z" fill="#422C4F"/>
<path d="M198.596 123.708L194.944 92.835L193.012 93.8231L196.543 123.708H198.596Z" fill="#99A3B0"/>
<path d="M212.407 89.5869H210.354L210.821 93.5395L212.754 92.5514L212.407 89.5869Z" fill="#422C4F"/>
<path d="M216.439 123.708L212.753 92.5518L210.821 93.5399L214.385 123.708H216.439Z" fill="#99A3B0"/>
<path d="M165.466 89.5872C166.378 87.7237 167.838 86.1457 169.671 85.0399C171.505 83.9341 173.636 83.3468 175.812 83.3473H189.393L196.735 38.2585L207.052 30.3848H213.588C215.514 30.3847 217.416 30.7773 219.166 31.5357C220.916 32.2942 222.471 33.4004 223.724 34.7787C224.978 36.157 225.901 37.7748 226.43 39.5211C226.96 41.2673 227.082 43.1009 226.79 44.896L220.6 82.9064C220.301 84.7684 219.303 86.4675 217.79 87.6954C216.276 88.9233 214.345 89.5987 212.349 89.599L165.466 89.5872Z" fill="#797C99"/>
<path d="M158.934 89.5872C159.848 87.7243 161.307 86.1468 163.141 85.0411C164.974 83.9354 167.104 83.3477 169.281 83.3473H182.862L189.122 44.9039C189.782 40.8608 191.954 37.1742 195.246 34.5115C198.538 31.8489 202.732 30.3863 207.069 30.3887C208.995 30.3886 210.897 30.7812 212.647 31.5397C214.396 32.2981 215.951 33.4043 217.205 34.7826C218.459 36.1609 219.382 37.7787 219.911 39.525C220.44 41.2713 220.563 43.1048 220.27 44.8999L214.757 78.6545C214.546 79.9559 213.847 81.1429 212.789 82.0008C211.73 82.8587 210.381 83.3307 208.985 83.3315H200.416C198.24 83.331 196.109 83.9183 194.275 85.0241C192.442 86.1299 190.982 87.7079 190.07 89.5714H158.934V89.5872Z" fill="#495375"/>
<path d="M178.438 30.4199C179.325 30.8307 180.293 31.0631 181.281 31.1025C182.268 31.1419 183.254 30.9874 184.174 30.6487C185.095 30.3101 185.932 29.7947 186.63 29.1352C187.329 28.4757 187.875 27.6866 188.233 26.8177H186.618C186.175 26.8177 185.751 26.6518 185.438 26.3565C185.124 26.0611 184.949 25.6606 184.949 25.2429V19.9951L177.749 21.7667V25.5736C177.749 25.9913 177.573 26.3918 177.26 26.6872C176.947 26.9825 176.522 27.1484 176.079 27.1484H175.074C175.766 28.5693 176.953 29.7238 178.438 30.4199Z" fill="#EBA58E"/>
<path d="M184.965 19.9951C183.747 24.0973 181.242 25.802 177.766 24.6524V21.7667L184.965 19.9951Z" fill="#422C4F"/>
<path d="M171.088 14.09C168.27 12.0901 169.209 7.98788 169.627 7.39735C168.572 6.83722 167.679 6.0409 167.027 5.07855C166.717 4.60203 166.519 4.06817 166.447 3.51319C166.375 2.95822 166.43 2.39512 166.609 1.86213C166.801 1.33262 167.16 0.870822 167.637 0.538182C168.114 0.205542 168.687 0.0178238 169.28 0C170.662 0.0236211 171.755 1.08657 173.058 1.51175C174.36 1.93694 175.825 1.70072 177.177 1.37003C178.529 1.03933 179.89 0.622024 181.28 0.720446C182.472 0.79971 183.602 1.25645 184.485 2.01668C185.368 2.77692 185.954 3.79614 186.146 4.90926C186.733 4.67198 187.387 4.62921 188.003 4.78794C188.618 4.94668 189.158 5.29754 189.535 5.78324C190.199 6.72809 190.103 7.96426 189.953 9.08626C189.665 11.1216 188.496 16.0348 187.979 18.0269L184.059 18.9442L171.088 14.09Z" fill="#422C4F"/>
<path d="M186.785 15.1414C187.14 14.5651 187.708 14.1321 188.379 13.9249C188.714 13.8275 189.071 13.8209 189.41 13.9059C189.749 13.9908 190.056 14.1638 190.295 14.4052C190.476 14.6258 190.603 14.8813 190.667 15.1535C190.731 15.4256 190.731 15.7078 190.666 15.9799C190.538 16.5195 190.297 17.0295 189.957 17.4799C189.682 17.9087 189.338 18.2951 188.939 18.6255C188.535 18.956 188.028 19.1536 187.495 19.1884C187.229 19.2047 186.963 19.159 186.721 19.0553C186.478 18.9516 186.267 18.7932 186.105 18.594C185.754 18.1334 185.85 17.4838 186.009 16.9681C186.177 16.3285 186.439 15.7138 186.785 15.1414Z" fill="#EBA58E"/>
<path d="M187.423 18.3933C187.302 18.3974 187.181 18.3754 187.069 18.3291C186.958 18.2827 186.859 18.2131 186.781 18.1256C186.726 18.0508 186.618 17.8107 186.81 17.1768C186.96 16.6116 187.189 16.0675 187.49 15.5588C187.739 15.149 188.136 14.8374 188.609 14.6809C188.713 14.6537 188.822 14.6405 188.93 14.6415C189.065 14.6359 189.2 14.6572 189.326 14.704C189.452 14.7508 189.566 14.8221 189.661 14.9131C189.758 15.0444 189.825 15.1937 189.857 15.3512C189.888 15.5087 189.884 15.6707 189.844 15.8265C189.732 16.2619 189.534 16.6733 189.26 17.039C189.037 17.3996 188.755 17.725 188.425 18.0036C188.163 18.2278 187.83 18.3659 187.478 18.3973L187.423 18.3933Z" fill="#DE7274"/>
<path d="M185.487 13.6295C184.499 13.1962 183.685 12.4757 183.164 11.5736C182.642 10.6716 182.441 9.63565 182.59 8.61793C179.06 9.66452 175.263 9.58705 171.785 8.39746C170.988 9.60362 170.566 10.9961 170.566 12.417V16.0901C170.565 17.0939 170.775 18.088 171.181 19.0155C171.588 19.9431 172.185 20.7859 172.937 21.4959C173.69 22.2059 174.583 22.7691 175.566 23.1534C176.549 23.5377 177.603 23.7355 178.667 23.7355C180.427 23.7347 182.138 23.1939 183.543 22.1946C184.948 21.1953 185.97 19.7919 186.455 18.1963C186.235 17.9796 186.039 17.7421 185.871 17.4877C185.504 16.9129 185.279 16.2677 185.213 15.5999C185.146 14.932 185.24 14.2586 185.487 13.6295Z" fill="#EBA58E"/>
<path d="M172.478 11.8301C172.102 11.9413 171.761 12.1365 171.482 12.399C171.204 12.6616 170.997 12.9837 170.879 13.338L174.41 12.5034C174.19 12.2284 173.891 12.0189 173.549 11.8995C173.206 11.7802 172.834 11.7561 172.478 11.8301Z" fill="#422C4F"/>
<path d="M172.816 15.1921C173.113 15.1921 173.354 14.8907 173.354 14.5189C173.354 14.1471 173.113 13.8457 172.816 13.8457C172.518 13.8457 172.277 14.1471 172.277 14.5189C172.277 14.8907 172.518 15.1921 172.816 15.1921Z" fill="#422C4F"/>
<path d="M180.157 12.1928C180.608 12.2722 181.033 12.4494 181.399 12.7104C181.765 12.9714 182.061 13.309 182.265 13.6966L177.607 12.862C177.948 12.5717 178.356 12.36 178.798 12.2439C179.241 12.1277 179.706 12.1102 180.157 12.1928Z" fill="#422C4F"/>
<path d="M178.997 14.8773C178.997 15.0105 179.039 15.1406 179.117 15.2513C179.196 15.362 179.307 15.4483 179.438 15.4993C179.568 15.5502 179.711 15.5636 179.85 15.5376C179.988 15.5116 180.116 15.4475 180.215 15.3533C180.315 15.2592 180.383 15.1392 180.411 15.0087C180.438 14.8781 180.424 14.7427 180.37 14.6197C180.316 14.4967 180.225 14.3915 180.107 14.3176C179.99 14.2436 179.852 14.2041 179.711 14.2041C179.617 14.2036 179.524 14.2207 179.437 14.2543C179.35 14.2879 179.271 14.3375 179.205 14.4001C179.138 14.4627 179.086 14.5372 179.05 14.6191C179.014 14.701 178.996 14.7888 178.997 14.8773Z" fill="#422C4F"/>
<path d="M176.472 18.6924C176.104 18.6609 175.733 18.6176 175.353 18.5704C175.162 18.5454 174.978 18.4832 174.813 18.3876C174.649 18.292 174.507 18.1653 174.397 18.0153C174.292 17.8694 174.22 17.7045 174.187 17.5309C174.153 17.3574 174.158 17.1791 174.201 17.0075C174.499 15.8702 174.894 14.7576 175.382 13.6808C175.388 13.6692 175.395 13.6586 175.405 13.6498C175.414 13.6409 175.425 13.6339 175.438 13.6291C175.45 13.6244 175.464 13.622 175.477 13.6221C175.49 13.6222 175.504 13.6247 175.516 13.6296C175.528 13.6346 175.539 13.6417 175.549 13.6507C175.558 13.6597 175.566 13.6703 175.571 13.682C175.576 13.6937 175.578 13.7063 175.578 13.7189C175.578 13.7315 175.575 13.744 175.57 13.7556C175.089 14.8243 174.7 15.9275 174.406 17.0547C174.366 17.1991 174.36 17.3499 174.389 17.4967C174.417 17.6434 174.478 17.7827 174.568 17.9051C174.661 18.0324 174.781 18.14 174.92 18.2207C175.06 18.3015 175.216 18.3535 175.378 18.3736C175.754 18.4208 176.125 18.4641 176.488 18.4956C176.516 18.4956 176.543 18.506 176.562 18.5244C176.582 18.5429 176.593 18.5679 176.593 18.594C176.593 18.6201 176.582 18.6452 176.562 18.6636C176.543 18.6821 176.516 18.6924 176.488 18.6924H176.472Z" fill="#422C4F"/>
<path d="M179.723 19.0898L174.535 19.6646C174.849 20.0618 175.262 20.3797 175.737 20.5898C176.213 20.8 176.736 20.896 177.26 20.8693C178.304 20.7827 179.239 19.9678 179.723 19.0898Z" fill="white"/>
<path d="M185.867 66.3838H170.633L147.089 72.4505C145.788 72.7859 144.576 73.3762 143.533 74.1829C142.49 74.9896 141.639 75.9946 141.036 77.1323C140.432 78.27 140.089 79.515 140.03 80.786C139.97 82.0571 140.196 83.3256 140.691 84.5091L151.087 109.362L161.313 105.575L157.348 84.9539H166.459L185.867 73.0292V66.3838Z" fill="#5088BA"/>
<path d="M162.415 105.169L149.981 109.771L151.329 113.964L163.767 109.362L162.415 105.169Z" fill="#6CA7D3"/>
<path d="M150.47 124.29C150.274 124.829 150.174 125.394 150.173 125.963H167.018L166.476 124.29H150.47Z" fill="#BD6C67"/>
<path d="M161.864 110.066L153.663 113.102L155.678 118.172C155.864 118.633 155.86 119.142 155.667 119.6C155.474 120.058 155.105 120.431 154.635 120.645L153.291 121.255C152.627 121.557 152.034 121.981 151.547 122.502C151.06 123.023 150.688 123.631 150.453 124.29H166.459L161.864 110.066Z" fill="#8C404C"/>
<path d="M160.854 81.1981L161.626 84.9381H166.459L185.867 73.0134V69.1592L166.701 72.9031C164.766 73.282 163.066 74.3652 161.972 75.918C160.877 77.4707 160.476 79.3679 160.854 81.1981Z" fill="#457BA3"/>
<path d="M193.137 66.3828L173.27 71.4102C170.561 72.0955 168.203 73.6772 166.628 75.8665C165.052 78.0559 164.364 80.7067 164.689 83.3349L167.573 106.606H179.468L180.407 83.4767H189.068C193.164 83.4767 197.091 81.942 199.987 79.2103C202.884 76.4786 204.511 72.7735 204.511 68.9103V62.6113L193.137 66.3828Z" fill="#5088BA"/>
<path d="M180.441 106.606H166.459V110.61H180.441V106.606Z" fill="#6CA7D3"/>
<path d="M178.563 110.61H168.479V117.303C168.48 118.336 168.186 119.349 167.629 120.238C167.071 121.127 166.271 121.857 165.311 122.354C163.946 123.061 162.92 124.235 162.444 125.633H178.563V110.61Z" fill="#A64F5A"/>
<path d="M162.444 125.633C162.248 126.204 162.148 126.8 162.148 127.4V127.538H178.563V125.633H162.444Z" fill="#DF8D6D"/>
<path d="M180.408 83.4774L180.662 77.21C181.47 78.0127 181.989 79.0349 182.146 80.1315C182.304 81.2281 182.091 82.3436 181.539 83.32L181.451 83.4774H180.408Z" fill="#457BA3"/>
<path d="M178.563 106.705C178.535 106.705 178.509 106.694 178.489 106.676C178.469 106.657 178.458 106.632 178.458 106.606V82.493C178.458 82.4668 178.469 82.4418 178.489 82.4234C178.509 82.4049 178.535 82.3945 178.563 82.3945C178.59 82.3945 178.617 82.4049 178.637 82.4234C178.656 82.4418 178.667 82.4668 178.667 82.493V106.606C178.667 106.632 178.656 106.657 178.637 106.676C178.617 106.694 178.59 106.705 178.563 106.705Z" fill="#422C4F"/>
<path d="M160.303 100.413C160.278 100.413 160.254 100.405 160.235 100.389C160.216 100.374 160.203 100.354 160.198 100.331L155.678 76.8159C155.676 76.7914 155.683 76.7669 155.699 76.7472C155.715 76.7275 155.738 76.7141 155.763 76.7096C155.789 76.7052 155.816 76.71 155.838 76.7231C155.86 76.7362 155.876 76.7567 155.883 76.7805L160.403 100.307C160.406 100.32 160.406 100.333 160.404 100.346C160.401 100.359 160.396 100.371 160.388 100.381C160.38 100.392 160.37 100.401 160.358 100.408C160.346 100.415 160.333 100.419 160.319 100.421L160.303 100.413Z" fill="#422C4F"/>
<path d="M158.045 105.264C158.021 105.265 157.998 105.258 157.979 105.244C157.96 105.231 157.946 105.211 157.941 105.189L151.471 80.0565C151.465 80.0309 151.469 80.0039 151.484 79.9814C151.498 79.9589 151.521 79.9427 151.549 79.9364C151.576 79.9302 151.604 79.9343 151.628 79.948C151.652 79.9616 151.669 79.9837 151.676 80.0093L158.145 105.146C158.148 105.159 158.149 105.172 158.146 105.185C158.144 105.198 158.139 105.21 158.132 105.221C158.124 105.232 158.115 105.241 158.103 105.249C158.092 105.256 158.079 105.261 158.066 105.264H158.045Z" fill="#422C4F"/>
<path d="M150.77 71.5996C150.746 71.5987 150.722 71.5895 150.704 71.5737C150.685 71.5578 150.674 71.5364 150.671 71.5132C150.668 71.49 150.674 71.4665 150.687 71.447C150.701 71.4274 150.721 71.4131 150.745 71.4067L170.608 66.2887C170.621 66.2852 170.635 66.2843 170.648 66.286C170.662 66.2877 170.675 66.292 170.687 66.2986C170.698 66.3053 170.709 66.3141 170.717 66.3246C170.725 66.3351 170.73 66.347 170.733 66.3596C170.737 66.3718 170.738 66.3845 170.736 66.3971C170.735 66.4097 170.731 66.4218 170.724 66.4328C170.718 66.4439 170.709 66.4535 170.698 66.4612C170.687 66.4689 170.675 66.4745 170.662 66.4777L150.8 71.5956L150.77 71.5996Z" fill="#422C4F"/>
<path d="M166.33 96.666C166.304 96.6662 166.279 96.6574 166.26 96.6415C166.241 96.6255 166.229 96.6034 166.226 96.5794L164.585 83.3476C164.27 80.6981 164.97 78.0296 166.557 75.8236C168.144 73.6175 170.515 72.0191 173.241 71.3166L189.757 67.1396C189.77 67.136 189.783 67.1349 189.796 67.1364C189.81 67.1378 189.823 67.1418 189.834 67.148C189.846 67.1543 189.856 67.1627 189.864 67.1727C189.873 67.1827 189.879 67.1942 189.882 67.2065C189.886 67.2189 189.888 67.232 189.887 67.2451C189.886 67.2581 189.882 67.2707 189.875 67.2822C189.868 67.2937 189.859 67.3037 189.848 67.3117C189.837 67.3197 189.824 67.3254 189.811 67.3285L173.296 71.5055C170.619 72.1959 168.292 73.765 166.733 75.9304C165.175 78.0957 164.487 80.7149 164.794 83.3161L166.434 96.5479C166.437 96.5738 166.429 96.5997 166.411 96.6202C166.394 96.6406 166.37 96.6542 166.342 96.6581L166.33 96.666Z" fill="#422C4F"/>
<path d="M190.708 26.8184H188.233C187.724 28.0551 186.839 29.1224 185.689 29.8862C184.539 30.6501 183.176 31.0765 181.77 31.1118C180.364 31.1472 178.978 30.7899 177.787 30.0848C176.596 29.3798 175.652 28.3585 175.074 27.1491H169.94C167.536 27.1487 165.191 27.8474 163.224 29.1501C161.256 30.4527 159.763 32.2958 158.946 34.4283L154.042 47.2349L166.321 50.3096L167.92 44.924L170.633 66.3838H185.867L201.172 55.2307L190.708 26.8184Z" fill="#FBEED1"/>
<path d="M190.708 26.8184H194.882C197.195 26.8183 199.456 27.4658 201.379 28.679C203.302 29.8921 204.8 31.6163 205.683 33.6331L210.629 44.924L198.943 49.1325L190.708 26.8184Z" fill="#FBEED1"/>
<path d="M185.867 66.3834L201.172 55.2303L198.926 49.1281L208.822 45.585L211.881 53.9783C212.415 55.4518 212.31 57.0645 211.589 58.4654C210.869 59.8663 209.591 60.942 208.033 61.4584L193.137 66.3834L180.929 69.4738L185.867 66.3834Z" fill="#EBA58E"/>
<path d="M208.826 45.5732L198.926 49.1322L199.97 51.9667L209.047 46.1913L208.826 45.5732Z" fill="#422C4F"/>
<path d="M164.86 67.8712L163.4 54.5488L165.441 50.0884L155.169 47.5137L154.03 51.2301C153.373 53.3876 153.455 55.6856 154.263 57.7967L158.738 69.4498L164.86 67.8712Z" fill="#EBA58E"/>
<path d="M155.169 47.5137L165.441 50.0884L164.414 52.3324L154.973 48.1475L155.169 47.5137Z" fill="#422C4F"/>
<path d="M194.69 37.6357L196.359 52.5328C196.428 53.1675 196.359 53.8086 196.157 54.4176C195.956 55.0265 195.625 55.5907 195.186 56.076L185.875 66.3669L201.172 55.2296L194.69 37.6357Z" fill="#F7DD8C"/>
<path d="M167.92 44.9239L166.776 35.8691L165.829 40.4674C165.341 42.8137 165.845 45.2471 167.235 47.2467L167.92 44.9239Z" fill="#F7DD8C"/>
<path d="M198.926 49.2306C198.904 49.2308 198.883 49.2245 198.865 49.2125C198.847 49.2004 198.833 49.1833 198.826 49.1636L193.943 35.9004C193.938 35.8885 193.935 35.8758 193.935 35.863C193.936 35.8502 193.939 35.8376 193.945 35.826C193.951 35.8145 193.959 35.8043 193.97 35.7961C193.98 35.7878 193.992 35.7818 194.005 35.7783C194.031 35.7695 194.06 35.7707 194.085 35.7818C194.11 35.7928 194.13 35.8128 194.139 35.8374L199.022 49.1006C199.032 49.1252 199.03 49.1522 199.019 49.1759C199.007 49.1995 198.986 49.2177 198.96 49.2266L198.926 49.2306Z" fill="#422C4F"/>
<path d="M197.791 46.2263C197.77 46.2252 197.749 46.2183 197.732 46.2064C197.715 46.1945 197.702 46.1782 197.695 46.1594C197.685 46.1353 197.686 46.1087 197.697 46.0852C197.708 46.0616 197.728 46.0431 197.753 46.0334L207.737 42.4902C207.763 42.4814 207.792 42.4826 207.817 42.4937C207.842 42.5048 207.861 42.5248 207.87 42.5493C207.88 42.5738 207.878 42.6009 207.867 42.6245C207.855 42.6481 207.834 42.6664 207.808 42.6753L197.829 46.2184L197.791 46.2263Z" fill="#422C4F"/>
<path d="M192.549 61.6119C192.527 61.6119 192.505 61.6054 192.488 61.5933C192.47 61.5812 192.457 61.5642 192.45 61.5446C192.443 61.525 192.443 61.5038 192.449 61.4841C192.456 61.4644 192.469 61.4471 192.486 61.4347L203.922 53.1004C203.941 53.0824 203.968 53.0723 203.995 53.0723C204.022 53.0723 204.049 53.0824 204.068 53.1004C204.087 53.1195 204.098 53.1449 204.098 53.1713C204.098 53.1977 204.087 53.2231 204.068 53.2421L192.628 61.5764C192.619 61.5884 192.607 61.598 192.593 61.6042C192.579 61.6104 192.564 61.6131 192.549 61.6119Z" fill="#422C4F"/>
<path d="M169.765 59.6165C169.74 59.6151 169.716 59.6058 169.697 59.5901C169.678 59.5744 169.665 59.5532 169.66 59.5298L166.672 35.8811C166.67 35.8552 166.678 35.8293 166.695 35.8089C166.712 35.7884 166.737 35.7748 166.764 35.7709C166.791 35.7686 166.819 35.7763 166.84 35.7924C166.862 35.8085 166.877 35.8318 166.881 35.8575L169.869 59.5062C169.871 59.5191 169.87 59.5323 169.866 59.5449C169.862 59.5574 169.856 59.5692 169.848 59.5794C169.839 59.5897 169.828 59.5983 169.816 59.6046C169.804 59.611 169.791 59.615 169.777 59.6165H169.765Z" fill="#422C4F"/>
<path d="M166.785 48.8486H166.755C166.742 48.8455 166.729 48.8398 166.718 48.8318C166.707 48.8238 166.698 48.8138 166.691 48.8023C166.685 48.7908 166.681 48.7782 166.679 48.7651C166.678 48.7521 166.68 48.739 166.684 48.7266L167.82 44.9C167.827 44.8749 167.845 44.8538 167.87 44.8412C167.894 44.8287 167.922 44.8257 167.949 44.833C167.976 44.8403 167.998 44.8573 168.011 44.8802C168.025 44.9031 168.028 44.93 168.02 44.9551L166.885 48.7817C166.878 48.8014 166.864 48.8185 166.846 48.8305C166.828 48.8426 166.807 48.8489 166.785 48.8486Z" fill="#422C4F"/>
<path d="M167.098 47.7931H167.073L156.638 45.2932C156.624 45.291 156.61 45.286 156.598 45.2785C156.586 45.2709 156.575 45.261 156.567 45.2494C156.559 45.2379 156.554 45.2248 156.552 45.2112C156.55 45.1976 156.55 45.1837 156.554 45.1704C156.558 45.157 156.565 45.1446 156.574 45.1339C156.583 45.1233 156.595 45.1145 156.608 45.1083C156.621 45.1021 156.635 45.0985 156.65 45.0978C156.664 45.0971 156.679 45.0993 156.693 45.1043L167.127 47.6002C167.154 47.6034 167.18 47.6167 167.197 47.6374C167.214 47.6581 167.222 47.6844 167.219 47.7105C167.215 47.7366 167.201 47.7604 167.179 47.7766C167.157 47.7928 167.129 47.8002 167.102 47.7971L167.098 47.7931Z" fill="#422C4F"/>
<path d="M60.4435 95.1895H62.4969L63.0437 99.831L60.8608 98.7169L60.4435 95.1895Z" fill="#422C4F"/>
<path d="M63.0434 99.8309L66.5285 129.31H64.4792L60.8606 98.7168L63.0434 99.8309Z" fill="#99A3B0"/>
<path d="M45.1383 99.3153L48.6859 129.31H46.6325L42.9554 98.2012L45.1383 99.3153Z" fill="#99A3B0"/>
<path d="M42.601 95.1895H44.6502L45.1385 99.3153L42.9557 98.2011L42.601 95.1895Z" fill="#422C4F"/>
<path d="M34.8795 95.1895H36.9287L36.4279 99.4216L34.4955 98.4374L34.8795 95.1895Z" fill="#422C4F"/>
<path d="M30.8434 129.31L34.4954 98.4375L36.4278 99.4217L32.8968 129.31H30.8434Z" fill="#99A3B0"/>
<path d="M17.0328 95.1895H19.0863L18.6188 99.1381L16.6823 98.1539L17.0328 95.1895Z" fill="#422C4F"/>
<path d="M13.0011 129.311L16.6823 98.1543L18.6189 99.1385L15.0504 129.311H13.0011Z" fill="#99A3B0"/>
<path d="M63.9742 95.1898C63.062 93.3255 61.6028 91.7467 59.7692 90.6402C57.9356 89.5337 55.8044 88.9457 53.6276 88.9459H40.0423L32.7008 43.861L22.3834 35.9873H15.86C13.9345 35.9872 12.0318 36.3799 10.2823 37.1383C8.53273 37.8967 6.97772 39.003 5.72384 40.3813C4.46995 41.7596 3.54684 43.3773 3.01776 45.1236C2.48869 46.8699 2.36617 48.7034 2.65859 50.4986L8.83565 88.4971C9.13514 90.3591 10.1323 92.0582 11.6462 93.2861C13.1601 94.514 15.0904 95.1894 17.087 95.1898H63.9742Z" fill="#797C99"/>
<path d="M70.506 95.1898C69.5934 93.3258 68.1341 91.7473 66.3006 90.6408C64.4671 89.5343 62.3361 88.9462 60.1594 88.9459H46.5783L40.3177 50.5064C39.6594 46.4627 37.4873 42.7751 34.1951 40.1116C30.9028 37.4482 26.7081 35.9851 22.3709 35.9873C20.4465 35.9889 18.5452 36.3828 16.7972 37.142C15.0492 37.9011 13.4957 39.0077 12.2432 40.3858C10.9907 41.7639 10.0687 43.381 9.54034 45.1264C9.01199 46.8719 8.88976 48.7044 9.18203 50.4986L14.6829 84.2729C14.8951 85.5728 15.5931 86.7584 16.6509 87.6154C17.7087 88.4724 19.0566 88.9443 20.451 88.9459H29.0196C31.197 88.945 33.3292 89.5326 35.1636 90.6391C36.998 91.7457 38.4578 93.3249 39.3703 95.1898H70.506Z" fill="#495375"/>
<path d="M49.1452 72.0918L42.2461 88.9455H76.7959L70.6397 114.011H87.3344L92.0632 87.2408C92.3258 85.7523 92.2616 84.2288 91.8746 82.7646C91.4876 81.3005 90.786 79.9269 89.8133 78.7289C88.8406 77.5309 87.6175 76.534 86.2198 75.8C84.822 75.066 83.2794 74.6105 81.6874 74.4618L56.445 72.0997L49.1452 72.0918Z" fill="#537496"/>
<path d="M76.7957 88.9451L78.7657 80.9336L76.2615 83.0437C75.9911 83.2732 75.7748 83.5537 75.6267 83.867C75.4786 84.1803 75.4019 84.5195 75.4017 84.8626C75.4014 85.4579 75.1704 86.0326 74.7522 86.4785C74.3341 86.9244 73.7576 87.2108 73.1312 87.2837L72.1003 87.4018L71.8248 88.9451H76.7957Z" fill="#495375"/>
<path d="M85.4605 123.676C85.4306 123.65 85.4027 123.622 85.377 123.593L85.0014 123.199C84.5563 122.73 84.2282 122.173 84.0411 121.569C83.854 120.965 83.8128 120.329 83.9204 119.707L84.9346 114.011H77.2383L76.2659 119.55C76.0908 120.642 75.7 121.693 75.1139 122.648C74.5573 123.564 74.1361 124.546 73.8618 125.569H83.3361C83.8233 124.749 84.5644 124.088 85.4605 123.676Z" fill="#A64F5A"/>
<path d="M89.4504 125.109L88.1733 124.963C87.1362 124.844 86.1762 124.386 85.4604 123.668C84.5597 124.078 83.814 124.739 83.3235 125.562H73.8492C73.6676 126.208 73.5365 126.866 73.4569 127.53C73.4291 127.752 73.4516 127.977 73.5229 128.19C73.5943 128.403 73.7128 128.599 73.8707 128.765C74.0286 128.932 74.2222 129.064 74.4387 129.155C74.6552 129.245 74.8896 129.291 75.1264 129.29H93.3988C93.3961 128.258 92.993 127.263 92.2655 126.493C91.538 125.722 90.5366 125.23 89.4504 125.109Z" fill="#ECA85E"/>
<path d="M77.2382 114.011H84.9345L84.78 114.904L76.8375 116.385L77.2382 114.011Z" fill="#422C4F"/>
<path d="M64.4543 123.676C64.4292 123.648 64.3958 123.625 64.3708 123.593L63.9952 123.199C63.55 122.73 63.2219 122.173 63.0349 121.569C62.8478 120.965 62.8066 120.329 62.9142 119.707L63.8908 114.011H56.1945L55.2596 119.55C55.0846 120.642 54.6938 121.693 54.1077 122.648C53.5495 123.563 53.1282 124.546 52.8556 125.569H62.3257C62.815 124.749 63.5574 124.089 64.4543 123.676Z" fill="#BD6C67"/>
<path d="M68.4484 125.109L67.1712 124.963C66.1345 124.843 65.1748 124.385 64.4583 123.668C63.5584 124.079 62.813 124.74 62.3214 125.562H52.8472C52.657 126.207 52.5175 126.865 52.4298 127.53C52.402 127.752 52.4245 127.977 52.4958 128.19C52.5672 128.403 52.6857 128.599 52.8436 128.765C53.0015 128.932 53.1951 129.064 53.4116 129.155C53.6281 129.245 53.8625 129.291 54.0993 129.29H72.3675C72.3657 128.262 71.9667 127.271 71.2452 126.501C70.5237 125.731 69.5292 125.236 68.4484 125.109Z" fill="#F4D071"/>
<path d="M56.1945 114.011H63.8908L63.7405 114.904L55.7938 116.385L56.1945 114.011Z" fill="#422C4F"/>
<path d="M29.2158 72.0918L27.3585 76.631C26.7974 78.0025 26.5988 79.4823 26.7798 80.9424C26.9608 82.4026 27.516 83.7992 28.3975 85.0116C29.2789 86.224 30.46 87.2157 31.8388 87.9011C33.2175 88.5865 34.7525 88.945 36.311 88.9455H56.8623L50.7102 114.011H67.405L72.2047 86.7448C72.4612 85.2945 72.4075 83.8104 72.0467 82.38C71.686 80.9496 71.0255 79.6017 70.1042 78.4157C69.1828 77.2297 68.0193 76.2295 66.682 75.4741C65.3446 74.7187 63.8606 74.2232 62.3173 74.0169L47.9097 72.0918H29.2158Z" fill="#6081A8"/>
<path d="M56.8664 88.9451L58.8489 80.9336L56.4448 83.1815C55.6581 83.9216 55.0901 84.8428 54.7972 85.8538C54.5044 86.8648 54.4969 87.9305 54.7754 88.9451H56.8956H56.8664Z" fill="#495375"/>
<path d="M56.8664 89.0435H42.2585C42.2308 89.0435 42.2043 89.0331 42.1847 89.0147C42.1652 88.9962 42.1542 88.9712 42.1542 88.9451C42.1542 88.919 42.1652 88.894 42.1847 88.8755C42.2043 88.857 42.2308 88.8467 42.2585 88.8467H56.8664C56.8941 88.8467 56.9206 88.857 56.9402 88.8755C56.9598 88.894 56.9708 88.919 56.9708 88.9451C56.9708 88.9712 56.9598 88.9962 56.9402 89.0147C56.9206 89.0331 56.8941 89.0435 56.8664 89.0435Z" fill="#422C4F"/>
<path d="M51.5952 110.508H51.5702C51.5438 110.501 51.5211 110.485 51.5071 110.463C51.493 110.441 51.4887 110.415 51.495 110.39L58.7322 80.9145C58.7391 80.8894 58.7559 80.8677 58.7792 80.8538C58.8024 80.8399 58.8304 80.8348 58.8574 80.8397C58.8709 80.8425 58.8836 80.8478 58.8949 80.8552C58.9062 80.8627 58.9158 80.8722 58.9232 80.8831C58.9305 80.8941 58.9355 80.9064 58.9379 80.9192C58.9402 80.932 58.9398 80.9451 58.9367 80.9578L51.6996 110.433C51.6932 110.455 51.6795 110.473 51.6607 110.487C51.6419 110.5 51.6189 110.508 51.5952 110.508Z" fill="#422C4F"/>
<path d="M62.3341 74.1158L53.3607 72.9151C53.3467 72.9142 53.3331 72.9105 53.3208 72.9043C53.3084 72.8981 53.2975 72.8896 53.2889 72.8792C53.2802 72.8688 53.274 72.8568 53.2705 72.844C53.2671 72.8312 53.2665 72.8179 53.2689 72.8048C53.2709 72.7918 53.2757 72.7793 53.2829 72.7681C53.2901 72.7569 53.2996 72.7471 53.3109 72.7394C53.3222 72.7317 53.335 72.7262 53.3486 72.7232C53.3621 72.7203 53.3762 72.7199 53.3899 72.7221L62.3634 73.9229C62.377 73.9243 62.3901 73.9284 62.402 73.9348C62.4139 73.9412 62.4243 73.9498 62.4325 73.9601C62.4407 73.9704 62.4466 73.9822 62.4498 73.9948C62.4529 74.0074 62.4534 74.0204 62.451 74.0331C62.4495 74.046 62.4452 74.0584 62.4384 74.0696C62.4316 74.0808 62.4225 74.0906 62.4115 74.0983C62.4006 74.1061 62.3881 74.1116 62.3748 74.1146C62.3614 74.1176 62.3476 74.118 62.3341 74.1158Z" fill="#422C4F"/>
<path d="M67.956 110.992C67.929 110.989 67.9047 110.975 67.8883 110.954C67.8719 110.934 67.8647 110.908 67.8683 110.882L71.0403 92.8278C71.0464 92.8027 71.0621 92.7807 71.0846 92.7662C71.107 92.7516 71.1344 92.7455 71.1614 92.7491C71.1752 92.751 71.1884 92.7555 71.2003 92.7623C71.2122 92.7691 71.2226 92.7781 71.2307 92.7887C71.2389 92.7994 71.2447 92.8114 71.2479 92.8242C71.251 92.837 71.2514 92.8503 71.249 92.8632L68.0603 110.922C68.0532 110.942 68.0393 110.96 68.0205 110.973C68.0017 110.986 67.9791 110.993 67.956 110.992Z" fill="#422C4F"/>
<path d="M62.743 45.3877L65.6646 54.5488L79.997 70.6505L76.1614 73.9299L62.3549 62.4264C60.3744 60.7796 58.9579 58.6144 58.2855 56.2062L55.8564 47.5451L62.743 45.3877Z" fill="#A64F5A"/>
<path d="M62.743 45.3877L55.8564 47.553L58.2855 56.2141C58.2855 56.2613 58.3147 56.3046 58.3273 56.3518L64.3499 50.4466L62.743 45.3877Z" fill="#422C4F"/>
<path d="M54.6252 31.2502C55.7834 31.1961 56.9277 31.5073 57.8776 32.1346C58.8276 32.7619 59.5291 33.6696 59.8716 34.7146L64.016 47.3322L59.7881 48.2416L57.2839 41.4506L54.6252 31.2502Z" fill="#F29E38"/>
<path d="M57.2839 41.4514L59.7881 48.2425L63.4443 47.4551L56.2614 37.5264L57.2839 41.4514Z" fill="#ECA85E"/>
<path d="M57.3089 20.027C58.9325 17.842 60.3974 15.4878 60.9943 12.8776C61.5911 10.2675 61.2155 7.36604 59.4542 5.27557C57.6929 3.1851 54.3831 2.20483 51.8706 3.42525C48.7737 1.51194 45.0591 0.275766 41.6075 1.55131C39.8812 2.19887 38.34 3.21935 37.1077 4.53074C35.8755 5.84214 34.9865 7.40789 34.5122 9.1022C32.6675 15.9248 37.8929 23.2749 35.5181 29.9675C34.5414 32.7233 32.3962 34.924 30.5514 37.2429C28.7066 39.5617 27.058 42.2938 27.3502 45.1796C27.73 48.8841 31.4279 51.7738 35.3386 52.2659C36.8858 52.4503 38.4567 52.3311 39.9527 51.9158C41.4488 51.5005 42.8377 50.7981 44.0324 49.8526C46.8037 47.6362 48.2687 44.2662 48.9156 40.8963C49.5625 37.5263 49.4874 34.0737 49.7211 30.6604C49.8672 28.5227 50.1385 26.3496 51.0901 24.4008C52.0417 22.4521 55.1135 20.5742 57.3089 20.027Z" fill="#422C4F"/>
<path d="M61.0987 46.7661L58.4317 41.0577L54.6253 31.251L44.6586 31.7155C41.9097 31.8442 39.326 32.992 37.4702 34.9092C35.6144 36.8263 34.6368 39.3575 34.7502 41.9514L34.9422 46.1559L34.3913 56.7854C34.2868 58.7985 33.8415 60.7828 33.0724 62.6632L29.2159 72.0919H56.4451L58.3441 60.1829L58.678 56.6988C58.7907 55.5284 59.28 54.4185 60.0803 53.5178C60.9013 52.5943 61.4317 51.4724 61.6117 50.2792C61.7917 49.0859 61.614 47.869 61.0987 46.7661Z" fill="#F29E38"/>
<path d="M61.0986 46.8641C61.0783 46.8642 61.0583 46.8587 61.0413 46.8482C61.0242 46.8377 61.0108 46.8227 61.0027 46.8051L58.3357 41.0966L56.2488 35.6992C56.2436 35.6871 56.241 35.6741 56.2414 35.661C56.2417 35.648 56.2449 35.6351 56.2508 35.6233C56.2567 35.6114 56.2651 35.6009 56.2755 35.5922C56.286 35.5836 56.2982 35.5772 56.3114 35.5732C56.3374 35.5644 56.3661 35.5656 56.3912 35.5767C56.4162 35.5878 56.4356 35.6078 56.445 35.6323L58.5318 41.0218L61.1988 46.7263C61.2079 46.7505 61.2074 46.777 61.1975 46.8009C61.1875 46.8248 61.1687 46.8444 61.1446 46.8563L61.0986 46.8641Z" fill="#422C4F"/>
<path d="M50.2888 53.5931C50.2625 53.5932 50.2371 53.5839 50.2178 53.5671C50.1984 53.5503 50.1865 53.5273 50.1844 53.5025C50.1833 53.476 50.193 53.4501 50.2117 53.4303C50.2304 53.4105 50.2565 53.3983 50.2846 53.3962C51.3158 53.3154 52.3181 53.0344 53.2288 52.5711C54.1395 52.1077 54.9388 51.4719 55.5768 50.7034C55.5934 50.6825 55.6181 50.6687 55.6455 50.6651C55.6729 50.6614 55.7008 50.6681 55.7229 50.6837C55.745 50.6994 55.7597 50.7227 55.7636 50.7486C55.7675 50.7744 55.7604 50.8007 55.7438 50.8215C55.0864 51.6103 54.2632 52.2623 53.3259 52.7366C52.3885 53.2108 51.3574 53.4971 50.2971 53.5773L50.2888 53.5931Z" fill="#422C4F"/>
<path d="M44.4999 24.2275L44.2411 31.9556L45.5391 33.2114C46.0262 33.6755 46.6281 34.018 47.2905 34.208C47.9529 34.398 48.655 34.4296 49.3335 34.3C50.0121 34.1703 50.6458 33.8835 51.1776 33.4653C51.7094 33.0471 52.1225 32.5107 52.3798 31.9044L51.6494 26.0975L44.4999 24.2275Z" fill="#BD6C67"/>
<path d="M49.5751 30.1172C50.4424 30.2292 51.3253 30.092 52.1086 29.7235L51.6495 26.0819L44.4999 24.2119L44.4666 25.2316C44.8549 26.1532 45.3579 27.028 45.9649 27.8378C46.8456 28.9755 48.1102 29.9046 49.5751 30.1172Z" fill="#422C4F"/>
<path d="M58.0643 13.6962V17.9559C58.0655 19.8322 57.7325 21.6953 57.0793 23.4675C56.5908 24.7873 55.6791 25.931 54.4706 26.7401C53.262 27.5492 51.8166 27.9836 50.3346 27.9831C48.5621 27.9829 46.8529 27.3613 45.5391 26.2391L43.0348 24.0974C42.0171 23.2293 41.2915 22.0987 40.948 20.8456C48.6192 17.6961 51.3321 12.3341 51.4365 8.05078C56.6578 10.0546 58.0643 13.6962 58.0643 13.6962Z" fill="#BD6C67"/>
<path d="M50.2385 13.9329C49.7288 14.0244 49.2485 14.2259 48.835 14.5217C48.4216 14.8174 48.0863 15.1993 47.8553 15.6376L53.1184 14.6966C52.7344 14.3669 52.2741 14.1261 51.7742 13.9935C51.2743 13.861 50.7484 13.8402 50.2385 13.9329Z" fill="#422C4F"/>
<path d="M51.5492 16.9717C51.5492 17.122 51.5019 17.2689 51.4134 17.3939C51.3249 17.5188 51.1991 17.6162 51.0519 17.6737C50.9047 17.7312 50.7427 17.7463 50.5865 17.717C50.4302 17.6876 50.2867 17.6153 50.174 17.509C50.0614 17.4027 49.9847 17.2674 49.9536 17.12C49.9225 16.9726 49.9385 16.8198 49.9994 16.681C50.0604 16.5421 50.1636 16.4235 50.2961 16.34C50.4286 16.2565 50.5843 16.2119 50.7436 16.2119C50.8496 16.2114 50.9546 16.2307 51.0525 16.2687C51.1505 16.3067 51.2395 16.3626 51.3145 16.4333C51.3894 16.504 51.4487 16.5879 51.489 16.6804C51.5292 16.7728 51.5497 16.8718 51.5492 16.9717Z" fill="#422C4F"/>
<path d="M56.8414 13.9322C57.4925 14.1251 58.0059 14.7787 58.2813 15.6369L55.0927 14.696C55.5601 14.0543 56.1945 13.7393 56.8414 13.9322Z" fill="#422C4F"/>
<path d="M56.0527 16.9717C56.0527 17.389 56.2698 17.7276 56.5369 17.7276C56.804 17.7276 57.021 17.389 57.021 16.9717C57.021 16.5544 56.804 16.2119 56.5369 16.2119C56.2698 16.2119 56.0527 16.5505 56.0527 16.9717Z" fill="#422C4F"/>
<path d="M54.2204 21.3219C54.007 21.319 53.7938 21.3058 53.5818 21.2825C53.568 21.2822 53.5545 21.279 53.5421 21.2732C53.5297 21.2675 53.5188 21.2593 53.5101 21.2492C53.5014 21.2391 53.4951 21.2274 53.4916 21.2148C53.4881 21.2022 53.4876 21.189 53.49 21.1762C53.491 21.1634 53.4948 21.151 53.5011 21.1396C53.5074 21.1282 53.5161 21.1182 53.5266 21.1101C53.5372 21.102 53.5493 21.096 53.5624 21.0925C53.5755 21.0889 53.5892 21.088 53.6027 21.0896C53.9977 21.1502 54.4014 21.1395 54.7922 21.0581C54.974 21.018 55.1402 20.9308 55.2722 20.8062C55.4042 20.6817 55.4967 20.5249 55.5393 20.3534C55.5408 20.0761 55.4614 19.8037 55.3097 19.5661L55.2763 19.4952C54.7483 18.4266 54.5102 17.251 54.5835 16.0741C54.584 16.0611 54.5873 16.0484 54.593 16.0367C54.5988 16.0249 54.6069 16.0144 54.617 16.0056C54.6271 15.9968 54.6389 15.99 54.6518 15.9855C54.6646 15.9811 54.6783 15.979 54.692 15.9796C54.7201 15.9816 54.7462 15.9938 54.7649 16.0136C54.7836 16.0335 54.7933 16.0594 54.7922 16.0859C54.7205 17.2301 54.9514 18.3733 55.4641 19.4125L55.4975 19.4834C55.6744 19.7593 55.7602 20.0786 55.7438 20.4007C55.6952 20.6092 55.5859 20.8008 55.4281 20.9538C55.2703 21.1069 55.0703 21.2152 54.8506 21.2668C54.6445 21.314 54.4322 21.3325 54.2204 21.3219Z" fill="#422C4F"/>
<path d="M55.2554 22.5342L49.9089 23.1995C50.1704 23.674 50.5753 24.0647 51.0724 24.3219C51.5695 24.5791 52.1364 24.6913 52.7011 24.6443C53.2929 24.5518 53.8456 24.3052 54.2969 23.9324C54.7481 23.5596 55.0801 23.0753 55.2554 22.5342Z" fill="white"/>
<path d="M36.2068 54.5489L45.5976 53.1631L46.8831 63.4973L69.5629 56.9346L70.8818 62.5801L48.7362 72.1033C47.5053 72.6329 46.1564 72.8724 44.8056 72.8011C43.4549 72.7298 42.1427 72.3499 40.9821 71.6941C39.8216 71.0382 38.8474 70.1262 38.1435 69.0364C37.4396 67.9466 37.027 66.7118 36.9414 65.4382L36.2068 54.5489Z" fill="#BD6C67"/>
<path d="M45.5976 53.1631L36.2068 54.5489L36.453 58.1865L45.7186 54.1197L45.5976 53.1631Z" fill="#422C4F"/>
<path d="M46.9207 52.9661L35.4973 54.6393L35.3387 53.3755L41.858 52.4464C42.8208 52.3087 43.6893 51.8237 44.2803 51.0936C44.8713 50.3636 45.1386 49.4456 45.0259 48.5332L44.0325 40.4705C43.9185 39.5491 43.5824 38.6645 43.0499 37.8846C42.5175 37.1046 41.8028 36.4499 40.9607 35.9707L41.1026 36.0219C42.1929 36.409 43.1514 37.0678 43.8761 37.9282C44.6008 38.7885 45.0645 39.8182 45.2179 40.9075L46.9207 52.9661Z" fill="#ECA85E"/>
<path d="M35.4765 54.754C35.4522 54.7534 35.4289 54.7448 35.4106 54.7297C35.3923 54.7146 35.3802 54.6939 35.3763 54.6713C35.3739 54.6584 35.3743 54.6451 35.3774 54.6323C35.3806 54.6195 35.3864 54.6074 35.3946 54.5968C35.4028 54.5862 35.4131 54.5772 35.425 54.5704C35.4369 54.5635 35.4502 54.559 35.4639 54.5571L46.7871 52.884L45.1177 40.9356C44.9656 39.8647 44.5083 38.8528 43.7946 38.0077C43.0809 37.1626 42.1376 36.5159 41.065 36.1366L40.9273 36.0893C40.914 36.0852 40.9018 36.0786 40.8913 36.07C40.8808 36.0613 40.8722 36.0507 40.8661 36.0389C40.86 36.0271 40.8565 36.0142 40.8558 36.0011C40.8551 35.9879 40.8571 35.9748 40.8619 35.9624C40.8666 35.95 40.8739 35.9387 40.8834 35.929C40.8929 35.9194 40.9043 35.9116 40.917 35.9062C40.9298 35.9008 40.9435 35.8978 40.9574 35.8975C40.9714 35.8972 40.9853 35.8995 40.9982 35.9043L41.136 35.9555C42.244 36.3474 43.218 37.0166 43.9534 37.8912C44.6887 38.7658 45.1576 39.8129 45.3097 40.9199L47.0125 52.9627C47.0151 52.9881 47.0075 53.0134 46.9913 53.0338C46.9751 53.0542 46.9514 53.0682 46.9249 53.0729L35.4973 54.7619L35.4765 54.754Z" fill="#422C4F"/>
<path d="M42.2459 64.9385C42.2256 64.938 42.206 64.9317 42.1896 64.9205C42.1732 64.9092 42.1608 64.8936 42.1541 64.8755C42.1496 64.8634 42.1477 64.8505 42.1487 64.8377C42.1496 64.8249 42.1533 64.8124 42.1596 64.8009C42.1658 64.7895 42.1745 64.7794 42.185 64.7713C42.1956 64.7631 42.2078 64.7571 42.2209 64.7535L66.1862 57.8207C66.2122 57.8132 66.2403 57.8156 66.2644 57.8274C66.2886 57.8391 66.3069 57.8593 66.3155 57.8837C66.3224 57.9092 66.3189 57.9363 66.3058 57.9596C66.2927 57.9828 66.2709 58.0007 66.2446 58.0097L42.2793 64.9346L42.2459 64.9385Z" fill="#422C4F"/>
<path d="M134.263 18.3535V27.6721C134.263 29.0294 133.692 30.3312 132.674 31.291C131.657 32.2508 130.277 32.79 128.838 32.79H127.924L127.089 34.038H116.446L120.065 28.7232L134.263 18.3535Z" fill="#F2C9AD"/>
<path d="M134.288 20.1449L131.838 23.3416V26.7864C131.838 27.7261 131.443 28.6273 130.738 29.2918C130.034 29.9562 129.078 30.3295 128.082 30.3295H121.542C120.905 30.3298 120.279 30.1775 119.722 29.8869C119.165 29.5963 118.696 29.1769 118.357 28.6682C111.609 18.5544 113.349 10.8972 120.828 11.9247C127.247 3.16522 143.625 13.5979 134.288 20.1449Z" fill="#6A3649"/>
<path d="M133.299 21.4362L131.838 23.3416V26.688C131.905 26.9205 132.063 27.1207 132.28 27.2484C132.496 27.3762 132.756 27.422 133.007 27.3769C133.473 27.1826 133.851 26.8378 134.071 26.4045C134.466 25.787 134.721 25.0995 134.823 24.3849C134.94 23.6372 134.833 22.8735 134.514 22.1803C134.431 21.9443 134.266 21.7419 134.045 21.6066C133.824 21.4713 133.561 21.4112 133.299 21.4362Z" fill="#F2C9AD"/>
<path d="M132.798 27.5024C132.675 27.5007 132.554 27.478 132.439 27.4355C132.427 27.4311 132.415 27.4244 132.405 27.4156C132.395 27.4068 132.387 27.3962 132.381 27.3844C132.376 27.3726 132.373 27.3599 132.373 27.347C132.373 27.3341 132.376 27.3213 132.381 27.3095C132.391 27.2857 132.411 27.2666 132.436 27.2563C132.461 27.246 132.489 27.2453 132.515 27.2544C132.662 27.31 132.824 27.3197 132.978 27.2819C133.418 27.0959 133.773 26.7679 133.98 26.3568C134.363 25.7539 134.614 25.0845 134.718 24.3884C134.831 23.6598 134.729 22.9159 134.422 22.2388C134.314 21.9659 134.097 21.7439 133.817 21.6207C133.791 21.6119 133.77 21.5936 133.758 21.57C133.746 21.5464 133.745 21.5193 133.754 21.4948C133.764 21.4699 133.785 21.4499 133.81 21.4389C133.836 21.4278 133.865 21.4267 133.892 21.4357C134.221 21.5767 134.479 21.8339 134.61 22.1522C134.939 22.8638 135.047 23.6486 134.923 24.4159C134.821 25.1432 134.561 25.8428 134.159 26.4709C133.931 26.9287 133.531 27.2906 133.036 27.4867C132.958 27.502 132.878 27.5073 132.798 27.5024Z" fill="#422C4F"/>
<path d="M119.71 124.393C119.023 123.609 118.483 122.72 118.115 121.763L117.836 121.043H109.167L108.516 127.539H121.5C121.137 126.386 120.528 125.316 119.71 124.393Z" fill="#454F6B"/>
<path d="M121.479 127.538H108.516L108.332 129.31H121.872L121.738 128.57C121.675 128.221 121.589 127.876 121.479 127.538Z" fill="white"/>
<path d="M117.836 121.043H109.167L108.908 123.547L117.836 121.043Z" fill="#422C4F"/>
<path d="M125.223 81.4102L121.884 121.042H106.583L109.855 89.154L125.223 81.4102Z" fill="#984058"/>
<path d="M123.554 101.224L109.025 97.2521L109.856 89.154L125.223 81.4102L123.554 101.224Z" fill="#472948"/>
<path d="M146.939 124.83C145.472 124.158 144.254 123.083 143.445 121.748L143.028 121.043H135.227L133.75 127.539H150.173C149.376 126.376 148.257 125.439 146.939 124.83Z" fill="#454F6B"/>
<path d="M150.173 127.538H133.75L133.333 129.31H151.087L151.062 129.243C150.843 128.641 150.545 128.069 150.173 127.538Z" fill="white"/>
<path d="M143.02 121.043H135.227L134.66 123.547L143.02 121.043Z" fill="#422C4F"/>
<path d="M126.12 72.0918L142.761 79.0482C144.422 79.7411 145.813 80.9034 146.743 82.3745C147.673 83.8457 148.096 85.553 147.953 87.2605L145.107 121.051H129.802L133.078 89.162L123.257 88.103H98.8705V72.0918H126.12Z" fill="#984058"/>
<path d="M133.078 89.1543H143.784L143.116 89.6188C141.663 90.6317 139.977 91.3075 138.195 91.5913C136.414 91.8752 134.586 91.7592 132.861 91.2526L133.078 89.1543Z" fill="#472948"/>
<path d="M143.784 117.204H131.609C131.582 117.203 131.556 117.192 131.536 117.174C131.517 117.156 131.506 117.131 131.505 117.105C131.505 117.079 131.516 117.054 131.535 117.036C131.555 117.017 131.581 117.007 131.609 117.007H143.784C143.811 117.007 143.838 117.017 143.857 117.036C143.877 117.054 143.888 117.079 143.888 117.105C143.888 117.131 143.877 117.156 143.857 117.175C143.838 117.193 143.811 117.204 143.784 117.204Z" fill="#422C4F"/>
<path d="M120.665 117.204H108.516C108.488 117.204 108.462 117.193 108.442 117.175C108.422 117.156 108.411 117.131 108.411 117.105C108.411 117.079 108.422 117.054 108.442 117.036C108.462 117.017 108.488 117.007 108.516 117.007H120.686C120.714 117.007 120.74 117.017 120.76 117.036C120.78 117.054 120.791 117.079 120.791 117.105C120.791 117.12 120.788 117.135 120.781 117.148C120.775 117.162 120.765 117.173 120.753 117.183C120.741 117.192 120.727 117.199 120.712 117.203C120.696 117.206 120.681 117.207 120.665 117.204Z" fill="#422C4F"/>
<path d="M143.02 119.5C143.006 119.499 142.993 119.495 142.98 119.489C142.968 119.483 142.957 119.475 142.948 119.465C142.939 119.456 142.933 119.444 142.928 119.432C142.924 119.419 142.923 119.406 142.924 119.393L145.495 91.7449C145.495 91.7188 145.506 91.6938 145.525 91.6753C145.545 91.6568 145.571 91.6465 145.599 91.6465C145.627 91.6465 145.653 91.6568 145.673 91.6753C145.692 91.6938 145.703 91.7188 145.703 91.7449L143.133 119.393C143.133 119.408 143.131 119.422 143.125 119.435C143.12 119.448 143.111 119.46 143.101 119.47C143.09 119.48 143.078 119.488 143.064 119.493C143.05 119.498 143.035 119.5 143.02 119.5Z" fill="#422C4F"/>
<path d="M154.685 44.1087L150.95 37.8412C151.341 37.6713 151.78 37.6256 152.202 37.7107C152.623 37.7959 153.004 38.0074 153.287 38.3137L154.426 39.5498L154.685 44.1087Z" fill="#EBA58E"/>
<path d="M153.016 46.2227L154.685 44.1086L153.85 39.4828C153.775 35.8176 155.461 33.9003 156.33 33.1602C156.458 33.0472 156.624 32.979 156.799 32.9668C156.974 32.9546 157.149 32.9993 157.294 33.0933C157.378 33.1484 157.451 33.2188 157.506 33.3004C157.562 33.3819 157.6 33.4731 157.618 33.5686C157.636 33.6641 157.635 33.762 157.612 33.8568C157.59 33.9515 157.549 34.0413 157.49 34.1208C156.716 35.2257 156.234 36.4891 156.083 37.8057C156.822 36.4042 157.935 35.2087 159.314 34.3373C159.447 34.254 159.605 34.2119 159.765 34.2168C159.925 34.2218 160.079 34.2735 160.207 34.3649L162.532 36.0262C162.615 36.0858 162.685 36.1609 162.737 36.2469C162.789 36.3329 162.822 36.428 162.834 36.5264C162.846 36.6248 162.836 36.7244 162.806 36.8191C162.775 36.9138 162.725 37.0017 162.657 37.0774C161.861 38.0348 161.244 39.1132 160.833 40.2662C161.668 43.3685 160.098 45.4314 159.422 45.7778L156.709 49.8643L153.016 46.2227Z" fill="#F2C9AD"/>
<path d="M97.6643 43.4196C98.3853 40.4024 100.173 37.7063 102.734 35.7746C105.294 33.8428 108.476 32.7903 111.755 32.79H125.845C128.677 32.7898 131.445 33.589 133.792 35.0848C136.138 36.5806 137.957 38.7046 139.013 41.1834L144.41 53.8522L152.202 45.3211C157.765 45.5848 158.738 50.9665 158.738 50.9665L148.041 63.8636C147.331 64.719 146.4 65.3869 145.336 65.8024C144.272 66.2179 143.112 66.3669 141.97 66.235C140.827 66.1031 139.74 65.6947 138.814 65.0495C137.887 64.4043 137.154 63.5442 136.684 62.5527L131.889 52.4428L127.506 73.8003C120.899 77.4734 101.558 76.5561 97.6643 74.5877V43.4196Z" fill="#7198F8"/>
<path d="M131.889 52.4426L133.854 42.8643L134.263 57.4503L131.889 52.4426Z" fill="#468097"/>
<path d="M144.41 53.852L146.822 59.5171L147.052 56.5133C147.107 55.8034 146.996 55.0906 146.726 54.4258C146.456 53.761 146.035 53.1605 145.491 52.667L144.41 53.852Z" fill="#468097"/>
<path d="M157.941 38.4711H157.891C157.879 38.4649 157.868 38.4566 157.859 38.4465C157.851 38.4364 157.844 38.4248 157.84 38.4124C157.836 38.3999 157.835 38.3869 157.837 38.374C157.838 38.3611 157.842 38.3486 157.849 38.3373C158.519 37.1438 159.444 36.0943 160.566 35.2547C160.585 35.2367 160.612 35.2266 160.639 35.2266C160.666 35.2266 160.693 35.2367 160.712 35.2547C160.722 35.2635 160.73 35.2742 160.735 35.2861C160.741 35.2979 160.744 35.3107 160.744 35.3236C160.744 35.3365 160.741 35.3493 160.735 35.3611C160.73 35.373 160.722 35.3837 160.712 35.3925C159.615 36.2168 158.709 37.2445 158.049 38.4121C158.04 38.4317 158.025 38.448 158.005 38.4587C157.986 38.4693 157.963 38.4737 157.941 38.4711Z" fill="#422C4F"/>
<path d="M159.685 38.9115C159.668 38.9167 159.649 38.9167 159.631 38.9115C159.619 38.9051 159.609 38.8964 159.601 38.8861C159.593 38.8757 159.587 38.8639 159.584 38.8514C159.581 38.8389 159.58 38.8259 159.583 38.8132C159.585 38.8005 159.59 38.7884 159.598 38.7777C160.162 37.9007 160.858 37.1051 161.664 36.4156C161.673 36.4062 161.684 36.3986 161.697 36.3935C161.709 36.3884 161.723 36.3857 161.737 36.3857C161.75 36.3857 161.764 36.3884 161.776 36.3935C161.789 36.3986 161.8 36.4062 161.81 36.4156C161.829 36.434 161.84 36.4587 161.84 36.4845C161.84 36.5102 161.829 36.535 161.81 36.5534C161.019 37.2362 160.336 38.0223 159.781 38.8879C159.769 38.8991 159.753 38.907 159.736 38.9112C159.72 38.9153 159.702 38.9154 159.685 38.9115Z" fill="#422C4F"/>
<path d="M154.042 45.0221C154.022 45.0287 154 45.0287 153.98 45.0221C153.969 45.0144 153.96 45.0047 153.953 44.9935C153.946 44.9824 153.941 44.9701 153.939 44.9573C153.937 44.9445 153.938 44.9315 153.941 44.919C153.945 44.9064 153.951 44.8947 153.959 44.8843L154.577 44.097L153.942 40.5735C153.939 40.5608 153.939 40.5476 153.942 40.5348C153.944 40.522 153.95 40.5099 153.958 40.4992C153.965 40.4885 153.976 40.4794 153.987 40.4725C153.999 40.4657 154.012 40.4612 154.026 40.4593C154.039 40.4565 154.053 40.4563 154.067 40.4588C154.08 40.4612 154.093 40.4663 154.105 40.4737C154.116 40.4811 154.125 40.4907 154.133 40.5017C154.14 40.5128 154.145 40.5252 154.147 40.5381L154.79 44.1048C154.8 44.1289 154.8 44.1556 154.79 44.1796L154.143 44.9946C154.131 45.0082 154.115 45.0182 154.097 45.0231C154.079 45.028 154.06 45.0277 154.042 45.0221Z" fill="#422C4F"/>
<path d="M128.495 69.0837H128.474C128.461 69.0814 128.447 69.0765 128.436 69.0692C128.424 69.0619 128.414 69.0525 128.406 69.0415C128.398 69.0304 128.393 69.018 128.39 69.005C128.388 68.992 128.388 68.9786 128.391 68.9656L133.75 42.8288C133.757 42.8035 133.773 42.7814 133.797 42.7669C133.82 42.7523 133.848 42.7464 133.875 42.7501C133.889 42.7529 133.901 42.7582 133.913 42.7656C133.924 42.7731 133.933 42.7826 133.941 42.7936C133.948 42.8046 133.953 42.8168 133.956 42.8296C133.958 42.8424 133.957 42.8555 133.954 42.8682L128.595 68.9893C128.594 69.014 128.583 69.0375 128.565 69.055C128.546 69.0725 128.521 69.0828 128.495 69.0837Z" fill="#422C4F"/>
<path d="M146.822 59.6162C146.801 59.6159 146.781 59.6098 146.764 59.5985C146.747 59.5873 146.734 59.5715 146.726 59.5532L140.161 44.1443C140.155 44.1309 140.152 44.1165 140.153 44.1021C140.154 44.0876 140.158 44.0735 140.165 44.0607C140.172 44.048 140.182 44.0368 140.195 44.0281C140.207 44.0194 140.221 44.0134 140.236 44.0104C140.262 44.0012 140.291 44.0018 140.317 44.012C140.342 44.0223 140.363 44.0415 140.374 44.0656L146.914 59.4784C146.919 59.4902 146.922 59.503 146.923 59.516C146.923 59.529 146.92 59.5419 146.915 59.554C146.91 59.566 146.903 59.577 146.893 59.5864C146.884 59.5957 146.872 59.6031 146.86 59.6083L146.822 59.6162Z" fill="#422C4F"/>
<path d="M144.41 53.9504C144.385 53.9509 144.361 53.9424 144.343 53.9267C144.333 53.9179 144.325 53.9072 144.32 53.8954C144.314 53.8835 144.311 53.8708 144.311 53.8578C144.311 53.8449 144.314 53.8322 144.32 53.8203C144.325 53.8085 144.333 53.7978 144.343 53.7889L148.934 48.7813C148.942 48.7697 148.953 48.7599 148.966 48.7527C148.979 48.7454 148.993 48.7407 149.007 48.739C149.022 48.7373 149.037 48.7386 149.051 48.7428C149.065 48.7469 149.079 48.7539 149.09 48.7633C149.101 48.7726 149.11 48.784 149.116 48.7968C149.122 48.8096 149.125 48.8235 149.125 48.8375C149.124 48.8515 149.121 48.8653 149.115 48.878C149.109 48.8907 149.1 48.902 149.088 48.9112L144.518 53.9149C144.506 53.9302 144.489 53.9417 144.47 53.948C144.45 53.9543 144.429 53.9551 144.41 53.9504Z" fill="#422C4F"/>
<path d="M120.202 71.8084H120.169C117.109 70.9397 114.312 69.3973 112.009 67.3085C111.997 67.3004 111.987 67.2899 111.979 67.2777C111.972 67.2655 111.967 67.252 111.966 67.2379C111.964 67.2239 111.966 67.2098 111.971 67.1965C111.976 67.1832 111.984 67.171 111.994 67.1607C112.004 67.1505 112.017 67.1425 112.03 67.1371C112.044 67.1318 112.059 67.1294 112.074 67.13C112.089 67.1305 112.103 67.1341 112.117 67.1405C112.13 67.1468 112.142 67.1558 112.151 67.1668C114.426 69.2276 117.184 70.7519 120.202 71.6155C120.215 71.6195 120.228 71.6259 120.238 71.6345C120.249 71.643 120.257 71.6534 120.264 71.6652C120.27 71.6769 120.274 71.6897 120.274 71.7028C120.275 71.7159 120.274 71.729 120.269 71.7414C120.264 71.7569 120.256 71.771 120.244 71.7827C120.233 71.7944 120.218 71.8032 120.202 71.8084Z" fill="#422C4F"/>
<path d="M117.656 43.7223C117.63 43.7247 117.604 43.7178 117.583 43.7029C117.562 43.6881 117.548 43.6664 117.543 43.6421C117.539 43.6179 117.544 43.5928 117.558 43.5719C117.572 43.5511 117.593 43.5359 117.619 43.5294L121.65 42.2027C121.677 42.195 121.706 42.1973 121.73 42.209C121.755 42.2208 121.774 42.241 121.784 42.2657C121.789 42.2781 121.79 42.2912 121.789 42.3043C121.789 42.3174 121.785 42.3302 121.779 42.3419C121.772 42.3537 121.764 42.3641 121.753 42.3726C121.743 42.3812 121.73 42.3876 121.717 42.3916L117.698 43.7144L117.656 43.7223Z" fill="#422C4F"/>
<path d="M127.239 93.41C126.986 91.7221 126.097 90.1768 124.734 89.0575C123.371 87.9381 121.625 87.3197 119.818 87.3157H117.698C116.926 87.3138 116.178 87.0594 115.582 86.5956C114.986 86.1319 114.579 85.4876 114.43 84.7725L107.552 51.7895C106.573 47.1021 103.9 42.8806 99.9877 39.8461C96.0757 36.8117 91.1681 35.1526 86.1033 35.1523H79.1749L80.281 36.1917C76.8288 37.4752 73.963 39.8598 72.1824 42.9306C70.4017 46.0014 69.8189 49.5639 70.5354 52.9981L77.8102 87.8826C78.2396 89.9414 79.4137 91.7957 81.1319 93.1284C82.8501 94.4611 85.0056 95.1897 87.2302 95.1894H127.506L127.239 93.41Z" fill="#495375"/>
<path d="M70.8901 87.8826L63.6154 52.9981C63.1636 50.8306 63.2264 48.5956 63.7991 46.4537C64.3719 44.3117 65.4404 42.316 66.928 40.6099C68.4155 38.9037 70.2852 37.5295 72.4027 36.5859C74.5202 35.6423 76.833 35.1527 79.1749 35.1523C84.2397 35.1526 89.1473 36.8117 93.0593 39.8461C96.9713 42.8806 99.6449 47.1021 100.623 51.7895L108.136 87.8826C108.566 89.9434 109.742 91.7992 111.463 93.1322C113.183 94.4651 115.342 95.1924 117.569 95.1894H80.3101C78.0856 95.1897 75.93 94.4611 74.2119 93.1284C72.4937 91.7957 71.3195 89.9414 70.8901 87.8826Z" fill="#797C99"/>
<path d="M82.3594 95.1895H80.3101L79.7592 99.831L81.942 98.7169L82.3594 95.1895Z" fill="#422C4F"/>
<path d="M79.7591 99.8309L76.274 129.31H78.3275L81.9419 98.7168L79.7591 99.8309Z" fill="#99A3B0"/>
<path d="M97.6642 99.3153L94.1166 129.31H96.17L99.8471 98.2012L97.6642 99.3153Z" fill="#99A3B0"/>
<path d="M100.202 95.1895H98.1526L97.6643 99.3153L99.8471 98.2011L100.202 95.1895Z" fill="#422C4F"/>
<path d="M107.927 95.1895H105.874L106.375 99.4216L108.311 98.4374L107.927 95.1895Z" fill="#422C4F"/>
<path d="M111.959 129.31L108.311 98.4375L106.375 99.4217L109.91 129.31H111.959Z" fill="#99A3B0"/>
<path d="M125.77 95.1895H123.716L124.184 99.1381L126.12 98.1539L125.77 95.1895Z" fill="#422C4F"/>
<path d="M129.802 129.311L126.12 98.1543L124.184 99.1385L127.752 129.311H129.802Z" fill="#99A3B0"/>
<path d="M233.034 37.9676L236.736 33.4914C237.196 32.9357 237.784 32.4862 238.456 32.1772C239.128 31.8682 239.865 31.7077 240.613 31.708L239.803 31.5742C239.511 31.5255 239.238 31.4043 239.012 31.223C238.786 31.0417 238.616 30.8069 238.518 30.5427L236.389 24.7949L230.129 27.9444L231.051 32.5072C231.129 32.905 231.044 33.3158 230.813 33.6568L226.978 39.2707L227.048 39.3022C228.058 39.7541 229.201 39.8681 230.289 39.6255C231.377 39.3829 232.345 38.7982 233.034 37.9676Z" fill="#F2C9AD"/>
<path d="M245.275 75.2172L240.613 31.707C239.865 31.7067 239.128 31.8672 238.456 32.1762C237.784 32.4852 237.196 32.9347 236.735 33.4904L233.033 37.9666C232.343 38.7946 231.374 39.3762 230.286 39.6159C229.198 39.8555 228.057 39.739 227.048 39.2855L226.977 39.254L220.738 48.3836C220.33 48.967 220.098 49.6435 220.065 50.3414C220.032 51.0393 220.199 51.7326 220.55 52.348C220.888 52.9253 221.309 53.4553 221.802 53.9227C222.627 54.7333 223.232 55.7205 223.564 56.7997C223.896 57.8789 223.946 59.018 223.709 60.1193L221.969 68.8119L245.275 75.2172Z" fill="#E68799"/>
<path d="M230.7 30.8656C235.763 29.3577 236.543 26.3618 236.389 24.7949L230.129 27.9444L230.7 30.8656Z" fill="#422C4F"/>
<path d="M237.946 40.5059L237.215 60.1508C237.174 61.2444 236.695 62.2827 235.875 63.0569C235.055 63.8311 233.955 64.2838 232.796 64.3238L222.804 64.6742L221.969 68.8197L245.275 75.225L241.556 40.5137L237.946 40.5059Z" fill="#E36B85"/>
<path d="M231.372 55.3014H231.347C229.238 54.7822 227.383 53.5918 226.097 51.9314C226.086 51.9213 226.078 51.9092 226.073 51.8959C226.068 51.8825 226.066 51.8683 226.067 51.8541C226.068 51.84 226.073 51.8262 226.08 51.8139C226.087 51.8015 226.097 51.7907 226.11 51.7824C226.122 51.7741 226.136 51.7683 226.151 51.7656C226.165 51.7628 226.181 51.7631 226.195 51.7664C226.21 51.7697 226.224 51.776 226.235 51.7847C226.247 51.7935 226.257 51.8046 226.264 51.8172C227.522 53.4396 229.335 54.6023 231.397 55.1085C231.411 55.11 231.424 55.1141 231.436 55.1205C231.448 55.1268 231.459 55.1354 231.468 55.1456C231.476 55.1559 231.482 55.1676 231.486 55.1801C231.49 55.1927 231.491 55.2058 231.489 55.2187C231.488 55.2316 231.483 55.2441 231.476 55.2555C231.47 55.2668 231.461 55.2768 231.45 55.2848C231.439 55.2929 231.427 55.2988 231.413 55.3023C231.4 55.3058 231.386 55.3069 231.372 55.3053V55.3014Z" fill="#422C4F"/>
<path d="M242.587 10.8935C243.152 8.98803 244.329 7.29444 245.956 6.04585C247.583 4.79726 249.581 4.05505 251.673 3.92137C253.218 3.8505 254.879 4.17726 255.96 5.22053C256.87 6.10632 257.241 7.37399 257.354 8.60229C257.562 10.7833 257.082 12.9604 256.557 15.0942C256.031 17.2279 255.459 19.3696 255.467 21.5585C255.476 23.7474 256.143 26.0189 257.779 27.5701C253.518 28.2393 249.04 26.2394 246.49 22.9482C243.94 19.657 241.51 14.8383 242.587 10.8935Z" fill="#EBA25D"/>
<path d="M225.5 19.6838C224.026 18.1549 223.101 16.226 222.858 14.1722C222.675 12.817 222.884 11.4403 223.463 10.1881C224.054 8.93331 225.139 7.94483 226.489 7.43226C227.164 7.18816 227.893 7.10818 228.61 7.19968C229.326 7.29118 230.006 7.55123 230.588 7.95587C232.725 6.77436 235.262 6.41577 237.672 6.95477C240.082 7.49377 242.179 8.88881 243.526 10.8495C245.167 13.2549 245.492 16.3611 244.682 19.1169C243.91 21.7546 241.982 24.2348 239.232 25.1009C236.865 25.8489 234.223 25.3292 232.003 24.223C229.782 23.1167 227.186 21.4199 225.5 19.6838Z" fill="#EBA25D"/>
<path d="M239.215 25.1883C239.189 25.1893 239.164 25.1815 239.144 25.1663C239.125 25.1511 239.111 25.1296 239.107 25.1058C239.103 25.082 239.108 25.0577 239.122 25.0373C239.136 25.017 239.157 25.002 239.181 24.9954C241.665 24.208 243.727 21.9404 244.565 19.0901C245.404 16.2398 244.983 13.1848 243.422 10.9014C242.089 8.96041 240.012 7.58183 237.625 7.05512C237.609 7.05438 237.595 7.05051 237.581 7.04378C237.568 7.03705 237.556 7.02762 237.547 7.01616C237.538 7.0047 237.531 6.99148 237.528 6.97743C237.525 6.96338 237.525 6.94884 237.528 6.93483C237.532 6.92083 237.538 6.9077 237.548 6.89636C237.557 6.88502 237.569 6.87576 237.582 6.86921C237.596 6.86267 237.611 6.85899 237.626 6.85847C237.641 6.85794 237.657 6.86056 237.671 6.86614C240.111 7.40741 242.235 8.81814 243.597 10.803C244.393 12.0425 244.907 13.424 245.109 14.8603C245.311 16.2967 245.196 17.7569 244.77 19.1491C243.91 22.0742 241.794 24.393 239.248 25.2001L239.215 25.1883Z" fill="#422C4F"/>
<path d="M228.438 12.4482C226.33 14.0478 224.899 16.3058 224.402 18.8141L224.198 19.8653L221.902 23.3415H224.335L224.678 26.7469C224.741 27.3774 224.994 27.9779 225.405 28.4783C225.817 28.9788 226.371 29.3586 227.002 29.5736C227.868 29.8682 228.821 29.8343 229.661 29.4791L234.369 27.4752C234.882 27.2576 235.318 26.9048 235.624 26.4592C235.93 26.0137 236.092 25.4943 236.093 24.9635V22.873C235.258 22.5384 234.177 21.9715 233.806 21.2077C233.438 20.4298 233.385 19.5519 233.655 18.7393C231.368 17.3969 229.365 14.8419 228.438 12.4482Z" fill="#F2C9AD"/>
<path d="M237.212 20.4405C237.634 20.2113 238.121 20.1122 238.606 20.157C238.847 20.1799 239.08 20.2578 239.282 20.384C239.485 20.5102 239.652 20.6808 239.77 20.8814C239.952 21.2923 239.977 21.7502 239.841 22.1766C239.668 22.9155 239.329 23.6109 238.848 24.2159C238.516 24.6689 238.058 25.0271 237.525 25.2513C237.256 25.362 236.963 25.4074 236.671 25.3833C236.38 25.3592 236.099 25.2665 235.855 25.1135C235.062 24.5584 235.308 23.4403 235.479 22.6648C235.579 22.1973 235.785 21.7559 236.084 21.3717C236.384 20.9874 236.768 20.6696 237.212 20.4405Z" fill="#F2C9AD"/>
<path d="M236.794 24.5979C236.639 24.6025 236.485 24.5612 236.356 24.4798C235.989 24.2239 236.176 23.3814 236.302 22.8263C236.376 22.4721 236.531 22.1375 236.756 21.8452C236.981 21.553 237.27 21.3102 237.604 21.1334C237.839 21.0076 238.102 20.9374 238.372 20.9287H238.501C238.607 20.9377 238.71 20.9693 238.801 21.0211C238.892 21.073 238.969 21.1437 239.027 21.2279C239.117 21.4835 239.117 21.7598 239.027 22.0153C238.883 22.6435 238.599 23.2354 238.192 23.7514C237.951 24.0916 237.616 24.3638 237.224 24.5388C237.086 24.5831 236.94 24.6031 236.794 24.5979Z" fill="#EBA58E"/>
<path d="M227.979 17.5234C228.426 17.6069 228.847 17.7863 229.209 18.0478C229.571 18.3093 229.864 18.6457 230.066 19.0312L225.408 18.2005C225.752 17.9069 226.163 17.6928 226.609 17.5752C227.055 17.4577 227.524 17.4399 227.979 17.5234Z" fill="#422C4F"/>
<path d="M227.533 20.8855C227.927 20.8855 228.246 20.5841 228.246 20.2123C228.246 19.8405 227.927 19.5391 227.533 19.5391C227.138 19.5391 226.819 19.8405 226.819 20.2123C226.819 20.5841 227.138 20.8855 227.533 20.8855Z" fill="#422C4F"/>
<path d="M229.411 25.2512C228.036 24.9605 226.611 24.9605 225.237 25.2512C225.4 25.7147 225.729 26.1101 226.168 26.3693C226.566 26.6185 227.049 26.7143 227.52 26.637C228.229 26.5149 228.906 25.7354 229.411 25.2512Z" fill="white"/>
<path d="M213.96 66.6113L241.318 74.1267C242.409 74.4259 243.559 74.4738 244.673 74.2665C245.787 74.0592 246.832 73.6028 247.721 72.9354C248.609 72.2681 249.314 71.4095 249.778 70.4316C250.241 69.4538 250.449 68.3853 250.384 67.316L249.549 53.9307L239.987 55.2298L240.717 66.7963L220.588 64.4027C218.89 64.2003 217.172 64.5834 215.75 65.4814L213.96 66.6113Z" fill="#F2C9AD"/>
<path d="M239.987 55.2298L249.561 53.9385L249.778 57.4305C245.655 58.3792 240.108 57.1628 240.108 57.1628L239.987 55.2298Z" fill="#422C4F"/>
<path d="M240.613 31.707C242.637 31.7065 244.593 32.3978 246.119 33.6529C247.644 34.9079 248.636 36.6418 248.91 38.5335L251.256 54.6392C246.456 56.7061 239.09 56.6077 239.09 56.6077L237.946 40.5059C237.73 37.4853 238.596 34.4838 240.404 31.9826L240.613 31.707Z" fill="#E68799"/>
<path d="M238.914 54.2457C238.888 54.2458 238.863 54.2365 238.843 54.2197C238.824 54.2029 238.812 54.1799 238.81 54.1552L237.842 40.514C237.724 38.8715 237.925 37.2226 238.434 35.648C238.442 35.623 238.46 35.6018 238.484 35.5893C238.509 35.5767 238.537 35.5738 238.564 35.5811C238.59 35.5884 238.613 35.6054 238.626 35.6282C238.639 35.6511 238.642 35.6781 238.635 35.7031C238.131 37.2544 237.933 38.8796 238.05 40.4982L239.019 54.1434C239.02 54.1561 239.018 54.1689 239.014 54.181C239.01 54.1932 239.003 54.2043 238.994 54.2139C238.985 54.2235 238.974 54.2312 238.962 54.2367C238.949 54.2422 238.936 54.2452 238.923 54.2457H238.914Z" fill="#422C4F"/>
<path d="M250.789 51.5335C250.763 51.5328 250.739 51.5238 250.72 51.508C250.701 51.4922 250.688 51.4705 250.684 51.4469L248.806 38.5458C248.802 38.5197 248.809 38.4932 248.826 38.4721C248.843 38.4511 248.868 38.4372 248.896 38.4336C248.923 38.4299 248.952 38.4368 248.974 38.4527C248.996 38.4685 249.011 38.4921 249.015 38.5182L250.893 51.4193C250.895 51.432 250.895 51.4451 250.892 51.4576C250.888 51.4702 250.883 51.482 250.874 51.4923C250.866 51.5026 250.856 51.5113 250.844 51.5177C250.832 51.5241 250.819 51.5281 250.805 51.5295L250.789 51.5335Z" fill="#422C4F"/>
<path d="M244.419 67.3318L224.507 64.9697C224.493 64.9682 224.48 64.9642 224.468 64.9579C224.456 64.9515 224.445 64.9429 224.436 64.9327C224.428 64.9224 224.422 64.9107 224.418 64.8981C224.414 64.8855 224.413 64.8724 224.415 64.8595C224.416 64.8463 224.42 64.8334 224.426 64.8218C224.433 64.8101 224.442 64.7998 224.453 64.7917C224.464 64.7835 224.477 64.7776 224.49 64.7744C224.504 64.7711 224.518 64.7706 224.532 64.7728L244.445 67.135C244.471 67.1379 244.496 67.1507 244.513 67.1705C244.53 67.1904 244.539 67.2158 244.536 67.2413C244.533 67.2677 244.519 67.292 244.497 67.3089C244.476 67.3258 244.448 67.334 244.419 67.3318Z" fill="#422C4F"/>
<path d="M243.276 54.3009C243.251 54.3004 243.227 54.292 243.208 54.2769C243.189 54.2619 243.176 54.2411 243.171 54.2182C243.167 54.1926 243.173 54.1663 243.188 54.1449C243.204 54.1235 243.228 54.1088 243.255 54.104C244.57 53.8896 245.808 53.3701 246.857 52.5923C246.867 52.5829 246.88 52.5757 246.893 52.5712C246.907 52.5666 246.921 52.5647 246.936 52.5657C246.95 52.5667 246.964 52.5704 246.977 52.5768C246.99 52.5831 247.001 52.5919 247.01 52.6026C247.019 52.6133 247.026 52.6256 247.029 52.6388C247.033 52.6519 247.034 52.6657 247.031 52.6792C247.029 52.6926 247.024 52.7055 247.016 52.717C247.008 52.7284 246.998 52.7383 246.986 52.7458C245.909 53.5424 244.641 54.0753 243.292 54.2969L243.276 54.3009Z" fill="#422C4F"/>
<path d="M182.891 111.118L183.792 107.536L186.359 101.571L179.397 98.9062L177.999 102.154C177.691 102.868 177.229 103.514 176.643 104.051C176.057 104.589 175.359 105.006 174.594 105.276C174.906 106.178 175.029 107.129 174.957 108.075L182.891 111.118Z" fill="#F2C9AD"/>
<path d="M174.957 108.075C175.029 107.128 174.906 106.177 174.594 105.275C174.334 105.368 174.067 105.444 173.797 105.504L173.145 105.638C172.312 105.811 171.449 105.811 170.616 105.638L169.56 105.425C168.484 105.205 167.365 105.273 166.327 105.621C165.29 105.969 164.376 106.583 163.688 107.393L182.052 114.433L182.887 111.11L174.957 108.075Z" fill="#E68799"/>
<path d="M179.397 98.9062L186.359 101.571L185.378 103.851L179.084 99.6346L179.397 98.9062Z" fill="#422C4F"/>
<path d="M177.048 98.2326L190.633 72.4541L201.414 77.6783L192.895 104.835L177.048 98.2326Z" fill="#4893D8"/>
<path d="M245.275 75.2171L204.314 63.9617C202.061 63.3411 199.648 63.4867 197.497 64.3732C195.346 65.2597 193.593 66.8307 192.545 68.8119L190.633 72.4377L220.684 87.0041H233.918C236.803 87.0082 239.58 85.9686 241.676 84.0995C243.772 82.2304 245.029 79.6742 245.187 76.9572L245.275 75.2171Z" fill="#4893D8"/>
<path d="M232.654 71.8476H232.624L206.017 64.5329C206.004 64.5298 205.991 64.524 205.98 64.516C205.969 64.5081 205.96 64.498 205.953 64.4866C205.947 64.4751 205.943 64.4624 205.941 64.4494C205.94 64.4364 205.942 64.4232 205.946 64.4108C205.955 64.3863 205.973 64.3658 205.997 64.3534C206.021 64.341 206.049 64.3376 206.076 64.3439L232.683 71.6586C232.707 71.6652 232.728 71.6798 232.741 71.6998C232.755 71.7197 232.76 71.7435 232.757 71.767C232.753 71.7904 232.741 71.8119 232.722 71.8274C232.703 71.8429 232.679 71.8515 232.654 71.8515V71.8476Z" fill="#422C4F"/>
<path d="M245.275 75.3162H245.246L236.936 73.0328C236.91 73.0255 236.887 73.0086 236.874 72.9857C236.86 72.9628 236.857 72.9358 236.865 72.9108C236.868 72.8981 236.875 72.8862 236.883 72.8758C236.891 72.8654 236.902 72.8568 236.914 72.8505C236.926 72.8442 236.94 72.8404 236.954 72.8392C236.967 72.8381 236.981 72.8397 236.995 72.8439L245.304 75.1272C245.318 75.1304 245.33 75.1361 245.341 75.1441C245.352 75.152 245.362 75.1621 245.368 75.1736C245.375 75.185 245.379 75.1977 245.38 75.2107C245.381 75.2238 245.38 75.2369 245.375 75.2493C245.368 75.2687 245.354 75.2854 245.336 75.2974C245.318 75.3093 245.297 75.3159 245.275 75.3162Z" fill="#422C4F"/>
<path d="M199.556 76.7803L194.844 77.5873C192.903 77.9198 191.137 78.8605 189.832 80.2573C188.528 81.6541 187.762 83.4251 187.657 85.2839L185.938 115.858H204.615L201.902 88.2995L220.684 87.02L199.556 76.7803Z" fill="#4893D8"/>
<path d="M198.179 77.0173C198.179 77.0173 211.698 87.6469 211.685 87.6469L220.684 87.0327L199.557 76.7969L198.179 77.0173Z" fill="#377FB5"/>
<path d="M188.208 82.8979H188.171C188.145 82.8883 188.125 82.8697 188.114 82.8462C188.103 82.8226 188.102 82.796 188.112 82.772C188.653 81.4182 189.556 80.2192 190.732 79.2908C191.909 78.3625 193.319 77.7363 194.828 77.473L199.54 76.6856C199.567 76.682 199.594 76.6881 199.616 76.7027C199.639 76.7173 199.655 76.7393 199.661 76.7643C199.665 76.7903 199.658 76.8166 199.643 76.8384C199.627 76.8602 199.604 76.8759 199.577 76.8824L194.865 77.6698C193.395 77.9259 192.02 78.5346 190.872 79.4371C189.723 80.3396 188.841 81.5057 188.308 82.8231C188.301 82.8434 188.288 82.8613 188.27 82.8746C188.252 82.8879 188.231 82.896 188.208 82.8979Z" fill="#422C4F"/>
<path d="M201.902 88.3981C201.874 88.3981 201.848 88.3877 201.828 88.3693C201.809 88.3508 201.798 88.3258 201.798 88.2997C201.798 88.2736 201.809 88.2485 201.828 88.2301C201.848 88.2116 201.874 88.2012 201.902 88.2012L217.236 87.158C217.25 87.1563 217.264 87.1574 217.277 87.1612C217.291 87.1649 217.303 87.1713 217.314 87.1798C217.324 87.1883 217.333 87.1988 217.339 87.2107C217.345 87.2225 217.348 87.2354 217.349 87.2485C217.35 87.2744 217.341 87.2998 217.323 87.3195C217.305 87.3392 217.28 87.3519 217.253 87.3548L201.919 88.3981H201.902Z" fill="#422C4F"/>
<path d="M186.535 105.374C186.521 105.373 186.507 105.369 186.495 105.364C186.483 105.358 186.472 105.35 186.463 105.34C186.454 105.33 186.447 105.318 186.443 105.306C186.439 105.294 186.437 105.281 186.439 105.268L187.465 87.0164C187.465 87.0037 187.468 86.9911 187.473 86.9793C187.479 86.9676 187.486 86.957 187.496 86.9482C187.506 86.9394 187.517 86.9325 187.53 86.928C187.543 86.9235 187.556 86.9214 187.57 86.922C187.583 86.9225 187.597 86.9255 187.609 86.9309C187.622 86.9364 187.633 86.944 187.642 86.9535C187.652 86.963 187.659 86.9742 187.664 86.9863C187.668 86.9985 187.67 87.0114 187.67 87.0243L186.643 105.28C186.641 105.305 186.629 105.329 186.609 105.347C186.588 105.364 186.562 105.374 186.535 105.374Z" fill="#422C4F"/>
<path d="M203.188 101.489C203.163 101.488 203.139 101.479 203.121 101.463C203.102 101.447 203.09 101.425 203.087 101.402L201.418 84.2805C201.416 84.255 201.424 84.2296 201.441 84.2098C201.458 84.19 201.483 84.1772 201.51 84.1742C201.524 84.172 201.538 84.1725 201.551 84.1757C201.565 84.179 201.578 84.1849 201.589 84.193C201.6 84.2012 201.609 84.2115 201.615 84.2231C201.622 84.2348 201.626 84.2476 201.627 84.2608L203.296 101.382C203.299 101.395 203.298 101.408 203.295 101.421C203.291 101.433 203.285 101.445 203.276 101.455C203.267 101.465 203.256 101.473 203.244 101.479C203.232 101.485 203.218 101.488 203.204 101.489H203.188Z" fill="#422C4F"/>
<path d="M198.221 125.932L197.624 122.294V115.857H190.111V119.361C190.111 120.132 189.94 120.895 189.611 121.601C189.282 122.307 188.802 122.941 188.2 123.463C188.85 124.189 189.343 125.028 189.652 125.932H198.221Z" fill="#F2C9AD"/>
<path d="M189.652 125.932C189.343 125.028 188.85 124.189 188.2 123.464C187.997 123.643 187.78 123.809 187.553 123.96L187.002 124.318C186.3 124.774 185.503 125.083 184.665 125.224L183.6 125.397C182.516 125.577 181.506 126.038 180.684 126.729C179.861 127.42 179.26 128.314 178.947 129.31H198.772L198.221 125.932H189.652Z" fill="#E68799"/>
<path d="M190.111 115.857H197.624V118.318L190.111 116.645V115.857Z" fill="#422C4F"/>
<path d="M258.96 94.1895H261.014L261.561 98.831L259.378 97.7169L258.96 94.1895Z" fill="#422C4F"/>
<path d="M261.561 98.8309L265.046 128.31H262.996L259.378 97.7168L261.561 98.8309Z" fill="#99A3B0"/>
<path d="M245.768 98.3153L249.315 128.31H247.262L243.585 97.2012L245.768 98.3153Z" fill="#99A3B0"/>
<path d="M243.226 94.1895H245.279L245.767 98.3153L243.585 97.2011L243.226 94.1895Z" fill="#422C4F"/>
<path d="M239.081 94.1895H241.135L240.634 98.4216L238.697 97.4374L239.081 94.1895Z" fill="#422C4F"/>
<path d="M235.045 128.31L238.697 97.4375L240.634 98.4217L237.099 128.31H235.045Z" fill="#99A3B0"/>
<path d="M222.153 94.1895H224.202L223.739 98.1381L221.802 97.1539L222.153 94.1895Z" fill="#422C4F"/>
<path d="M218.117 128.311L221.802 97.1543L223.739 98.1385L220.17 128.311H218.117Z" fill="#99A3B0"/>
<path d="M272.784 37.223V34.168H265.772C261.756 34.1634 257.864 35.4745 254.759 37.8772C251.655 40.2799 249.531 43.6249 248.752 47.3407L241.765 80.9378C241.466 82.3699 240.649 83.6597 239.454 84.5867C238.259 85.5137 236.76 86.0204 235.212 86.0203H226.243C223.946 86.0203 221.743 86.881 220.119 88.413C218.495 89.9449 217.583 92.0227 217.583 94.1893H256.523C258.748 94.1895 260.903 93.461 262.621 92.1283C264.34 90.7956 265.514 88.9413 265.943 86.8825L274.783 44.4825C275.052 43.2086 275.012 41.8938 274.666 40.6366C274.319 39.3794 273.676 38.2124 272.784 37.223Z" fill="#797C99"/>
<path d="M272.959 86.8825L281.803 44.4825C282.062 43.228 282.023 41.935 281.689 40.6964C281.355 39.4577 280.735 38.304 279.873 37.318C279.011 36.3321 277.928 35.5384 276.703 34.9937C275.477 34.4491 274.138 34.1671 272.784 34.168C268.768 34.1678 264.878 35.4828 261.776 37.8883C258.675 40.2937 256.556 43.6404 255.78 47.3564L247.537 86.8825C247.108 88.9413 245.933 90.7955 244.215 92.1283C242.497 93.461 240.341 94.1895 238.117 94.1893H263.535C265.76 94.1904 267.916 93.4624 269.635 92.1295C271.355 90.7967 272.529 88.942 272.959 86.8825Z" fill="#495375"/>
</svg>
