<svg width="293" height="158" viewBox="0 0 293 158" fill="none" xmlns="http://www.w3.org/2000/svg">
<g style="mix-blend-mode:multiply" opacity="0.29">
<path d="M180.764 63.3156H115.613V12.9629H168.959L180.764 24.7677V63.3156Z" fill="#C9C8C3"/>
</g>
<path opacity="0.29" d="M114.191 13.5625H102.774" stroke="#C9C8C3" stroke-width="2.08" stroke-miterlimit="10"/>
<path opacity="0.29" d="M115.975 11.4222V0" stroke="#C9C8C3" stroke-width="2.08" stroke-miterlimit="10"/>
<path opacity="0.29" d="M167.889 13.9199V25.6937H179.693" fill="white"/>
<path d="M44.8664 83.7406L100.617 81.2793L117.608 155.676L30.6728 156.121L21.7946 113.586C18.7801 98.5806 29.7472 84.4076 44.8664 83.7406Z" fill="#122832"/>
<path d="M47.1416 72.6748L49.7942 83.0421" stroke="#122832" stroke-width="5.92" stroke-miterlimit="10"/>
<path d="M70.5446 72.6748L73.1971 83.0421" stroke="#122832" stroke-width="5.92" stroke-miterlimit="10"/>
<path d="M39.8768 74.3707H85.8085L75.9841 45.8799H34.2924C33.4798 45.8798 32.679 46.074 31.9567 46.4462C31.2344 46.8184 30.6115 47.3579 30.1399 48.0197C29.6684 48.6815 29.3619 49.4463 29.2459 50.2506C29.1299 51.0549 29.2079 51.8752 29.4733 52.6432L36.0246 71.625C36.3018 72.4262 36.8217 73.1211 37.5121 73.6132C38.2025 74.1052 39.029 74.37 39.8768 74.3707Z" fill="#122832"/>
<path d="M136.047 120.675C143.514 115.721 156.834 107.231 156.834 107.231C156.834 107.231 180.376 91.9565 179.937 90.6483C179.497 89.3401 171.555 92.7632 171.555 92.7632C172.175 91.5532 179.435 87.2305 179.145 86.4497C178.856 85.6689 169.642 90.7104 169.233 90.3278C168.825 89.9451 178.432 84.7537 177.868 83.7144C177.305 82.6751 167.703 87.851 167.17 87.6183C166.637 87.3856 176.219 81.6564 175.004 80.7722C173.789 79.888 160.526 89.9451 159.31 89.7176C158.095 89.4901 162.284 83.5489 162.072 80.9273C161.86 78.3058 150.975 94.4023 150.975 94.4023C148.473 96.5792 128.803 105.023 128.803 105.023L136.047 120.675Z" fill="#DF9257"/>
<path d="M160.608 89.2312L157.118 95.6947C157.118 95.6947 158.736 89.1382 158.328 88.6211L160.608 89.2312Z" fill="#B6613B"/>
<path d="M117.267 105.964C117.267 105.964 92.5666 53.4346 77.1578 73.4609C60.6114 94.9712 90.3535 114.532 105.53 130.577C107.477 132.628 110.131 133.864 112.955 134.034C115.779 134.204 118.562 133.295 120.742 131.492L156.523 107.521L150.463 95.1108L117.267 105.964Z" fill="#DF9257"/>
<path d="M90.6535 116.259C97.2566 108.782 106.321 98.8752 113.508 91.9877C105.188 77.8096 87.7683 59.6499 77.1476 73.4351C65.2342 88.9111 77.3079 103.384 90.6535 116.259Z" fill="#7198F8"/>
<path d="M39.3804 89.1228C38.5272 75.865 61.2423 65.1874 61.2423 65.1874L69.6964 59.8047L70.2135 61.2163L84.3193 74.4017L86.6565 68.3002L86.522 66.0199L88.8385 68.445C90.5397 68.7242 97.4788 78.2022 99.2989 82.6128C102.07 89.3348 102.918 98.125 103.182 103.399C109.465 154.833 109.945 156.435 109.945 156.435H47.0434C47.0434 156.435 44.6339 171.415 39.3804 89.1228Z" fill="#7198F8"/>
<path d="M52.3383 70.1461C52.9846 69.7169 93.8283 156.415 93.8283 156.415H43.2067C43.2067 156.415 38.946 118.446 39.551 87.8197C39.551 87.8197 40.2904 78.1142 52.3383 70.1461Z" fill="#5373C2"/>
<path d="M98.2699 31.9346C99.4643 29.5044 99.061 25.6315 99.061 25.6315C99.061 25.6315 109.092 22.2136 106.698 16.4793C104.304 10.7449 92.52 13.9456 92.52 13.9456C92.52 13.9456 96.9824 7.10471 88.2128 12.6684C84.7277 14.8815 84.1486 15.4244 81.4391 14.2197C78.7296 13.0149 74.4379 14.5609 73.1659 16.805C72.3903 18.2063 72.8712 19.4576 71.8112 19.349C67.8866 18.9354 66.051 23.0306 68.7449 31.7123C68.7449 31.7123 67.3902 36.1384 70.0325 43.0414C70.9839 45.5388 74.2363 46.3713 74.2363 46.3713" fill="#0E162E"/>
<path d="M98.301 26.3451C98.301 26.3451 101.279 46.4644 95.152 54.2206C92.0082 57.2661 88.2956 55.9269 85.9171 55.839C85.824 54.9755 86.2894 62.8247 86.7082 69.8569C86.7057 69.8758 86.7057 69.8949 86.7082 69.9138C86.5841 71.1237 84.9553 71.5063 83.0422 71.3978C80.105 71.1961 77.3586 69.8701 75.374 67.6955L69.5569 61.4493L72.8041 46.8264C72.8041 46.8264 73.4505 43.5275 73.3212 42.4675C70.9582 42.1676 69.319 38.5584 70.3066 36.216C71.2425 33.9771 74.9086 33.8323 75.4774 35.942C76.0462 38.0517 77.8507 38.0103 78.0627 36.2522C78.192 35.2181 77.4164 26.826 83.4765 25.8332C87.096 26.0866 87.9492 28.6099 89.8003 28.7081C91.6515 28.8064 93.363 24.9076 94.2782 25.9625C97.1531 29.2821 98.301 26.3451 98.301 26.3451Z" fill="#DF9257"/>
<path d="M71.3666 38.3467C72.6334 34.0808 75.4308 37.5866 75.4308 37.5866L71.3666 38.3467Z" fill="#B6613B"/>
<path d="M86.6462 55.8648L82.9905 55.5391L85.9016 63.0108L86.6462 55.8648Z" fill="#B6613B"/>
<path d="M95.1055 40.502C95.1055 40.502 96.8015 44.7937 96.5585 44.773C95.907 44.7213 94.5677 44.773 94.5677 44.773L95.1055 40.502Z" fill="#B6613B"/>
<path d="M97.7452 40.0788C97.7611 39.4393 97.524 38.9147 97.2156 38.907C96.9073 38.8994 96.6445 39.4116 96.6287 40.0511C96.6128 40.6906 96.8499 41.2152 97.1582 41.2228C97.4666 41.2305 97.7294 40.7183 97.7452 40.0788Z" fill="#0E162E"/>
<path d="M92.4114 39.7894C92.4114 40.4254 92.6337 40.9528 92.9285 40.958C93.2232 40.9631 93.5024 40.4409 93.5179 39.8152C93.5334 39.1896 93.2956 38.657 93.0008 38.6466C92.7061 38.6363 92.4269 39.1534 92.4114 39.7894Z" fill="#0E162E"/>
<path d="M89.5209 35.7145C88.7815 35.7921 88.7298 33.186 92.4579 33.5221C93.4921 33.6204 94.4073 34.6545 93.9161 35.4508C93.5903 35.9576 92.2045 35.4456 89.5209 35.7145Z" fill="#0E162E"/>
<path d="M98.9267 36.1486C99.6299 36.3865 100.705 34.4216 98.6216 33.7029C98.3682 33.5875 98.0848 33.5551 97.8119 33.6101C97.539 33.6651 97.2903 33.8047 97.1013 34.0092C96.9123 34.2136 96.7926 34.4725 96.7592 34.7489C96.7258 35.0253 96.7804 35.3052 96.9153 35.5488C97.1583 36.0297 97.8046 35.766 98.9267 36.1486Z" fill="#0E162E"/>
<path d="M96.8272 46.3718L91.8219 45.9736C91.8219 45.9736 92.339 48.378 94.5417 48.559C96.3101 48.6986 96.8272 46.3718 96.8272 46.3718Z" fill="white"/>
<path d="M64.8411 149.987C73.7451 148.953 89.7278 147.117 89.7278 147.117C89.7278 147.117 121.75 147.784 121.952 146.425C122.154 145.065 102.546 134.682 102.546 134.682C99.3351 135.483 65.5495 132.758 65.5495 132.758L64.8411 149.987Z" fill="#DF9257"/>
<path d="M61.6974 86.8739C61.9146 82.4994 67.9489 67.7008 59.4326 65.9169C50.4511 64.0347 23.8993 91.2535 29.9956 136.642C31.3814 146.948 37.3381 155.453 55.203 152.191L88.9731 147.211L87.9389 134.259L55.2133 126.761C55.2133 126.761 61.0614 99.8628 61.6974 86.8739Z" fill="#DF9257"/>
<path d="M64.7688 115.86C66.1338 102.907 67.1525 94.143 67.4937 87.2246C67.7109 82.8501 67.9488 67.7102 59.4325 65.9263C52.8967 64.5561 35.1301 81.4385 29.313 106.656C38.9461 110.172 54.9754 112.722 64.7688 115.86Z" fill="#7198F8"/>
<path opacity="0.33" d="M92.3442 35.3887H89.552C88.344 35.3887 87.3647 36.3679 87.3647 37.5759V40.1871C87.3647 41.3951 88.344 42.3743 89.552 42.3743H92.3442C93.5521 42.3743 94.5314 41.3951 94.5314 40.1871V37.5759C94.5314 36.3679 93.5521 35.3887 92.3442 35.3887Z" fill="white"/>
<path opacity="0.33" d="M88.6834 42.2399C89.0557 41.6453 89.4228 41.0455 89.7693 40.4301C90.6948 38.7703 91.5532 37.0381 92.4736 35.3887H89.2884C88.2284 35.3887 87.3649 36.5056 87.3649 37.881V39.882C87.3373 40.3598 87.4468 40.8355 87.6804 41.2532C87.914 41.6709 88.2619 42.0132 88.6834 42.2399Z" fill="white"/>
<path d="M92.3442 35.3887H89.552C88.344 35.3887 87.3647 36.3679 87.3647 37.5759V40.1871C87.3647 41.3951 88.344 42.3743 89.552 42.3743H92.3442C93.5521 42.3743 94.5314 41.3951 94.5314 40.1871V37.5759C94.5314 36.3679 93.5521 35.3887 92.3442 35.3887Z" stroke="#0E162E" stroke-width="2.16" stroke-miterlimit="10"/>
<path opacity="0.33" d="M99.2627 35.5283H97.8098C96.8817 35.5283 96.1293 36.2807 96.1293 37.2088V40.5956C96.1293 41.5238 96.8817 42.2761 97.8098 42.2761H99.2627C100.191 42.2761 100.943 41.5238 100.943 40.5956V37.2088C100.943 36.2807 100.191 35.5283 99.2627 35.5283Z" fill="white"/>
<path opacity="0.33" d="M96.7134 41.8781C97.8062 39.8098 98.8955 37.7415 99.9813 35.6732C99.8221 35.5886 99.6446 35.5443 99.4643 35.5439H97.6028C96.7858 35.5439 96.124 36.4023 96.124 37.4623V40.3682C96.1166 40.929 96.3281 41.4706 96.7134 41.8781Z" fill="white"/>
<path d="M99.2627 35.5283H97.8098C96.8817 35.5283 96.1293 36.2807 96.1293 37.2088V40.5956C96.1293 41.5238 96.8817 42.2761 97.8098 42.2761H99.2627C100.191 42.2761 100.943 41.5238 100.943 40.5956V37.2088C100.943 36.2807 100.191 35.5283 99.2627 35.5283Z" stroke="#0E162E" stroke-width="1.66" stroke-miterlimit="10"/>
<path d="M94.5312 39.5098H95.9946" stroke="#0E162E" stroke-width="2.16" stroke-miterlimit="10"/>
<path d="M76.7184 37.0645L87.2977 37.2092" stroke="#0E162E" stroke-width="2.16" stroke-miterlimit="10"/>
<path d="M138.871 145.308H93.337V150.649H138.871V145.308Z" fill="#312A2D"/>
<path d="M125.814 145.334C123.525 147.058 121.273 148.839 119.056 150.676H138.881V145.334H125.814Z" fill="#A3135F"/>
<path d="M195.785 150.644H124.025L141.347 101.155H213.107L195.785 150.644Z" fill="#312A2D"/>
<path d="M125.313 144.941H197.434" stroke="white" stroke-width="1.31" stroke-miterlimit="10"/>
<path d="M172.786 127.293C172.786 126.403 172.521 125.532 172.026 124.791C171.532 124.051 170.828 123.473 170.005 123.132C169.182 122.792 168.277 122.702 167.403 122.876C166.53 123.05 165.727 123.479 165.097 124.109C164.467 124.739 164.038 125.541 163.865 126.415C163.691 127.288 163.78 128.194 164.121 129.017C164.462 129.84 165.039 130.543 165.78 131.038C166.52 131.533 167.391 131.797 168.282 131.797C169.476 131.796 170.621 131.321 171.465 130.476C172.309 129.632 172.784 128.487 172.786 127.293Z" fill="white"/>
<path d="M293 149.771H0V157.47H293V149.771Z" fill="#000664"/>
<path d="M32.679 150.05C29.9893 150.05 27.4097 148.982 25.5073 147.081C23.6049 145.179 22.5354 142.6 22.5341 139.91V125.686H42.8189V139.89C42.8216 141.223 42.5613 142.544 42.053 143.776C41.5446 145.009 40.7982 146.129 39.8563 147.073C38.9145 148.017 37.7957 148.765 36.5642 149.276C35.3326 149.787 34.0124 150.05 32.679 150.05Z" fill="#FFB701"/>
<g style="mix-blend-mode:multiply">
<path d="M30.3677 144.326C26.3604 141.415 23.7802 137.164 22.5341 132.495V139.91C22.5354 142.6 23.6049 145.179 25.5073 147.08C27.4097 148.982 29.9893 150.05 32.679 150.05C35.231 150.051 37.6886 149.085 39.5561 147.345C36.2439 147.381 33.0129 146.32 30.3677 144.326Z" fill="#FFB701"/>
</g>
<path d="M45.2372 143.542C49.3589 142.581 51.9214 138.461 50.9607 134.34C50.0001 130.218 45.88 127.655 41.7583 128.616C37.6366 129.577 35.0741 133.697 36.0347 137.818C36.9954 141.94 41.1155 144.503 45.2372 143.542Z" stroke="#FFB701" stroke-width="2.62" stroke-miterlimit="10"/>
<path opacity="0.61" d="M31.7639 123.027C30.3483 121.197 29.1169 119.231 28.0876 117.158C27.3419 115.812 26.8923 114.323 26.769 112.789C26.7225 111.238 27.3171 109.63 28.5995 108.787C30.5023 107.541 33.2531 108.539 34.4993 110.457C35.7454 112.375 35.6679 114.868 35.0163 117.055C34.3648 119.242 33.2531 121.243 32.3896 123.348" fill="white"/>
<path opacity="0.61" d="M35.5127 123.462C35.8291 122.671 36.3679 121.989 37.0639 121.497C37.793 121.078 38.9202 121.249 39.2149 122.04C39.2975 122.395 39.2487 122.767 39.0776 123.089C38.9064 123.41 38.6245 123.658 38.2842 123.788C37.5935 124.027 36.8541 124.089 36.1332 123.969" fill="white"/>
<path d="M192.098 74.4942L179.59 53.1856C179.571 53.161 179.545 53.1428 179.516 53.1337C179.486 53.1245 179.454 53.1247 179.425 53.1344C179.395 53.144 179.369 53.1626 179.351 53.1875C179.332 53.2124 179.322 53.2425 179.321 53.2735V71.4487C179.321 71.4753 179.328 71.5014 179.342 71.5242C179.356 71.547 179.375 71.5656 179.399 71.5779C179.532 71.6497 179.648 71.7508 179.737 71.8736C179.826 71.9964 179.886 72.1378 179.912 72.2871C179.938 72.4364 179.931 72.5897 179.889 72.7356C179.848 72.8814 179.774 73.016 179.673 73.1292L179.632 73.1654C179.49 73.2929 179.315 73.3769 179.127 73.4073C178.94 73.4377 178.747 73.4132 178.573 73.3367C178.399 73.2603 178.25 73.1351 178.145 72.9763C178.041 72.8174 177.984 72.6317 177.982 72.4415C177.984 72.2666 178.032 72.0953 178.123 71.946C178.214 71.7967 178.344 71.6748 178.499 71.5935C178.525 71.5812 178.546 71.5622 178.562 71.5385C178.577 71.5148 178.586 71.4873 178.587 71.459V53.2942C178.588 53.2618 178.578 53.23 178.559 53.2036C178.541 53.1772 178.514 53.1575 178.483 53.1476C178.452 53.1377 178.419 53.1381 178.388 53.1487C178.358 53.1592 178.331 53.1795 178.313 53.2063L165.733 74.0651C165.715 74.089 165.705 74.118 165.705 74.1478C165.705 74.1776 165.715 74.2066 165.733 74.2305L171.937 87.3797H185.945L192.109 74.67C192.126 74.6434 192.134 74.612 192.132 74.5805C192.13 74.5489 192.118 74.5187 192.098 74.4942Z" fill="#122832"/>
<path d="M171.979 87.939H185.893C185.914 87.939 185.935 87.9431 185.955 87.9512C185.974 87.9592 185.992 87.971 186.007 87.9859C186.021 88.0008 186.033 88.0185 186.041 88.0379C186.049 88.0574 186.054 88.0782 186.054 88.0993V93.27C186.054 93.4839 185.969 93.6891 185.817 93.8404C185.666 93.9916 185.461 94.0766 185.247 94.0766H172.625C172.411 94.0766 172.206 93.9916 172.055 93.8404C171.903 93.6891 171.818 93.4839 171.818 93.27V88.0993C171.818 88.0782 171.823 88.0574 171.831 88.0379C171.839 88.0185 171.851 88.0008 171.865 87.9859C171.88 87.971 171.898 87.9592 171.917 87.9512C171.937 87.9431 171.958 87.939 171.979 87.939Z" fill="#122832"/>
<path d="M159.693 29.5098C159.693 34.6282 161.726 39.537 165.345 43.1568C168.963 46.7765 173.872 48.8108 178.99 48.8121" stroke="#FFB701" stroke-width="1.5" stroke-miterlimit="10"/>
<path d="M198.293 68.3463C198.293 63.227 196.259 58.3174 192.639 54.6975C189.019 51.0776 184.11 49.0439 178.99 49.0439" stroke="#FFB701" stroke-width="1.5" stroke-miterlimit="10"/>
<path d="M161.105 28.3301H158.276V31.1585H161.105V28.3301Z" fill="#122832"/>
<path d="M199.446 66.4131H196.617V69.2415H199.446V66.4131Z" fill="#122832"/>
<path d="M153.762 48.915H204.71" stroke="#FFB701" stroke-width="1.5" stroke-miterlimit="10"/>
<path d="M180.262 47.7568H177.434V50.5852H180.262V47.7568Z" fill="#122832"/>
<path d="M155.112 47.7568H152.283V50.5852H155.112V47.7568Z" fill="#122832"/>
<path d="M205.547 47.7568H202.719V50.5852H205.547V47.7568Z" fill="#122832"/>
<g style="mix-blend-mode:multiply" opacity="0.22">
<path d="M33.6357 26.3093L56.387 26.5419C56.7834 26.5461 57.1706 26.6624 57.5037 26.8775C57.8368 27.0925 58.1022 27.3975 58.2691 27.7571L60.3374 32.2349C60.3604 32.2883 60.4011 32.3322 60.4526 32.3591C60.5041 32.3861 60.5633 32.3945 60.6203 32.383C60.6773 32.3715 60.7286 32.3407 60.7656 32.2959C60.8026 32.251 60.823 32.1948 60.8235 32.1367L61.051 26.5937L61.2837 4.43186C61.2933 3.39049 60.8892 2.38788 60.1602 1.64426C59.4311 0.900635 58.4366 0.476819 57.3953 0.465902L33.8839 0.222877C33.3685 0.217416 32.8571 0.31353 32.3789 0.50573C31.9006 0.69793 31.4649 0.982452 31.0966 1.34305C30.7284 1.70364 30.4347 2.13325 30.2325 2.60734C30.0303 3.08143 29.9234 3.59071 29.918 4.1061L29.7267 22.3433C29.7212 22.8609 29.8182 23.3744 30.012 23.8543C30.2058 24.3342 30.4926 24.7711 30.856 25.1397C31.2193 25.5083 31.6519 25.8014 32.129 26.0021C32.6061 26.2029 33.1182 26.3072 33.6357 26.3093Z" fill="#A0A0A0"/>
</g>
<path d="M45.0997 13.228L40.8857 13.1846C40.7258 13.183 40.5949 13.3113 40.5932 13.4712L40.5172 20.8546C40.5155 21.0145 40.6438 21.1455 40.8037 21.1471L45.0177 21.1905C45.1776 21.1922 45.3086 21.0639 45.3102 20.904L45.3862 13.5205C45.3879 13.3606 45.2596 13.2297 45.0997 13.228Z" fill="#FC1381"/>
<path d="M39.7575 16.3371L35.4091 16.2923C35.2863 16.2911 35.1857 16.3896 35.1845 16.5124L35.1397 20.8607C35.1384 20.9835 35.237 21.0841 35.3597 21.0854L39.7081 21.1301C39.8309 21.1314 39.9315 21.0329 39.9327 20.9101L39.9775 16.5617C39.9788 16.4389 39.8802 16.3384 39.7575 16.3371Z" fill="#FFB701"/>
<path d="M50.4909 8.97179L46.2767 8.92965C46.1168 8.92805 45.9859 9.0564 45.9843 9.21632L45.8675 20.8919C45.8659 21.0518 45.9943 21.1827 46.1542 21.1843L50.3683 21.2265C50.5283 21.2281 50.6592 21.0997 50.6608 20.9398L50.7776 9.26425C50.7792 9.10433 50.6508 8.97339 50.4909 8.97179Z" fill="#009FBF"/>
<path d="M55.21 5.47738L51.7975 5.44224C51.5433 5.43962 51.3352 5.64353 51.3325 5.89767L51.1792 20.7886C51.1766 21.0428 51.3805 21.2509 51.6346 21.2535L55.0471 21.2887C55.3013 21.2913 55.5094 21.0874 55.512 20.8332L55.6654 5.94229C55.668 5.68814 55.4641 5.48 55.21 5.47738Z" fill="#122832"/>
<g style="mix-blend-mode:multiply">
<path d="M242.125 103.022C248.419 103.022 253.521 97.9198 253.521 91.6258C253.521 85.3318 248.419 80.2295 242.125 80.2295C235.831 80.2295 230.729 85.3318 230.729 91.6258C230.729 97.9198 235.831 103.022 242.125 103.022Z" fill="#FC1381"/>
</g>
<g style="mix-blend-mode:multiply">
<path d="M236.555 96.1934C238.828 90.3241 235.912 83.7235 230.043 81.4506C224.174 79.1776 217.573 82.0929 215.3 87.9621C213.027 93.8314 215.943 100.432 221.812 102.705C227.681 104.978 234.282 102.063 236.555 96.1934Z" fill="#009FBF"/>
</g>
<g style="mix-blend-mode:multiply">
<path d="M236.162 117.216C242.373 116.201 246.586 110.342 245.571 104.131C244.556 97.9191 238.698 93.7064 232.486 94.7213C226.275 95.7363 222.062 101.595 223.077 107.806C224.092 114.018 229.95 118.231 236.162 117.216Z" fill="#FFB701"/>
</g>
<g style="mix-blend-mode:multiply">
<path d="M268.982 120.99V122.34H267.627" stroke="#A0A0A0" stroke-width="0.77" stroke-miterlimit="10"/>
</g>
<g style="mix-blend-mode:multiply">
<path d="M264.918 122.34H201.183" stroke="#A0A0A0" stroke-width="0.77" stroke-miterlimit="10" stroke-dasharray="5.24 5.24"/>
</g>
<g style="mix-blend-mode:multiply">
<path d="M199.828 122.34H198.474V120.99" stroke="#A0A0A0" stroke-width="0.77" stroke-miterlimit="10"/>
</g>
<g style="mix-blend-mode:multiply">
<path d="M198.479 118.405V78.3369" stroke="#A0A0A0" stroke-width="0.77" stroke-miterlimit="10" stroke-dasharray="5 5"/>
</g>
<g style="mix-blend-mode:multiply">
<path d="M198.474 77.0452V75.6904H199.828" stroke="#A0A0A0" stroke-width="0.77" stroke-miterlimit="10"/>
</g>
<g style="mix-blend-mode:multiply">
<path d="M202.543 75.6904H266.272" stroke="#A0A0A0" stroke-width="0.77" stroke-miterlimit="10" stroke-dasharray="5.24 5.24"/>
</g>
<g style="mix-blend-mode:multiply">
<path d="M267.627 75.6904H268.982V77.0452" stroke="#A0A0A0" stroke-width="0.77" stroke-miterlimit="10"/>
</g>
<g style="mix-blend-mode:multiply">
<path d="M268.982 79.6299V119.698" stroke="#A0A0A0" stroke-width="0.77" stroke-miterlimit="10" stroke-dasharray="5 5"/>
</g>
<g style="mix-blend-mode:multiply">
<path d="M200.894 74.5781H197.595V77.8771H200.894V74.5781Z" fill="white"/>
<path d="M200.894 74.5781H197.595V77.8771H200.894V74.5781Z" stroke="#222221" stroke-width="1.74" stroke-miterlimit="10"/>
</g>
<g style="mix-blend-mode:multiply">
<path d="M270.461 74.5781H267.162V77.8771H270.461V74.5781Z" fill="white"/>
<path d="M270.461 74.5781H267.162V77.8771H270.461V74.5781Z" stroke="#222221" stroke-width="1.74" stroke-miterlimit="10"/>
</g>
<g style="mix-blend-mode:multiply">
<path d="M200.894 119.708H197.595V123.007H200.894V119.708Z" fill="white"/>
<path d="M200.894 119.708H197.595V123.007H200.894V119.708Z" stroke="#222221" stroke-width="1.74" stroke-miterlimit="10"/>
</g>
<g style="mix-blend-mode:multiply">
<path d="M270.461 119.708H267.162V123.007H270.461V119.708Z" fill="white"/>
<path d="M270.461 119.708H267.162V123.007H270.461V119.708Z" stroke="#222221" stroke-width="1.74" stroke-miterlimit="10"/>
</g>
<path d="M251.163 125.432L248.966 131.808C248.922 131.942 248.836 132.059 248.721 132.142C248.607 132.225 248.469 132.27 248.327 132.27C248.186 132.27 248.048 132.225 247.933 132.142C247.818 132.059 247.733 131.942 247.689 131.808L243.33 117.754C243.293 117.636 243.29 117.51 243.32 117.39C243.35 117.27 243.413 117.161 243.501 117.074C243.589 116.988 243.699 116.927 243.82 116.899C243.94 116.871 244.066 116.877 244.183 116.916L258.258 121.647C258.392 121.691 258.509 121.777 258.592 121.892C258.675 122.006 258.72 122.144 258.72 122.286C258.72 122.427 258.675 122.565 258.592 122.68C258.509 122.795 258.392 122.88 258.258 122.924L251.608 125.029C251.508 125.058 251.417 125.11 251.34 125.18C251.263 125.25 251.203 125.336 251.163 125.432Z" fill="#122832"/>
<g style="mix-blend-mode:multiply">
<path d="M233.066 38.2271C233.068 37.3942 232.823 36.5795 232.362 35.8859C231.9 35.1924 231.244 34.6513 230.475 34.3312C229.706 34.011 228.859 33.9262 228.042 34.0874C227.225 34.2487 226.474 34.6487 225.884 35.2369C225.295 35.8252 224.893 36.5751 224.73 37.3919C224.566 38.2086 224.649 39.0554 224.967 39.8251C225.286 40.5948 225.825 41.2528 226.517 41.7157C227.21 42.1787 228.024 42.4258 228.857 42.4258C229.409 42.4265 229.956 42.3184 230.466 42.1078C230.976 41.8971 231.44 41.588 231.831 41.1982C232.222 40.8083 232.532 40.3452 232.744 39.8355C232.956 39.3257 233.065 38.7792 233.066 38.2271Z" fill="#009FBF"/>
</g>
<g style="mix-blend-mode:multiply">
<path d="M246.609 28.3067L228.878 28.2881L228.867 38.5055L246.598 38.524L246.609 28.3067Z" stroke="#A0A0A0" stroke-width="0.77" stroke-miterlimit="10" stroke-dasharray="5.23 5.23"/>
</g>
<g style="mix-blend-mode:multiply">
<path d="M25.2126 83.6736C25.2146 83.0483 25.031 82.4364 24.6851 81.9155C24.3392 81.3946 23.8465 80.9881 23.2694 80.7474C22.6923 80.5067 22.0568 80.4426 21.4432 80.5634C20.8297 80.6841 20.2658 80.9842 19.8229 81.4256C19.3801 81.867 19.0781 82.4299 18.9554 83.0431C18.8326 83.6562 18.8946 84.292 19.1334 84.8699C19.3722 85.4477 19.7772 85.9418 20.2969 86.2894C20.8167 86.637 21.4279 86.8225 22.0532 86.8226C22.8893 86.8226 23.6914 86.4911 24.2836 85.9009C24.8757 85.3106 25.2098 84.5097 25.2126 83.6736Z" fill="#FFB701"/>
</g>
<g style="mix-blend-mode:multiply">
<path d="M22.9931 59.7784L10.8212 59.7656L10.7962 83.6544L22.9681 83.6672L22.9931 59.7784Z" stroke="#A0A0A0" stroke-width="0.77" stroke-miterlimit="10" stroke-dasharray="5.23 5.23"/>
</g>
</svg>
