<svg width="416" height="548" viewBox="0 0 416 548" fill="none" xmlns="http://www.w3.org/2000/svg">
<path fill-rule="evenodd" clip-rule="evenodd" d="M71.9792 0.0562065C91.8976 -1.21246 105.415 19.2941 121.338 31.3525C136.882 43.1241 157.456 51.0714 163.743 69.5505C170.053 88.098 161.996 108.314 153.531 125.979C145.932 141.836 132.263 152.681 118.608 163.736C104.123 175.462 90.6001 192.064 71.9792 192C53.3692 191.936 37.5647 177.685 25.5829 163.416C15.3757 151.261 15.312 134.571 10.9335 119.302C6.75562 104.734 -2.34825 91.0499 0.564316 76.1757C3.64877 60.4237 16.0056 49.0582 26.9783 37.3626C40.6478 22.7926 52.0626 1.32476 71.9792 0.0562065Z" fill="url(#paint0_linear_2293_1286)"/>
<path fill-rule="evenodd" clip-rule="evenodd" d="M373.456 377.292C383.5 394.509 371.252 415.746 367.618 435.354C364.07 454.495 366.185 476.418 352.511 490.293C338.786 504.22 317.144 506.064 297.596 506.404C280.049 506.709 264.257 499.353 248.284 492.104C231.342 484.414 210.479 479.762 202.205 463.108C193.936 446.463 199.579 425.981 206.949 408.903C213.227 394.355 228.089 386.836 239.753 376.101C250.881 365.857 259.017 351.611 273.591 347.561C289.025 343.273 304.693 349.224 320.038 353.792C339.153 359.483 363.413 360.076 373.456 377.292Z" fill="url(#paint1_linear_2293_1286)"/>
<g filter="url(#filter0_d_2293_1286)">
<path d="M264.157 50.8844L44.5303 83.1582L99.8577 459.668L319.485 427.394L264.157 50.8844Z" fill="white"/>
</g>
<path opacity="0.3" d="M264.156 50.8848L274.253 119.593C270.518 120.019 266.756 120.147 263.001 119.974C235.366 118.706 210.715 102.54 183.746 96.2843C155.198 89.8504 125.268 94.7146 100.227 109.858C84.016 119.773 69.6464 134.14 53.4489 143.474L44.5845 83.1504L264.156 50.8848Z" fill="url(#paint2_linear_2293_1286)"/>
<path opacity="0.3" d="M272.789 434.255L99.8429 459.669L90.0514 393.037C97.4455 390.933 108.221 395.583 113.411 399.159C122.424 405.382 129.587 414.21 139.239 419.392C155.346 428.008 175.01 424.85 192.75 420.532C210.49 416.215 229.123 410.947 246.675 415.93C257.136 419.046 266.301 425.477 272.789 434.255Z" fill="url(#paint3_linear_2293_1286)"/>
<path d="M149.691 131.615L136.462 121.775C134.479 120.3 131.675 120.712 130.2 122.695L120.361 135.925C118.886 137.908 119.298 140.711 121.281 142.186L134.511 152.025C136.494 153.5 139.297 153.088 140.772 151.105L150.611 137.876C152.086 135.893 151.674 133.09 149.691 131.615Z" fill="#96B3F9"/>
<path d="M144.43 133.557L136.104 127.365C134.852 126.433 133.082 126.694 132.151 127.945L125.959 136.271C125.028 137.523 125.288 139.293 126.54 140.224L134.866 146.416C136.117 147.347 137.887 147.087 138.818 145.835L145.01 137.509C145.942 136.258 145.682 134.488 144.43 133.557Z" fill="#4870FA"/>
<path d="M157.885 133.5L156.643 125.043L158.6 124.756L159.608 131.617L163.848 130.994L164.082 132.589L157.885 133.5ZM169.151 131.992C166.481 132.385 164.251 130.812 163.881 128.299C163.512 125.786 165.196 123.638 167.866 123.246C170.523 122.856 172.764 124.414 173.135 126.939C173.506 129.464 171.808 131.602 169.151 131.992ZM168.906 130.325C170.416 130.103 171.39 128.837 171.154 127.23C170.918 125.624 169.621 124.691 168.111 124.913C166.601 125.135 165.627 126.401 165.863 128.008C166.099 129.615 167.396 130.547 168.906 130.325ZM180.664 128.227L180.3 125.751L182.088 125.488L182.592 128.919C181.765 129.756 180.539 130.319 179.331 130.496C176.674 130.887 174.449 129.35 174.074 126.801C173.7 124.252 175.389 122.141 178.082 121.745C179.568 121.526 180.875 121.853 181.837 122.686L180.751 124.031C180.039 123.469 179.282 123.272 178.424 123.398C176.781 123.639 175.819 124.903 176.055 126.51C176.288 128.093 177.576 129.051 179.195 128.813C179.727 128.735 180.208 128.566 180.664 128.227ZM188.663 129.125C185.994 129.517 183.763 127.944 183.394 125.432C183.025 122.919 184.708 120.771 187.378 120.379C190.036 119.988 192.276 121.547 192.647 124.072C193.018 126.597 191.321 128.734 188.663 129.125ZM188.418 127.458C189.928 127.236 190.902 125.97 190.666 124.363C190.43 122.756 189.133 121.824 187.623 122.046C186.113 122.268 185.139 123.534 185.375 125.141C185.611 126.747 186.908 127.68 188.418 127.458Z" fill="#4870FA"/>
<path d="M133.773 207.13C132.613 207.301 131.524 207.007 130.775 206.285L131.69 204.79C132.251 205.35 132.816 205.595 133.433 205.504C134.235 205.386 134.584 204.843 134.444 203.893L133.841 199.785L130.806 200.231L130.57 198.627L135.591 197.889L136.414 203.49C136.728 205.625 135.809 206.831 133.773 207.13ZM141.872 205.89C139.762 206.2 138.011 205.008 137.718 203.009C137.424 201.01 138.758 199.365 140.867 199.055C142.977 198.745 144.716 199.939 145.009 201.938C145.303 203.936 143.982 205.58 141.872 205.89ZM141.64 204.311C142.602 204.169 143.229 203.371 143.06 202.224C142.891 201.077 142.062 200.493 141.1 200.634C140.137 200.775 139.498 201.575 139.667 202.723C139.836 203.87 140.677 204.452 141.64 204.311ZM149.828 197.738C151.395 197.508 152.713 198.247 153.011 200.27L153.569 204.07L151.644 204.353L151.129 200.849C150.972 199.776 150.406 199.355 149.554 199.48C148.629 199.616 148.046 200.281 148.226 201.503L148.708 204.784L146.783 205.067L145.438 195.913L147.363 195.63L147.834 198.838C148.276 198.243 148.977 197.863 149.828 197.738ZM158.358 196.485C159.925 196.254 161.244 196.993 161.541 199.017L162.099 202.817L160.175 203.099L159.66 199.596C159.502 198.522 158.936 198.101 158.085 198.226C157.159 198.362 156.577 199.028 156.756 200.249L157.238 203.531L155.314 203.814L154.338 197.176L156.177 196.906L156.291 197.683C156.726 197.04 157.457 196.617 158.358 196.485ZM167.474 202.027L166.205 193.391L170.128 192.814C172.953 192.399 175.14 193.817 175.525 196.432C175.909 199.048 174.222 201.035 171.397 201.45L167.474 202.027ZM169.231 200.092L171.057 199.824C172.772 199.572 173.744 198.383 173.501 196.73C173.258 195.077 171.985 194.217 170.27 194.469L168.444 194.738L169.231 200.092ZM180.704 200.184C178.594 200.494 176.843 199.301 176.55 197.303C176.256 195.304 177.59 193.659 179.699 193.349C181.809 193.039 183.547 194.233 183.841 196.231C184.135 198.23 182.813 199.874 180.704 200.184ZM180.472 198.604C181.434 198.463 182.06 197.665 181.892 196.518C181.723 195.37 180.894 194.786 179.931 194.928C178.969 195.069 178.33 195.869 178.499 197.016C178.668 198.164 179.509 198.746 180.472 198.604ZM191.633 195.111C191.655 195.26 191.661 195.473 191.672 195.635L186.651 196.373C186.957 197.172 187.735 197.575 188.747 197.426C189.45 197.323 189.925 197.039 190.318 196.54L191.505 197.5C190.991 198.294 190.121 198.8 188.924 198.976C186.629 199.313 184.924 198.089 184.634 196.115C184.342 194.128 185.649 192.474 187.673 192.177C189.622 191.89 191.319 192.977 191.633 195.111ZM187.899 193.631C187.023 193.76 186.472 194.383 186.461 195.254L189.731 194.773C189.472 193.954 188.763 193.504 187.899 193.631Z" fill="#4870FA"/>
<path d="M145.906 217.279C146.919 217.13 147.702 217.613 147.877 218.808L148.232 221.222L147.67 221.305L147.324 218.946C147.194 218.068 146.669 217.684 145.878 217.8C144.983 217.932 144.503 218.568 144.642 219.518L144.963 221.703L144.401 221.785L143.789 217.622L144.328 217.543L144.441 218.311C144.667 217.76 145.186 217.384 145.906 217.279ZM153.1 218.38C153.107 218.428 153.109 218.492 153.118 218.556L149.635 219.067C149.827 219.929 150.576 220.409 151.487 220.275C151.993 220.201 152.418 219.952 152.681 219.542L153.051 219.859C152.744 220.357 152.201 220.679 151.544 220.776C150.246 220.967 149.229 220.211 149.048 218.976C148.866 217.741 149.6 216.736 150.771 216.564C151.943 216.391 152.917 217.13 153.1 218.38ZM150.842 217.046C150.035 217.165 149.525 217.822 149.574 218.648L152.526 218.214C152.335 217.409 151.658 216.927 150.842 217.046ZM154.596 216.867C154.776 216.274 155.263 215.904 156.031 215.791L156.111 216.337C156.064 216.344 156.015 216.343 155.976 216.349C155.105 216.477 154.656 217.109 154.8 218.09L155.112 220.211L154.55 220.294L153.938 216.131L154.477 216.051L154.596 216.867ZM158.497 215.428C159.574 215.27 160.262 215.719 160.42 216.795L160.8 219.376L160.261 219.455L160.166 218.806C159.976 219.27 159.523 219.603 158.835 219.705C157.893 219.843 157.243 219.437 157.137 218.717C157.043 218.076 157.375 217.477 158.57 217.302L159.892 217.107L159.855 216.854C159.75 216.142 159.29 215.813 158.514 215.927C157.976 216.006 157.497 216.271 157.201 216.621L156.886 216.239C157.253 215.821 157.84 215.525 158.497 215.428ZM158.857 219.249C159.49 219.156 159.913 218.786 160.054 218.208L159.954 217.527L158.648 217.719C157.841 217.837 157.626 218.192 157.689 218.62C157.76 219.103 158.192 219.346 158.857 219.249ZM162.326 219.151L161.463 213.278L162.025 213.196L162.888 219.069L162.326 219.151ZM171.099 212.202L171.582 212.131L172.396 217.671L171.834 217.754L171.183 213.322L169.554 217.369L169.277 217.41L166.556 214.026L167.204 218.434L166.642 218.517L165.828 212.977L166.31 212.906L169.32 216.66L171.099 212.202ZM174.922 213.015C175.999 212.856 176.687 213.305 176.846 214.382L177.225 216.962L176.687 217.041L176.591 216.392C176.401 216.857 175.948 217.19 175.26 217.291C174.318 217.429 173.668 217.024 173.562 216.303C173.468 215.662 173.8 215.064 174.996 214.888L176.317 214.694L176.28 214.44C176.175 213.728 175.715 213.4 174.939 213.514C174.401 213.593 173.922 213.857 173.626 214.208L173.311 213.826C173.678 213.408 174.265 213.111 174.922 213.015ZM175.282 216.835C175.915 216.742 176.338 216.373 176.479 215.794L176.379 215.113L175.073 215.305C174.266 215.424 174.051 215.779 174.114 216.206C174.185 216.689 174.617 216.933 175.282 216.835ZM180.256 212.231C181.269 212.082 182.052 212.565 182.227 213.761L182.582 216.175L182.02 216.257L181.673 213.899C181.544 213.02 181.019 212.636 180.227 212.753C179.333 212.884 178.853 213.521 178.992 214.47L179.313 216.655L178.751 216.738L178.139 212.574L178.678 212.495L178.79 213.263C179.017 212.712 179.536 212.337 180.256 212.231ZM184.948 211.541C186.024 211.383 186.713 211.832 186.871 212.908L187.25 215.489L186.712 215.568L186.616 214.919C186.426 215.383 185.974 215.717 185.285 215.818C184.343 215.956 183.693 215.55 183.587 214.83C183.493 214.189 183.826 213.59 185.021 213.415L186.343 213.221L186.305 212.967C186.201 212.255 185.74 211.926 184.964 212.04C184.426 212.119 183.947 212.384 183.651 212.735L183.336 212.352C183.704 211.935 184.291 211.638 184.948 211.541ZM185.307 215.362C185.94 215.269 186.363 214.899 186.504 214.321L186.404 213.64L185.098 213.832C184.291 213.951 184.076 214.306 184.139 214.733C184.21 215.216 184.642 215.46 185.307 215.362ZM191.496 210.611L192.035 210.532L192.572 214.189C192.782 215.622 192.173 216.374 190.796 216.577C190.036 216.688 189.259 216.568 188.763 216.221L188.985 215.751C189.433 216.049 190.066 216.175 190.707 216.08C191.76 215.926 192.172 215.372 192.02 214.343L191.942 213.813C191.672 214.394 191.119 214.758 190.439 214.858C189.251 215.033 188.227 214.334 188.051 213.139C187.876 211.944 188.658 210.996 189.845 210.822C190.542 210.719 191.185 210.916 191.614 211.411L191.496 210.611ZM190.421 214.352C191.339 214.217 191.912 213.494 191.779 212.591C191.647 211.689 190.891 211.169 189.973 211.304C189.055 211.439 188.489 212.153 188.621 213.055C188.754 213.958 189.503 214.487 190.421 214.352ZM197.545 211.849C197.552 211.897 197.553 211.961 197.563 212.025L194.08 212.536C194.271 213.398 195.021 213.878 195.931 213.744C196.438 213.67 196.862 213.421 197.125 213.011L197.495 213.328C197.189 213.826 196.646 214.148 195.989 214.245C194.691 214.436 193.674 213.679 193.492 212.445C193.311 211.21 194.045 210.205 195.216 210.033C196.387 209.86 197.361 210.599 197.545 211.849ZM195.287 210.515C194.48 210.634 193.97 211.291 194.018 212.117L196.971 211.683C196.78 210.878 196.102 210.396 195.287 210.515ZM199.041 210.336C199.221 209.743 199.708 209.372 200.476 209.26L200.556 209.806C200.508 209.813 200.46 209.812 200.42 209.818C199.55 209.946 199.101 210.578 199.245 211.559L199.557 213.68L198.995 213.763L198.383 209.6L198.921 209.52L199.041 210.336Z" fill="#96B3F9"/>
<path d="M140.896 304.66C141.259 306.066 141.197 307.548 140.718 308.919C140.239 310.289 139.364 311.487 138.204 312.361C137.044 313.234 135.651 313.744 134.201 313.826C132.751 313.908 131.31 313.558 130.059 312.821C128.808 312.084 127.804 310.992 127.174 309.684C126.543 308.376 126.315 306.91 126.517 305.472C126.72 304.034 127.344 302.689 128.311 301.606C129.279 300.523 130.545 299.751 131.951 299.388C133.836 298.901 135.838 299.183 137.515 300.171C139.193 301.16 140.409 302.775 140.896 304.66Z" fill="url(#paint4_linear_2293_1286)"/>
<path d="M132.051 306.03C132.693 306.933 133.604 307.61 134.653 307.966L135.302 307.093C135.338 307.04 135.389 306.999 135.449 306.975C135.508 306.952 135.573 306.946 135.636 306.959C136.053 307.027 136.478 307.031 136.896 306.972C136.988 306.959 137.081 306.982 137.155 307.038C137.23 307.093 137.279 307.175 137.293 307.267L137.47 308.471C137.483 308.563 137.459 308.656 137.404 308.73C137.349 308.805 137.266 308.854 137.174 308.868C135.622 309.096 134.043 308.698 132.784 307.762C131.525 306.825 130.69 305.427 130.462 303.875C130.448 303.783 130.472 303.69 130.527 303.616C130.583 303.541 130.665 303.492 130.757 303.478L131.961 303.302C132.052 303.288 132.146 303.312 132.22 303.367C132.295 303.422 132.344 303.505 132.357 303.597C132.415 304.016 132.541 304.422 132.732 304.8C132.758 304.857 132.769 304.92 132.763 304.983C132.758 305.046 132.736 305.106 132.7 305.158L132.051 306.03Z" stroke="white" stroke-width="0.18" stroke-miterlimit="10"/>
<path d="M149.203 302.973L149.251 303.298L148.226 303.449L148.373 304.451L148.026 304.503L147.879 303.5L146.854 303.65L146.806 303.325L147.831 303.174L147.683 302.166L148.03 302.115L148.178 303.123L149.203 302.973ZM151.769 304.763C150.876 304.894 150.124 304.256 149.943 303.027C149.762 301.798 150.299 300.971 151.192 300.84C152.085 300.708 152.843 301.346 153.023 302.575C153.204 303.804 152.661 304.632 151.769 304.763ZM151.715 304.399C152.388 304.301 152.767 303.665 152.616 302.635C152.464 301.604 151.918 301.104 151.246 301.203C150.573 301.302 150.194 301.938 150.345 302.968C150.497 303.999 151.043 304.498 151.715 304.399ZM153.061 300.599L154.367 300.407L154.933 304.264L154.537 304.323L154.022 300.818L153.112 300.951L153.061 300.599ZM157.759 303.489L159.88 303.177L159.932 303.53L157.226 303.927L157.185 303.646L158.558 301.84C158.93 301.346 158.975 301.075 158.936 300.811C158.87 300.364 158.515 300.135 157.926 300.222C157.474 300.288 157.147 300.477 156.936 300.806L156.62 300.605C156.865 300.208 157.316 299.94 157.905 299.853C158.688 299.738 159.242 300.062 159.337 300.707C159.391 301.076 159.324 301.424 158.881 302.007L157.759 303.489ZM161.418 301.06C162.251 300.982 162.728 301.357 162.819 301.974C162.913 302.619 162.518 303.184 161.587 303.32C161.03 303.402 160.467 303.288 160.125 303.029L160.272 302.686C160.558 302.909 161.032 303.03 161.533 302.957C162.172 302.863 162.481 302.513 162.411 302.034C162.343 301.571 161.973 301.316 161.257 301.421L160.981 301.462L160.938 301.169L161.811 299.673L159.838 299.963L159.786 299.61L162.266 299.246L162.307 299.527L161.418 301.06ZM166.619 301.151L166.671 301.504L165.899 301.617L166.048 302.631L165.651 302.689L165.502 301.675L163.325 301.995L163.283 301.709L164.952 298.851L165.393 298.787L163.786 301.567L165.461 301.321L165.33 300.428L165.716 300.372L165.847 301.264L166.619 301.151ZM169.306 299.827C170.469 299.656 170.977 300.049 171.077 300.732C171.173 301.388 170.791 301.968 169.849 302.106C169.292 302.188 168.735 302.073 168.393 301.814L168.54 301.471C168.826 301.694 169.294 301.816 169.79 301.743C170.446 301.647 170.746 301.276 170.677 300.808C170.604 300.312 170.25 300.049 169.269 300.193L168.448 300.314L168.362 298.35L170.473 298.04L170.525 298.393L168.761 298.652L168.81 299.9L169.306 299.827ZM173.006 299.25C173.772 299.137 174.373 299.51 174.477 300.216C174.583 300.938 174.084 301.484 173.334 301.594C172.309 301.745 171.648 301.116 171.469 299.898C171.276 298.586 171.892 297.798 172.939 297.644C173.287 297.593 173.621 297.606 173.885 297.719L173.772 298.062C173.554 297.959 173.282 297.948 172.996 297.99C172.164 298.112 171.708 298.726 171.862 299.773C171.875 299.861 171.896 299.97 171.924 300.084C172.055 299.632 172.472 299.328 173.006 299.25ZM173.268 301.26C173.825 301.179 174.163 300.797 174.087 300.284C174.013 299.777 173.59 299.507 172.995 299.595C172.406 299.681 172.057 300.104 172.127 300.584C172.19 301.008 172.601 301.358 173.268 301.26ZM175.871 297.247L178.704 296.831L178.745 297.112L177.656 300.925L177.226 300.989L178.298 297.25L176.314 297.542L176.42 298.264L176.029 298.321L175.871 297.247ZM181.604 298.279C182.112 298.368 182.431 298.659 182.498 299.116C182.598 299.799 182.082 300.309 181.162 300.444C180.236 300.58 179.611 300.238 179.511 299.555C179.443 299.092 179.66 298.728 180.116 298.498C179.702 298.401 179.444 298.14 179.385 297.738C179.292 297.11 179.769 296.64 180.585 296.52C181.401 296.4 182.004 296.712 182.096 297.34C182.155 297.742 181.978 298.067 181.604 298.279ZM179.783 297.691C179.845 298.115 180.238 298.333 180.839 298.245C181.439 298.157 181.758 297.834 181.696 297.415C181.632 296.98 181.213 296.771 180.634 296.856C180.05 296.942 179.72 297.261 179.783 297.691ZM181.112 300.108C181.796 300.007 182.16 299.65 182.089 299.17C182.02 298.697 181.568 298.459 180.885 298.559C180.201 298.66 179.843 299.016 179.912 299.49C179.983 299.97 180.429 300.208 181.112 300.108Z" fill="#515151"/>
<path d="M143.833 324.173C144.196 325.579 144.135 327.061 143.655 328.431C143.176 329.802 142.301 331 141.142 331.874C139.982 332.747 138.589 333.257 137.139 333.339C135.689 333.421 134.248 333.071 132.997 332.334C131.746 331.596 130.742 330.505 130.111 329.196C129.481 327.888 129.252 326.423 129.455 324.985C129.657 323.547 130.282 322.201 131.249 321.118C132.216 320.035 133.483 319.264 134.889 318.9C136.774 318.413 138.776 318.695 140.453 319.684C142.13 320.673 143.346 322.287 143.833 324.173Z" fill="url(#paint5_linear_2293_1286)"/>
<path d="M136.276 322.951C135.612 323.049 135.014 323.406 134.613 323.945C134.213 324.484 134.042 325.159 134.14 325.824C134.416 327.705 137.327 330.104 137.327 330.104C137.327 330.104 139.425 326.969 139.148 325.088C139.051 324.423 138.693 323.825 138.155 323.425C137.616 323.024 136.94 322.854 136.276 322.951V322.951ZM136.776 326.355C136.599 326.381 136.417 326.354 136.254 326.277C136.092 326.2 135.956 326.076 135.864 325.922C135.772 325.768 135.727 325.589 135.736 325.41C135.745 325.23 135.808 325.057 135.915 324.913C136.022 324.769 136.17 324.66 136.339 324.599C136.509 324.539 136.692 324.53 136.866 324.574C137.041 324.618 137.198 324.713 137.319 324.846C137.439 324.979 137.517 325.146 137.544 325.323C137.579 325.562 137.517 325.805 137.374 325.998C137.23 326.192 137.015 326.32 136.776 326.355V326.355Z" stroke="white" stroke-width="0.18" stroke-miterlimit="10"/>
<path d="M150.355 324.609L149.788 320.752L150.196 320.692L150.711 324.197L152.871 323.879L152.923 324.232L150.355 324.609ZM154.663 324.004C153.815 324.129 153.096 323.604 152.97 322.745C152.843 321.885 153.382 321.181 154.23 321.056C155.079 320.931 155.791 321.452 155.918 322.311C156.044 323.171 155.512 323.88 154.663 324.004ZM154.612 323.657C155.23 323.567 155.621 323.048 155.521 322.37C155.421 321.692 154.898 321.307 154.28 321.398C153.663 321.489 153.267 322.008 153.366 322.686C153.466 323.364 153.995 323.748 154.612 323.657ZM156.962 321.257C157.087 320.845 157.426 320.587 157.961 320.508L158.017 320.888C157.984 320.893 157.95 320.892 157.922 320.897C157.316 320.986 157.003 321.426 157.104 322.109L157.321 323.586L156.93 323.643L156.504 320.745L156.878 320.69L156.962 321.257ZM161.388 321.508C161.393 321.541 161.394 321.586 161.4 321.63L158.976 321.986C159.109 322.586 159.631 322.92 160.264 322.827C160.617 322.775 160.913 322.602 161.096 322.316L161.354 322.537C161.14 322.884 160.762 323.108 160.304 323.176C159.401 323.308 158.693 322.782 158.566 321.922C158.44 321.062 158.951 320.363 159.767 320.243C160.582 320.123 161.26 320.637 161.388 321.508ZM159.816 320.579C159.254 320.661 158.899 321.119 158.933 321.694L160.988 321.392C160.855 320.831 160.384 320.495 159.816 320.579ZM165.583 319.388C166.289 319.284 166.812 319.624 166.934 320.456L167.181 322.137L166.79 322.194L166.548 320.552C166.458 319.941 166.104 319.672 165.58 319.749C164.985 319.836 164.667 320.277 164.764 320.938L164.987 322.459L164.596 322.517L164.355 320.875C164.265 320.263 163.91 319.994 163.381 320.072C162.792 320.158 162.468 320.6 162.565 321.261L162.789 322.782L162.397 322.84L161.971 319.941L162.346 319.886L162.424 320.415C162.577 320.038 162.922 319.779 163.407 319.708C163.886 319.637 164.291 319.786 164.527 320.168C164.681 319.763 165.06 319.465 165.583 319.388ZM172.649 321.333L172.035 320.371L169.885 320.687L169.574 321.785L169.15 321.848L170.346 317.731L170.748 317.672L173.079 321.27L172.649 321.333ZM169.986 320.334L171.837 320.062L170.607 318.126L169.986 320.334ZM175.26 316.772L175.652 316.715L176.253 320.804L175.878 320.859L175.794 320.286C175.614 320.712 175.243 320.98 174.763 321.051C173.937 321.172 173.231 320.662 173.102 319.786C172.974 318.91 173.503 318.224 174.33 318.103C174.793 318.035 175.219 318.175 175.516 318.514L175.26 316.772ZM174.745 320.699C175.357 320.609 175.753 320.089 175.654 319.411C175.554 318.733 175.025 318.35 174.413 318.439C173.796 318.53 173.399 319.05 173.499 319.728C173.599 320.406 174.128 320.79 174.745 320.699ZM178.995 316.224L179.387 316.166L179.987 320.255L179.613 320.31L179.528 319.737C179.349 320.163 178.978 320.432 178.498 320.502C177.671 320.624 176.966 320.114 176.837 319.237C176.708 318.361 177.238 317.675 178.065 317.554C178.528 317.486 178.954 317.626 179.251 317.965L178.995 316.224ZM178.48 320.15C179.092 320.06 179.488 319.54 179.389 318.862C179.289 318.185 178.76 317.801 178.148 317.891C177.531 317.981 177.134 318.501 177.234 319.179C177.334 319.857 177.863 320.241 178.48 320.15ZM181.109 317.709C181.234 317.296 181.574 317.038 182.108 316.96L182.164 317.34C182.131 317.345 182.097 317.344 182.07 317.348C181.463 317.437 181.151 317.877 181.251 318.561L181.468 320.037L181.077 320.095L180.651 317.196L181.026 317.141L181.109 317.709ZM185.536 317.959C185.54 317.992 185.541 318.037 185.548 318.081L183.123 318.437C183.256 319.037 183.778 319.371 184.412 319.278C184.765 319.227 185.06 319.054 185.243 318.768L185.501 318.989C185.287 319.335 184.909 319.56 184.452 319.627C183.548 319.76 182.84 319.233 182.714 318.374C182.588 317.514 183.098 316.814 183.914 316.694C184.73 316.574 185.408 317.088 185.536 317.959ZM183.963 317.03C183.401 317.113 183.046 317.571 183.08 318.145L185.136 317.843C185.003 317.283 184.531 316.947 183.963 317.03ZM187.326 319.205C186.847 319.275 186.361 319.189 186.094 319.02L186.225 318.685C186.483 318.833 186.896 318.919 187.303 318.859C187.854 318.778 188.053 318.558 188.011 318.271C187.9 317.516 186.108 318.387 185.94 317.241C185.87 316.767 186.226 316.355 186.964 316.246C187.339 316.191 187.762 316.236 188.029 316.365L187.904 316.705C187.625 316.566 187.311 316.538 187.014 316.582C186.49 316.659 186.289 316.897 186.329 317.173C186.444 317.955 188.237 317.089 188.4 318.202C188.474 318.704 188.081 319.094 187.326 319.205ZM190.022 318.809C189.543 318.879 189.057 318.793 188.79 318.624L188.921 318.289C189.179 318.437 189.592 318.523 190 318.463C190.551 318.382 190.749 318.161 190.707 317.875C190.596 317.12 188.804 317.991 188.636 316.845C188.566 316.371 188.922 315.958 189.661 315.85C190.035 315.795 190.458 315.839 190.725 315.969L190.601 316.308C190.321 316.169 190.008 316.142 189.71 316.186C189.186 316.263 188.985 316.501 189.025 316.776C189.14 317.559 190.933 316.693 191.097 317.806C191.17 318.308 190.777 318.698 190.022 318.809ZM191.897 317.919C192.068 317.894 192.209 318.009 192.233 318.174C192.247 318.268 192.235 318.343 192.203 318.505L192.083 319.3L191.819 319.338L191.889 318.512C191.768 318.496 191.67 318.403 191.649 318.26C191.624 318.089 191.732 317.944 191.897 317.919ZM194.63 318.103L194.063 314.246L194.471 314.186L194.986 317.691L197.146 317.373L197.198 317.726L194.63 318.103ZM198.938 317.498C198.09 317.623 197.371 317.098 197.244 316.239C197.118 315.379 197.656 314.675 198.505 314.55C199.354 314.425 200.066 314.946 200.193 315.805C200.319 316.665 199.787 317.374 198.938 317.498ZM198.887 317.151C199.505 317.061 199.896 316.541 199.796 315.864C199.696 315.186 199.173 314.801 198.555 314.892C197.938 314.982 197.542 315.502 197.641 316.18C197.741 316.858 198.27 317.242 198.887 317.151ZM201.237 314.751C201.362 314.339 201.701 314.08 202.236 314.002L202.292 314.382C202.259 314.387 202.225 314.386 202.197 314.39C201.591 314.479 201.278 314.919 201.379 315.603L201.596 317.08L201.205 317.137L200.779 314.239L201.153 314.183L201.237 314.751ZM205.663 315.001C205.668 315.034 205.669 315.079 205.675 315.123L203.25 315.48C203.384 316.08 203.906 316.414 204.539 316.321C204.892 316.269 205.188 316.096 205.371 315.81L205.628 316.031C205.415 316.378 205.037 316.602 204.579 316.669C203.676 316.802 202.968 316.276 202.841 315.416C202.715 314.556 203.226 313.856 204.041 313.737C204.857 313.617 205.535 314.131 205.663 315.001ZM204.091 314.073C203.529 314.155 203.174 314.613 203.208 315.188L205.263 314.886C205.13 314.325 204.658 313.989 204.091 314.073ZM209.858 312.882C210.564 312.778 211.086 313.118 211.209 313.95L211.456 315.631L211.064 315.688L210.823 314.046C210.733 313.434 210.378 313.166 209.855 313.243C209.26 313.33 208.942 313.771 209.039 314.432L209.262 315.953L208.871 316.011L208.63 314.368C208.54 313.757 208.185 313.488 207.656 313.566C207.066 313.652 206.743 314.094 206.84 314.755L207.064 316.276L206.672 316.334L206.246 313.435L206.621 313.38L206.699 313.909C206.852 313.532 207.196 313.273 207.681 313.202C208.161 313.131 208.566 313.28 208.802 313.662C208.956 313.256 209.335 312.959 209.858 312.882ZM214.042 315.251L213.475 311.393L213.883 311.333L214.45 315.191L214.042 315.251ZM216.686 311.878C217.513 311.757 218.218 312.261 218.346 313.138C218.476 314.019 217.946 314.705 217.119 314.827C216.657 314.895 216.231 314.755 215.933 314.416L216.17 316.03L215.779 316.088L215.196 312.12L215.571 312.065L215.655 312.638C215.835 312.217 216.207 311.949 216.686 311.878ZM217.041 314.484C217.653 314.394 218.055 313.873 217.955 313.195C217.856 312.523 217.321 312.134 216.709 312.224C216.092 312.315 215.696 312.84 215.795 313.513C215.894 314.19 216.424 314.574 217.041 314.484ZM220.138 314.383C219.658 314.454 219.173 314.367 218.906 314.198L219.037 313.864C219.295 314.012 219.707 314.097 220.115 314.037C220.666 313.956 220.865 313.736 220.823 313.449C220.712 312.694 218.92 313.566 218.752 312.419C218.682 311.945 219.038 311.533 219.776 311.424C220.151 311.369 220.574 311.414 220.841 311.544L220.716 311.883C220.437 311.744 220.123 311.717 219.826 311.76C219.302 311.837 219.101 312.075 219.141 312.351C219.256 313.133 221.049 312.268 221.212 313.381C221.286 313.882 220.893 314.272 220.138 314.383ZM223.848 310.849L224.239 310.791L224.665 313.69L224.29 313.745L224.213 313.216C224.061 313.598 223.716 313.857 223.253 313.925C222.515 314.034 221.969 313.692 221.847 312.86L221.6 311.179L221.991 311.121L222.232 312.764C222.323 313.381 222.689 313.648 223.24 313.567C223.846 313.478 224.169 313.031 224.071 312.37L223.848 310.849ZM228.947 310.077C229.652 309.973 230.175 310.313 230.297 311.145L230.544 312.826L230.153 312.883L229.912 311.241C229.822 310.629 229.467 310.361 228.944 310.438C228.348 310.525 228.03 310.966 228.128 311.627L228.351 313.148L227.96 313.206L227.719 311.563C227.629 310.952 227.274 310.683 226.745 310.761C226.155 310.847 225.832 311.289 225.929 311.95L226.152 313.471L225.761 313.529L225.335 310.63L225.71 310.575L225.788 311.104C225.94 310.727 226.285 310.468 226.77 310.397C227.25 310.326 227.654 310.475 227.891 310.857C228.045 310.451 228.423 310.154 228.947 310.077ZM232.757 312.534C232.178 312.62 231.58 312.499 231.25 312.244L231.364 311.906C231.679 312.135 232.199 312.262 232.706 312.187C233.428 312.081 233.697 311.732 233.641 311.352C233.486 310.294 231.206 311.293 230.996 309.866C230.913 309.298 231.282 308.743 232.263 308.599C232.698 308.535 233.169 308.595 233.509 308.765L233.419 309.11C233.057 308.944 232.655 308.896 232.314 308.946C231.608 309.049 231.34 309.41 231.397 309.796C231.553 310.854 233.834 309.865 234.04 311.271C234.124 311.838 233.743 312.39 232.757 312.534ZM234.675 308.61C234.515 308.634 234.37 308.525 234.347 308.371C234.326 308.222 234.434 308.077 234.593 308.053C234.753 308.03 234.898 308.133 234.92 308.281C234.943 308.441 234.841 308.586 234.675 308.61ZM234.996 312.172L234.57 309.273L234.961 309.215L235.387 312.114L234.996 312.172ZM237.797 311.293L237.977 311.554C237.842 311.714 237.621 311.814 237.395 311.847C236.849 311.927 236.501 311.663 236.422 311.129L236.165 309.376L235.647 309.453L235.598 309.122L236.116 309.046L236.023 308.412L236.414 308.355L236.507 308.988L237.389 308.859L237.438 309.189L236.556 309.319L236.81 311.049C236.86 311.391 237.064 311.552 237.389 311.505C237.549 311.481 237.702 311.408 237.797 311.293ZM243.122 310.978L242.507 310.015L240.358 310.331L240.047 311.429L239.622 311.492L240.819 307.375L241.221 307.316L243.552 310.914L243.122 310.978ZM240.458 309.978L242.31 309.706L241.08 307.77L240.458 309.978ZM247.293 307.381C247.998 307.277 248.521 307.617 248.644 308.449L248.89 310.13L248.499 310.187L248.258 308.545C248.168 307.933 247.813 307.665 247.29 307.742C246.695 307.829 246.377 308.27 246.474 308.931L246.697 310.452L246.306 310.51L246.065 308.867C245.975 308.256 245.62 307.987 245.091 308.065C244.501 308.151 244.178 308.593 244.275 309.254L244.498 310.775L244.107 310.833L243.681 307.934L244.056 307.879L244.134 308.408C244.287 308.031 244.631 307.772 245.116 307.701C245.596 307.63 246 307.779 246.237 308.161C246.391 307.755 246.769 307.458 247.293 307.381ZM252.279 308.151C252.284 308.184 252.285 308.229 252.291 308.273L249.866 308.63C250 309.229 250.522 309.564 251.155 309.471C251.508 309.419 251.803 309.246 251.987 308.96L252.244 309.181C252.031 309.528 251.653 309.752 251.195 309.819C250.292 309.952 249.584 309.426 249.457 308.566C249.331 307.706 249.842 307.006 250.657 306.886C251.473 306.767 252.151 307.281 252.279 308.151ZM250.707 307.223C250.145 307.305 249.79 307.763 249.823 308.338L251.879 308.036C251.746 307.475 251.274 307.139 250.707 307.223ZM254.61 308.822L254.789 309.083C254.655 309.243 254.433 309.344 254.207 309.377C253.661 309.457 253.313 309.193 253.234 308.658L252.977 306.906L252.459 306.982L252.41 306.651L252.928 306.575L252.835 305.941L253.227 305.884L253.32 306.518L254.201 306.388L254.25 306.719L253.368 306.848L253.623 308.579C253.673 308.92 253.877 309.082 254.202 309.034C254.362 309.011 254.514 308.938 254.61 308.822Z" fill="#515151"/>
<path d="M143.746 259.225L144.104 259.172L143.433 262.232L143.064 262.286L141.8 260.045L141.235 262.555L140.865 262.609L139.348 259.871L139.723 259.816L140.994 262.145L141.564 259.545L141.9 259.496L143.188 261.823L143.746 259.225ZM148.562 258.517L148.921 258.464L148.25 261.524L147.881 261.578L146.617 259.338L146.051 261.847L145.682 261.901L144.165 259.163L144.54 259.108L145.811 261.438L146.38 258.837L146.716 258.788L148.004 261.115L148.562 258.517ZM153.379 257.809L153.737 257.756L153.067 260.816L152.697 260.87L151.434 258.63L150.868 261.139L150.499 261.194L148.981 258.455L149.356 258.4L150.627 260.73L151.197 258.13L151.533 258.08L152.821 260.408L153.379 257.809ZM154.607 260.618C154.447 260.642 154.295 260.529 154.27 260.358C154.245 260.187 154.359 260.041 154.518 260.017C154.678 259.994 154.835 260.1 154.86 260.271C154.885 260.442 154.766 260.595 154.607 260.618ZM159.014 256.981L159.372 256.928L158.701 259.988L158.332 260.042L157.068 257.802L156.502 260.311L156.133 260.366L154.616 257.627L154.991 257.572L156.262 259.902L156.831 257.302L157.168 257.252L158.455 259.58L159.014 256.981ZM162.623 257.931C162.628 257.964 162.629 258.009 162.635 258.053L160.21 258.41C160.343 259.009 160.865 259.344 161.499 259.251C161.852 259.199 162.147 259.026 162.331 258.74L162.588 258.961C162.375 259.308 161.997 259.532 161.539 259.599C160.635 259.732 159.927 259.206 159.801 258.346C159.675 257.486 160.186 256.786 161.001 256.666C161.817 256.547 162.495 257.061 162.623 257.931ZM161.051 257.003C160.489 257.085 160.134 257.543 160.167 258.118L162.223 257.816C162.09 257.255 161.618 256.919 161.051 257.003ZM164.696 256.123C165.523 256.002 166.228 256.506 166.356 257.383C166.485 258.259 165.956 258.95 165.13 259.072C164.65 259.142 164.217 258.992 163.923 258.635L164.007 259.209L163.632 259.264L163.031 255.175L163.422 255.117L163.678 256.859C163.866 256.448 164.233 256.191 164.696 256.123ZM165.051 258.729C165.663 258.639 166.065 258.118 165.965 257.44C165.865 256.762 165.331 256.379 164.719 256.469C164.102 256.56 163.705 257.08 163.805 257.758C163.904 258.435 164.434 258.819 165.051 258.729ZM168.148 258.628C167.669 258.699 167.183 258.612 166.916 258.443L167.047 258.109C167.305 258.257 167.718 258.342 168.125 258.282C168.676 258.201 168.875 257.981 168.833 257.694C168.722 256.939 166.93 257.811 166.762 256.664C166.692 256.19 167.048 255.778 167.786 255.669C168.161 255.614 168.584 255.659 168.851 255.789L168.726 256.128C168.447 255.989 168.133 255.962 167.836 256.006C167.312 256.082 167.111 256.32 167.151 256.596C167.266 257.378 169.059 256.513 169.222 257.626C169.296 258.127 168.903 258.517 168.148 258.628ZM169.742 254.757C169.583 254.78 169.437 254.672 169.415 254.518C169.393 254.369 169.501 254.224 169.661 254.2C169.82 254.177 169.965 254.28 169.987 254.428C170.01 254.588 169.908 254.733 169.742 254.757ZM170.063 258.319L169.637 255.42L170.028 255.362L170.454 258.261L170.063 258.319ZM172.865 257.44L173.044 257.7C172.91 257.861 172.688 257.961 172.462 257.994C171.916 258.074 171.568 257.81 171.489 257.276L171.232 255.523L170.714 255.599L170.665 255.269L171.183 255.193L171.09 254.559L171.481 254.501L171.575 255.135L172.456 255.006L172.505 255.336L171.623 255.466L171.877 257.196C171.928 257.538 172.132 257.699 172.457 257.652C172.616 257.628 172.769 257.555 172.865 257.44ZM175.996 255.966C176.001 255.999 176.002 256.044 176.008 256.088L173.584 256.444C173.717 257.044 174.239 257.378 174.873 257.285C175.225 257.233 175.521 257.061 175.704 256.775L175.962 256.996C175.748 257.342 175.37 257.567 174.913 257.634C174.009 257.767 173.301 257.24 173.175 256.381C173.048 255.521 173.559 254.821 174.375 254.701C175.19 254.581 175.868 255.095 175.996 255.966ZM174.424 255.037C173.862 255.12 173.507 255.578 173.541 256.152L175.596 255.85C175.463 255.29 174.992 254.954 174.424 255.037ZM177.048 257.32C176.888 257.344 176.737 257.231 176.712 257.06C176.686 256.889 176.8 256.743 176.96 256.72C177.12 256.696 177.276 256.803 177.301 256.973C177.326 257.144 177.208 257.297 177.048 257.32ZM179.298 256.99C178.433 257.117 177.715 256.597 177.588 255.732C177.46 254.867 178 254.169 178.865 254.041C179.355 253.969 179.797 254.101 180.084 254.448L179.821 254.689C179.58 254.426 179.251 254.334 178.915 254.383C178.281 254.476 177.885 254.996 177.984 255.674C178.085 256.357 178.613 256.736 179.247 256.643C179.583 256.593 179.872 256.416 180.028 256.094L180.349 256.25C180.173 256.659 179.788 256.918 179.298 256.99ZM182.338 256.543C181.49 256.668 180.771 256.143 180.644 255.283C180.518 254.423 181.056 253.719 181.905 253.595C182.754 253.47 183.466 253.99 183.593 254.85C183.719 255.71 183.187 256.418 182.338 256.543ZM182.287 256.196C182.904 256.105 183.295 255.586 183.196 254.908C183.096 254.23 182.572 253.846 181.955 253.936C181.338 254.027 180.941 254.547 181.041 255.225C181.141 255.903 181.67 256.286 182.287 256.196ZM187.79 252.73C188.496 252.626 189.019 252.966 189.141 253.798L189.388 255.479L188.997 255.536L188.755 253.894C188.665 253.282 188.311 253.014 187.787 253.091C187.192 253.178 186.874 253.619 186.971 254.28L187.194 255.801L186.803 255.859L186.562 254.216C186.472 253.605 186.117 253.336 185.588 253.414C184.999 253.5 184.675 253.942 184.772 254.603L184.996 256.124L184.604 256.182L184.178 253.283L184.553 253.228L184.631 253.757C184.784 253.38 185.129 253.121 185.614 253.05C186.093 252.979 186.498 253.128 186.734 253.51C186.888 253.104 187.267 252.807 187.79 252.73Z" fill="#515151"/>
<path d="M134.367 263.216C134.73 264.622 134.669 266.104 134.189 267.475C133.71 268.845 132.835 270.043 131.676 270.917C130.516 271.79 129.123 272.3 127.673 272.382C126.223 272.464 124.782 272.114 123.531 271.377C122.28 270.64 121.276 269.548 120.645 268.24C120.015 266.932 119.786 265.466 119.989 264.028C120.191 262.59 120.816 261.245 121.783 260.162C122.75 259.079 124.017 258.307 125.423 257.944C126.356 257.701 127.329 257.644 128.284 257.778C129.239 257.912 130.159 258.233 130.99 258.722C131.821 259.212 132.547 259.861 133.127 260.633C133.706 261.404 134.128 262.282 134.367 263.216Z" fill="url(#paint6_linear_2293_1286)"/>
<path d="M131.311 264.444C131.432 265.264 131.306 266.103 130.95 266.852C130.595 267.602 130.024 268.229 129.312 268.655C128.6 269.08 127.777 269.285 126.949 269.243C126.12 269.202 125.322 268.915 124.657 268.42C123.991 267.925 123.487 267.243 123.208 266.461C122.93 265.68 122.889 264.833 123.092 264.029C123.295 263.224 123.732 262.498 124.347 261.941C124.963 261.385 125.729 261.023 126.55 260.903C127.651 260.741 128.771 261.023 129.664 261.687C130.557 262.351 131.149 263.343 131.311 264.444V264.444Z" stroke="white" stroke-width="0.18" stroke-miterlimit="10"/>
<path d="M129.374 264.728C129.707 266.997 129.015 269.021 127.812 269.198C126.608 269.375 125.369 267.677 125.029 265.367C124.69 263.056 125.388 261.074 126.592 260.897C127.795 260.72 129.04 262.459 129.374 264.728Z" stroke="white" stroke-width="0.18" stroke-miterlimit="10"/>
<path d="M129.666 261.716C129.347 262.157 128.942 262.529 128.476 262.811C128.01 263.094 127.493 263.28 126.954 263.359C126.415 263.438 125.865 263.409 125.338 263.273C124.811 263.136 124.316 262.896 123.883 262.565" stroke="white" stroke-width="0.18" stroke-miterlimit="10"/>
<path d="M124.739 268.391C125.059 267.95 125.463 267.577 125.929 267.295C126.395 267.012 126.913 266.826 127.451 266.747C127.99 266.668 128.54 266.697 129.067 266.834C129.594 266.97 130.089 267.21 130.522 267.541" stroke="white" stroke-width="0.18" stroke-miterlimit="10"/>
<path d="M123.106 265.649L131.311 264.444" stroke="white" stroke-width="0.18" stroke-miterlimit="10"/>
<path d="M126.598 260.938L127.805 269.156" stroke="white" stroke-width="0.18" stroke-miterlimit="10"/>
<path d="M149.743 279.715L150.101 279.662L149.43 282.722L149.061 282.776L147.797 280.536L147.231 283.045L146.862 283.099L145.345 280.361L145.72 280.306L146.991 282.636L147.56 280.036L147.897 279.986L149.184 282.313L149.743 279.715ZM153.352 280.665C153.357 280.698 153.358 280.743 153.364 280.787L150.939 281.143C151.072 281.743 151.594 282.077 152.228 281.984C152.581 281.932 152.876 281.76 153.06 281.474L153.317 281.695C153.104 282.041 152.726 282.266 152.268 282.333C151.364 282.466 150.657 281.939 150.53 281.08C150.404 280.22 150.915 279.52 151.73 279.4C152.546 279.28 153.224 279.794 153.352 280.665ZM151.78 279.736C151.218 279.819 150.863 280.277 150.896 280.851L152.952 280.549C152.819 279.989 152.347 279.653 151.78 279.736ZM155.425 278.857C156.252 278.736 156.957 279.24 157.085 280.116C157.214 280.993 156.685 281.684 155.859 281.806C155.379 281.876 154.946 281.726 154.652 281.369L154.736 281.942L154.361 281.997L153.76 277.908L154.152 277.851L154.407 279.592C154.595 279.182 154.962 278.925 155.425 278.857ZM155.78 281.462C156.392 281.373 156.794 280.852 156.694 280.174C156.595 279.496 156.06 279.113 155.448 279.203C154.831 279.294 154.434 279.814 154.534 280.491C154.634 281.169 155.163 281.553 155.78 281.462ZM158.877 281.362C158.398 281.432 157.912 281.346 157.645 281.177L157.776 280.843C158.034 280.99 158.447 281.076 158.854 281.016C159.406 280.935 159.604 280.715 159.562 280.428C159.451 279.673 157.659 280.544 157.491 279.398C157.421 278.924 157.777 278.512 158.515 278.403C158.89 278.348 159.313 278.393 159.58 278.523L159.455 278.862C159.176 278.723 158.862 278.696 158.565 278.739C158.041 278.816 157.84 279.054 157.88 279.33C157.995 280.112 159.788 279.246 159.951 280.36C160.025 280.861 159.632 281.251 158.877 281.362ZM160.472 277.491C160.312 277.514 160.166 277.406 160.144 277.252C160.122 277.103 160.23 276.958 160.39 276.934C160.55 276.911 160.694 277.013 160.716 277.162C160.739 277.322 160.637 277.467 160.472 277.491ZM160.792 281.052L160.366 278.154L160.758 278.096L161.183 280.995L160.792 281.052ZM163.594 280.173L163.773 280.434C163.639 280.595 163.417 280.695 163.191 280.728C162.645 280.808 162.297 280.544 162.218 280.01L161.961 278.257L161.443 278.333L161.394 278.003L161.912 277.927L161.819 277.293L162.21 277.235L162.304 277.869L163.185 277.739L163.234 278.07L162.352 278.2L162.606 279.93C162.657 280.272 162.861 280.433 163.186 280.385C163.346 280.362 163.498 280.289 163.594 280.173ZM166.725 278.7C166.73 278.733 166.731 278.778 166.737 278.822L164.313 279.178C164.446 279.778 164.968 280.112 165.602 280.019C165.954 279.967 166.25 279.794 166.433 279.509L166.691 279.73C166.477 280.076 166.099 280.301 165.642 280.368C164.738 280.501 164.03 279.974 163.904 279.115C163.777 278.255 164.288 277.555 165.104 277.435C165.919 277.315 166.597 277.829 166.725 278.7ZM165.153 277.771C164.591 277.854 164.236 278.311 164.27 278.886L166.325 278.584C166.192 278.024 165.721 277.688 165.153 277.771ZM167.777 280.054C167.617 280.078 167.466 279.965 167.441 279.794C167.415 279.623 167.529 279.477 167.689 279.453C167.849 279.43 168.005 279.536 168.03 279.707C168.055 279.878 167.937 280.031 167.777 280.054ZM170.027 279.724C169.162 279.851 168.444 279.331 168.317 278.466C168.189 277.601 168.729 276.902 169.594 276.775C170.084 276.703 170.526 276.835 170.813 277.182L170.55 277.423C170.309 277.16 169.98 277.067 169.644 277.117C169.01 277.21 168.614 277.73 168.713 278.408C168.814 279.091 169.342 279.469 169.976 279.376C170.312 279.327 170.601 279.149 170.757 278.828L171.078 278.984C170.902 279.392 170.518 279.651 170.027 279.724ZM173.067 279.277C172.219 279.401 171.5 278.877 171.373 278.017C171.247 277.157 171.785 276.453 172.634 276.328C173.483 276.204 174.195 276.724 174.322 277.584C174.448 278.443 173.916 279.152 173.067 279.277ZM173.016 278.93C173.634 278.839 174.024 278.32 173.925 277.642C173.825 276.964 173.301 276.579 172.684 276.67C172.067 276.761 171.671 277.281 171.77 277.959C171.87 278.636 172.399 279.02 173.016 278.93ZM178.519 275.464C179.225 275.36 179.748 275.7 179.87 276.532L180.117 278.213L179.726 278.27L179.484 276.628C179.394 276.016 179.04 275.747 178.516 275.824C177.921 275.912 177.603 276.353 177.7 277.014L177.924 278.535L177.532 278.592L177.291 276.95C177.201 276.339 176.846 276.07 176.317 276.148C175.728 276.234 175.404 276.676 175.501 277.337L175.725 278.858L175.333 278.916L174.908 276.017L175.282 275.962L175.36 276.491C175.513 276.114 175.858 275.855 176.343 275.783C176.822 275.713 177.227 275.862 177.463 276.244C177.617 275.838 177.996 275.541 178.519 275.464Z" fill="#515151"/>
<path d="M137.214 282.586C137.577 283.992 137.515 285.474 137.036 286.845C136.557 288.216 135.682 289.413 134.522 290.287C133.362 291.161 131.969 291.67 130.519 291.752C129.07 291.834 127.628 291.484 126.377 290.747C125.126 290.01 124.122 288.918 123.492 287.61C122.861 286.302 122.633 284.836 122.835 283.398C123.038 281.961 123.662 280.615 124.629 279.532C125.597 278.449 126.863 277.677 128.269 277.314C129.203 277.071 130.175 277.015 131.13 277.148C132.086 277.282 133.005 277.603 133.836 278.093C134.667 278.582 135.393 279.232 135.973 280.003C136.553 280.774 136.974 281.652 137.214 282.586Z" fill="url(#paint7_linear_2293_1286)"/>
<path d="M132.109 281.415L127.211 282.134C126.791 282.196 126.5 282.587 126.562 283.007L127.115 286.77C127.176 287.191 127.567 287.481 127.987 287.419L132.885 286.7C133.306 286.638 133.596 286.247 133.534 285.827L132.981 282.064C132.92 281.643 132.529 281.353 132.109 281.415Z" stroke="white" stroke-width="0.18" stroke-miterlimit="10"/>
<path d="M126.562 283.007L130.048 284.417L132.981 282.063" stroke="white" stroke-width="0.18" stroke-miterlimit="10"/>
<path d="M239.444 404.428C244.655 403.662 248.259 398.816 247.493 393.605C246.727 388.394 241.882 384.79 236.671 385.556C231.459 386.322 227.856 391.167 228.621 396.378C229.387 401.59 234.233 405.193 239.444 404.428Z" fill="url(#paint8_linear_2293_1286)"/>
<path d="M243.244 391.331C243.137 391.094 242.972 390.889 242.764 390.734C242.556 390.579 242.311 390.48 242.054 390.446C238.97 390.56 235.908 391.01 232.922 391.788C232.686 391.894 232.48 392.059 232.325 392.268C232.17 392.476 232.071 392.72 232.037 392.978C232.013 393.915 232.071 394.852 232.209 395.779C232.342 396.707 232.557 397.622 232.85 398.512C232.954 398.752 233.119 398.962 233.328 399.119C233.537 399.277 233.783 399.377 234.043 399.411C237.124 399.279 240.184 398.829 243.174 398.069C243.413 397.962 243.62 397.795 243.775 397.584C243.93 397.373 244.027 397.125 244.057 396.865C244.082 395.928 244.025 394.991 243.886 394.063C243.751 393.136 243.536 392.222 243.244 391.331ZM237.122 396.895L236.617 393.464L239.917 394.76L237.122 396.895Z" fill="white"/>
<path d="M169.837 414.275C175.048 413.509 178.652 408.664 177.886 403.453C177.121 398.241 172.275 394.638 167.064 395.403C161.853 396.169 158.249 401.015 159.015 406.226C159.78 411.437 164.626 415.041 169.837 414.275Z" fill="url(#paint9_linear_2293_1286)"/>
<path d="M163.556 409.431C164.63 409.918 165.818 410.101 166.988 409.958C168.159 409.815 169.268 409.352 170.193 408.62C171.118 407.889 171.823 406.916 172.232 405.81C172.64 404.703 172.736 403.506 172.509 402.348C172.903 401.972 173.226 401.527 173.46 401.035C173.075 401.269 172.659 401.449 172.225 401.57C172.646 401.221 172.931 400.734 173.026 400.195C172.634 400.511 172.194 400.762 171.722 400.937C171.478 400.748 171.199 400.609 170.901 400.529C170.603 400.449 170.291 400.429 169.985 400.472C169.646 400.521 169.321 400.646 169.037 400.839C168.753 401.031 168.516 401.286 168.345 401.583C168.173 401.881 168.072 402.213 168.048 402.556C168.024 402.898 168.078 403.242 168.206 403.56C167.31 403.648 166.406 403.546 165.553 403.26C164.699 402.973 163.916 402.51 163.255 401.899C163.041 402.434 163.039 403.03 163.249 403.566C163.459 404.102 163.866 404.539 164.386 404.786C164.031 404.825 163.671 404.781 163.335 404.658C163.403 405.181 163.653 405.663 164.042 406.02C164.43 406.377 164.932 406.584 165.459 406.607C165.14 406.739 164.793 406.79 164.449 406.755C164.657 407.179 164.992 407.527 165.408 407.75C165.823 407.973 166.299 408.06 166.766 407.998C166.354 408.439 165.857 408.792 165.306 409.038C164.755 409.284 164.16 409.418 163.556 409.431Z" fill="white"/>
<path d="M193.026 410.867C198.237 410.101 201.841 405.256 201.075 400.045C200.31 394.833 195.464 391.229 190.253 391.995C185.042 392.761 181.438 397.606 182.204 402.818C182.969 408.029 187.815 411.633 193.026 410.867Z" fill="url(#paint10_linear_2293_1286)"/>
<path d="M190.616 406.584L192.511 406.305L191.812 401.546L193.195 401.343L193.098 399.717L191.631 399.933L191.499 399.034C191.444 398.66 191.505 398.496 191.864 398.443L192.888 398.292L192.644 396.632L191.33 396.825C189.946 397.028 189.374 397.749 189.551 398.952L189.736 400.211L188.74 400.358L188.977 401.977L189.974 401.83L190.616 406.584Z" fill="white"/>
<path d="M216.269 407.833C221.48 407.067 225.084 402.222 224.318 397.01C223.553 391.799 218.707 388.195 213.496 388.961C208.285 389.727 204.681 394.572 205.447 399.784C206.212 404.995 211.058 408.599 216.269 407.833Z" fill="url(#paint11_linear_2293_1286)"/>
<path d="M214.27 394.713C215.529 394.528 215.654 394.51 216.18 394.433C216.477 394.393 216.779 394.401 217.074 394.457C217.294 394.503 217.501 394.598 217.68 394.735C217.858 394.863 218.004 395.03 218.105 395.224C218.251 395.488 218.35 395.774 218.399 396.071C218.473 396.57 218.495 396.722 218.68 397.981C218.865 399.24 218.883 399.364 218.96 399.89C219.001 400.193 218.989 400.501 218.925 400.8C218.883 401.015 218.792 401.217 218.658 401.39C218.527 401.571 218.355 401.717 218.155 401.818C217.895 401.969 217.607 402.069 217.308 402.112C216.81 402.185 216.658 402.207 215.399 402.392C214.14 402.577 214.015 402.596 213.489 402.673C213.191 402.718 212.887 402.705 212.593 402.635C212.374 402.596 212.167 402.505 211.989 402.37C211.816 402.238 211.671 402.072 211.564 401.882C211.417 401.614 211.317 401.322 211.268 401.021C211.195 400.522 211.174 400.384 210.987 399.111C210.8 397.838 210.784 397.728 210.707 397.202C210.669 396.903 210.681 396.6 210.745 396.306C210.792 396.093 210.883 395.892 211.011 395.715C211.143 395.533 211.314 395.382 211.512 395.274C211.778 395.136 212.065 395.041 212.361 394.994C212.859 394.921 213.011 394.899 214.27 394.713ZM214.144 393.856C212.858 394.045 212.761 394.059 212.194 394.142C211.804 394.215 211.428 394.346 211.078 394.532C210.784 394.698 210.528 394.923 210.327 395.194C210.117 395.465 209.975 395.781 209.911 396.117C209.818 396.504 209.8 396.905 209.859 397.298C209.932 397.796 209.956 397.962 210.143 399.235C210.33 400.508 210.357 400.688 210.43 401.186C210.489 401.579 210.621 401.958 210.82 402.302C210.981 402.599 211.207 402.856 211.482 403.053C211.752 403.258 212.063 403.405 212.393 403.484C212.782 403.562 213.18 403.58 213.574 403.537C214.086 403.462 214.238 403.439 215.525 403.25C216.812 403.061 216.908 403.047 217.476 402.963C217.865 402.891 218.242 402.76 218.592 402.573C218.885 402.403 219.14 402.173 219.34 401.898C219.547 401.63 219.69 401.319 219.758 400.988C219.85 400.602 219.867 400.201 219.811 399.808C219.737 399.309 219.713 399.143 219.524 397.857C219.335 396.57 219.321 396.473 219.239 395.92C219.182 395.526 219.049 395.147 218.849 394.804C218.691 394.5 218.464 394.238 218.186 394.039C217.915 393.838 217.605 393.696 217.276 393.622C216.887 393.544 216.489 393.526 216.095 393.569C215.583 393.644 215.431 393.667 214.144 393.856Z" fill="white"/>
<path d="M214.482 396.152C213.999 396.22 213.547 396.43 213.183 396.756C212.82 397.082 212.562 397.508 212.441 397.981C212.32 398.454 212.343 398.952 212.506 399.412C212.669 399.872 212.966 400.273 213.357 400.564C213.749 400.855 214.218 401.023 214.705 401.047C215.193 401.071 215.676 400.95 216.094 400.698C216.513 400.447 216.847 400.077 217.054 399.635C217.261 399.193 217.333 398.7 217.259 398.217C217.165 397.575 216.819 396.997 216.298 396.609C215.777 396.222 215.124 396.058 214.482 396.152ZM215.07 400.15C214.758 400.196 214.439 400.149 214.154 400.013C213.869 399.878 213.631 399.662 213.469 399.391C213.308 399.12 213.23 398.808 213.246 398.493C213.261 398.178 213.37 397.875 213.559 397.622C213.747 397.369 214.006 397.177 214.303 397.071C214.6 396.966 214.921 396.95 215.227 397.027C215.533 397.104 215.809 397.27 216.02 397.504C216.232 397.738 216.369 398.029 216.415 398.341C216.476 398.76 216.369 399.185 216.117 399.525C215.865 399.864 215.488 400.089 215.07 400.15Z" fill="white"/>
<path d="M217.553 395.602C217.575 395.752 217.537 395.905 217.446 396.027C217.355 396.149 217.22 396.23 217.069 396.252C216.919 396.274 216.766 396.236 216.644 396.145C216.522 396.054 216.441 395.919 216.419 395.768C216.4 395.619 216.44 395.467 216.53 395.346C216.621 395.225 216.754 395.143 216.903 395.118C217.053 395.096 217.206 395.134 217.328 395.225C217.45 395.316 217.531 395.451 217.553 395.602Z" fill="white"/>
<path d="M280.455 354.937C276.859 352.497 270.028 353.049 263.586 356.624C257.143 360.2 252.957 365.861 253.232 370.231L252.736 370.516L254.043 372.868C256.685 377.186 264.934 377.246 272.644 372.961C280.353 368.676 284.676 361.638 282.401 357.125L281.017 354.628L280.455 354.937Z" fill="url(#paint12_linear_2293_1286)"/>
<path d="M281.106 354.756C283.607 359.265 279.277 366.446 271.448 370.791C263.62 375.135 255.234 375.011 252.736 370.515C250.238 366.02 254.553 358.828 262.379 354.469C270.205 350.111 278.606 350.247 281.106 354.756Z" fill="url(#paint13_linear_2293_1286)"/>
<path d="M278.054 356.11C279.995 359.698 276.593 365.399 270.387 368.856C264.181 372.312 257.501 372.162 255.514 368.638C253.526 365.114 256.975 359.349 263.195 355.891C269.415 352.433 276.116 352.537 278.054 356.11Z" fill="url(#paint14_linear_2293_1286)"/>
<path d="M270.084 368.334C264.166 371.635 257.847 371.63 256.023 368.351C254.198 365.071 257.57 359.643 263.47 356.415C269.371 353.188 275.707 353.119 277.603 356.402C279.499 359.686 276.02 365.059 270.084 368.334ZM263.508 356.48C257.614 359.749 254.295 365.057 256.102 368.311C257.908 371.565 264.152 371.538 270.046 368.269C275.94 365 279.259 359.692 277.455 356.452C275.65 353.212 269.389 353.214 263.508 356.48Z" fill="white"/>
<path d="M269.355 358.66C270.385 358.076 271.524 357.707 272.701 357.575L272.908 357.545C274.96 357.37 275.768 358.439 274.672 359.929L275.775 359.837L274.544 361.559L273.451 361.719L272.948 362.429L274.051 362.338L272.814 364.117L271.711 364.208L271.43 364.603L270.822 365.47L268.42 365.667L269.03 364.814L266.236 365.041L263.834 365.239L261.25 365.449L260.64 366.302L258.254 366.511L258.862 365.644L259.143 365.25L257.747 365.37L258.909 363.658L260.305 363.538L260.808 362.828L259.413 362.948L260.575 361.237L261.97 361.117C263.333 359.601 265.2 358.634 267.224 358.394L267.418 358.366C268.077 358.211 268.771 358.316 269.355 358.66ZM271.679 359.28L271.458 359.313C270.672 359.398 269.949 359.783 269.439 360.387L269.274 360.609L267.362 363.278L270.239 363.04L270.51 362.675L272.316 360.148C272.689 359.612 272.393 359.232 271.667 359.296L271.679 359.28ZM262.42 363.694L265.004 363.484L266.913 360.8C267.253 360.326 266.991 359.983 266.335 360.037L266.141 360.066C265.438 360.145 264.792 360.487 264.331 361.024L262.679 363.345L262.422 363.708" fill="white"/>
<path d="M121.753 195.36C123.609 189.815 120.448 181.191 113.474 174.131C106.5 167.071 97.7116 163.726 92.1423 165.647L91.5942 165.092L89.0274 167.631C84.3798 172.555 87.2845 183.28 95.6068 191.725C103.929 200.17 114.595 203.21 119.62 198.642L122.348 195.951L121.753 195.36Z" fill="url(#paint15_linear_2293_1286)"/>
<path d="M122.219 196.125C117.28 200.993 106.434 197.979 97.9808 189.411C89.5274 180.844 86.6419 169.961 91.5805 165.094C96.519 160.227 107.365 163.241 115.818 171.808C124.272 180.375 127.143 191.26 122.219 196.125Z" fill="url(#paint16_linear_2293_1286)"/>
<path d="M119.349 192.659C115.437 196.527 106.844 194.129 100.092 187.333C93.3411 180.537 91.1051 171.862 95.0193 168.007C98.9336 164.153 107.524 166.537 114.276 173.333C121.027 180.129 123.263 188.804 119.349 192.659Z" fill="url(#paint17_linear_2293_1286)"/>
<path d="M100.66 186.769C94.2656 180.288 91.9901 172.114 95.5833 168.575C99.1764 165.036 107.314 167.416 113.708 173.897C120.102 180.378 122.392 188.551 118.785 192.092C115.178 195.632 107.123 193.24 100.66 186.769ZM113.635 173.979C107.275 167.535 99.2203 165.143 95.6646 168.648C92.109 172.153 94.3861 180.242 100.746 186.686C107.107 193.129 115.162 195.522 118.717 192.017C122.273 188.512 119.996 180.422 113.635 173.979Z" fill="white"/>
<path d="M112.926 182.324C114.061 183.443 114.951 184.785 115.54 186.265L115.579 186.528C116.54 189.129 115.464 190.559 113.218 189.702L113.121 189.716L113.629 191.055L110.949 190.035L110.442 188.697L109.338 188.307L109.846 189.646L107.166 188.627L106.658 187.288L106.031 187.055L104.748 186.692L103.626 183.677L104.941 184.162L103.602 180.528L102.478 177.499L101.276 174.227L99.9473 173.744L98.7937 170.606L100.123 171.089L100.75 171.322L100.119 169.62L102.799 170.639L103.43 172.341L104.522 172.746L103.862 171.048L106.556 172.066L107.19 173.782C109.659 175.018 111.594 177.11 112.634 179.668L112.673 179.93C113.043 180.672 113.132 181.522 112.926 182.324ZM112.962 185.556L112.922 185.279C112.524 184.3 111.771 183.507 110.814 183.059L110.472 182.939L106.307 181.431L107.66 185.063L108.227 185.262L112.154 186.692C112.976 186.995 113.372 186.513 113.018 185.548L112.962 185.556ZM103.981 175.13L105.197 178.4L109.348 179.91C110.079 180.17 110.441 179.749 110.115 178.879L110.079 178.63C109.723 177.749 109.048 177.035 108.188 176.632L104.505 175.42L103.936 175.207" fill="white"/>
<path d="M123.405 373.775L130.062 363.482L142.93 363.132L136.136 374.42L123.405 373.775Z" fill="url(#paint18_linear_2293_1286)"/>
<path opacity="0.7" d="M121.74 348.493L123.405 373.775L136.136 374.42L121.74 348.493Z" fill="url(#paint19_linear_2293_1286)"/>
<path opacity="0.7" d="M121.739 348.493L136.136 374.42L142.929 363.132L121.739 348.493Z" fill="url(#paint20_linear_2293_1286)"/>
<path d="M123.405 373.774L140.554 382.364L136.136 374.42L123.405 373.774Z" fill="url(#paint21_linear_2293_1286)"/>
<path d="M140.554 382.364L142.93 363.132L136.136 374.42L140.554 382.364Z" fill="url(#paint22_linear_2293_1286)"/>
<path opacity="0.5" d="M142.852 363.086L136.08 374.329L123.407 373.689L123.405 373.774L136.136 374.419L140.554 382.364L140.571 382.192L136.229 374.378L142.93 363.131L142.852 363.086Z" fill="white"/>
<path d="M239.725 216.469L249.573 212.209L259.106 218.215L248.677 223.14L239.725 216.469Z" fill="url(#paint23_linear_2293_1286)"/>
<path opacity="0.7" d="M250.808 197.244L239.725 216.47L248.677 223.14L250.808 197.244Z" fill="url(#paint24_linear_2293_1286)"/>
<path opacity="0.7" d="M250.808 197.243L248.677 223.139L259.106 218.215L250.808 197.243Z" fill="url(#paint25_linear_2293_1286)"/>
<path d="M239.725 216.47L248.019 231.067L248.677 223.14L239.725 216.47Z" fill="url(#paint26_linear_2293_1286)"/>
<path d="M248.019 231.068L259.106 218.216L248.677 223.14L248.019 231.068Z" fill="url(#paint27_linear_2293_1286)"/>
<path opacity="0.5" d="M259.082 218.148L248.677 223.041L239.759 216.408L239.725 216.469L248.677 223.14L248.019 231.067L248.129 230.952L248.764 223.155L259.106 218.215L259.082 218.148Z" fill="white"/>
<defs>
<filter id="filter0_d_2293_1286" x="28.5303" y="38.8848" width="306.954" height="440.783" filterUnits="userSpaceOnUse" color-interpolation-filters="sRGB">
<feFlood flood-opacity="0" result="BackgroundImageFix"/>
<feColorMatrix in="SourceAlpha" type="matrix" values="0 0 0 0 0 0 0 0 0 0 0 0 0 0 0 0 0 0 127 0" result="hardAlpha"/>
<feOffset dy="4"/>
<feGaussianBlur stdDeviation="8"/>
<feComposite in2="hardAlpha" operator="out"/>
<feColorMatrix type="matrix" values="0 0 0 0 0 0 0 0 0 0 0 0 0 0 0 0 0 0 0.25 0"/>
<feBlend mode="normal" in2="BackgroundImageFix" result="effect1_dropShadow_2293_1286"/>
<feBlend mode="normal" in="SourceGraphic" in2="effect1_dropShadow_2293_1286" result="shape"/>
</filter>
<linearGradient id="paint0_linear_2293_1286" x1="-18.3518" y1="-4.56746e-07" x2="139.035" y2="205.245" gradientUnits="userSpaceOnUse">
<stop stop-color="#74D7E4"/>
<stop offset="1" stop-color="#7198F9"/>
</linearGradient>
<linearGradient id="paint1_linear_2293_1286" x1="224.475" y1="362.132" x2="364.431" y2="523.331" gradientUnits="userSpaceOnUse">
<stop stop-color="#F19F38"/>
<stop offset="1" stop-color="#F17B38"/>
</linearGradient>
<linearGradient id="paint2_linear_2293_1286" x1="49.5774" y1="117.512" x2="269.204" y2="85.2387" gradientUnits="userSpaceOnUse">
<stop stop-color="#96B3F9"/>
<stop offset="1" stop-color="#4870FA"/>
</linearGradient>
<linearGradient id="paint3_linear_2293_1286" x1="29964.9" y1="12332.4" x2="51581.4" y2="9155.92" gradientUnits="userSpaceOnUse">
<stop stop-color="#96B3F9"/>
<stop offset="1" stop-color="#4870FA"/>
</linearGradient>
<linearGradient id="paint4_linear_2293_1286" x1="3280.39" y1="2193.02" x2="3432.93" y2="2170.6" gradientUnits="userSpaceOnUse">
<stop stop-color="#96B3F9"/>
<stop offset="1" stop-color="#4870FA"/>
</linearGradient>
<linearGradient id="paint5_linear_2293_1286" x1="3314.2" y1="2417.55" x2="3466.74" y2="2395.14" gradientUnits="userSpaceOnUse">
<stop stop-color="#96B3F9"/>
<stop offset="1" stop-color="#4870FA"/>
</linearGradient>
<linearGradient id="paint6_linear_2293_1286" x1="3204.76" y1="1716.68" x2="3357.3" y2="1694.26" gradientUnits="userSpaceOnUse">
<stop stop-color="#96B3F9"/>
<stop offset="1" stop-color="#4870FA"/>
</linearGradient>
<linearGradient id="paint7_linear_2293_1286" x1="3237.52" y1="1939.59" x2="3390.06" y2="1917.18" gradientUnits="userSpaceOnUse">
<stop stop-color="#96B3F9"/>
<stop offset="1" stop-color="#4870FA"/>
</linearGradient>
<linearGradient id="paint8_linear_2293_1286" x1="5902.3" y1="4194.31" x2="6159.72" y2="4156.48" gradientUnits="userSpaceOnUse">
<stop stop-color="#96B3F9"/>
<stop offset="1" stop-color="#4870FA"/>
</linearGradient>
<linearGradient id="paint9_linear_2293_1286" x1="4883.26" y1="4338.47" x2="5140.86" y2="4300.62" gradientUnits="userSpaceOnUse">
<stop stop-color="#96B3F9"/>
<stop offset="1" stop-color="#4870FA"/>
</linearGradient>
<linearGradient id="paint10_linear_2293_1286" x1="5222.74" y1="4288.58" x2="5480.15" y2="4250.76" gradientUnits="userSpaceOnUse">
<stop stop-color="#96B3F9"/>
<stop offset="1" stop-color="#4870FA"/>
</linearGradient>
<linearGradient id="paint11_linear_2293_1286" x1="5563.03" y1="4244.17" x2="5820.44" y2="4206.34" gradientUnits="userSpaceOnUse">
<stop stop-color="#96B3F9"/>
<stop offset="1" stop-color="#4870FA"/>
</linearGradient>
<linearGradient id="paint12_linear_2293_1286" x1="253.931" y1="372.656" x2="282.305" y2="356.895" gradientUnits="userSpaceOnUse">
<stop stop-color="#8AA3E5"/>
<stop offset="1" stop-color="#446AE7"/>
</linearGradient>
<linearGradient id="paint13_linear_2293_1286" x1="252.736" y1="370.504" x2="281.11" y2="354.744" gradientUnits="userSpaceOnUse">
<stop stop-color="#94B1F7"/>
<stop offset="1" stop-color="#476EF8"/>
</linearGradient>
<linearGradient id="paint14_linear_2293_1286" x1="255.515" y1="368.625" x2="278.058" y2="356.104" gradientUnits="userSpaceOnUse">
<stop stop-color="#476EF8"/>
<stop offset="1" stop-color="#94B1F7"/>
</linearGradient>
<linearGradient id="paint15_linear_2293_1286" x1="-13490.8" y1="63211.1" x2="-12773.8" y2="63942.5" gradientUnits="userSpaceOnUse">
<stop stop-color="#8AA3E5"/>
<stop offset="1" stop-color="#446AE7"/>
</linearGradient>
<linearGradient id="paint16_linear_2293_1286" x1="-12977" y1="62707.6" x2="-12260.1" y2="63438.9" gradientUnits="userSpaceOnUse">
<stop stop-color="#94B1F7"/>
<stop offset="1" stop-color="#476EF8"/>
</linearGradient>
<linearGradient id="paint17_linear_2293_1286" x1="-10113.4" y1="49447" x2="-9660.45" y2="49909" gradientUnits="userSpaceOnUse">
<stop stop-color="#476EF8"/>
<stop offset="1" stop-color="#94B1F7"/>
</linearGradient>
<linearGradient id="paint18_linear_2293_1286" x1="1444.26" y1="3633.58" x2="1734.09" y2="3472.6" gradientUnits="userSpaceOnUse">
<stop stop-color="#476EF8"/>
<stop offset="1" stop-color="#94B1F7"/>
</linearGradient>
<linearGradient id="paint19_linear_2293_1286" x1="4035.19" y1="7680.27" x2="4119.67" y2="7633.34" gradientUnits="userSpaceOnUse">
<stop stop-color="#94B1F7"/>
<stop offset="1" stop-color="#476EF8"/>
</linearGradient>
<linearGradient id="paint20_linear_2293_1286" x1="3965.55" y1="7718.95" x2="4099.92" y2="7644.31" gradientUnits="userSpaceOnUse">
<stop stop-color="#94B1F7"/>
<stop offset="1" stop-color="#476EF8"/>
</linearGradient>
<linearGradient id="paint21_linear_2293_1286" x1="1530.99" y1="3409.47" x2="1637.21" y2="3350.47" gradientUnits="userSpaceOnUse">
<stop stop-color="#476EF8"/>
<stop offset="1" stop-color="#94B1F7"/>
</linearGradient>
<linearGradient id="paint22_linear_2293_1286" x1="3005.7" y1="5362.08" x2="3065.36" y2="5328.95" gradientUnits="userSpaceOnUse">
<stop stop-color="#94B1F7"/>
<stop offset="1" stop-color="#476EF8"/>
</linearGradient>
<linearGradient id="paint23_linear_2293_1286" x1="9157.4" y1="3185.3" x2="9419.89" y2="3206.88" gradientUnits="userSpaceOnUse">
<stop stop-color="#476EF8"/>
<stop offset="1" stop-color="#94B1F7"/>
</linearGradient>
<linearGradient id="paint24_linear_2293_1286" x1="6342.36" y1="6074.85" x2="6435.21" y2="6082.48" gradientUnits="userSpaceOnUse">
<stop stop-color="#94B1F7"/>
<stop offset="1" stop-color="#476EF8"/>
</linearGradient>
<linearGradient id="paint25_linear_2293_1286" x1="5071.74" y1="5970.38" x2="5150.36" y2="5976.84" gradientUnits="userSpaceOnUse">
<stop stop-color="#94B1F7"/>
<stop offset="1" stop-color="#476EF8"/>
</linearGradient>
<linearGradient id="paint26_linear_2293_1286" x1="3586.39" y1="3913.55" x2="3639.6" y2="3917.92" gradientUnits="userSpaceOnUse">
<stop stop-color="#476EF8"/>
<stop offset="1" stop-color="#94B1F7"/>
</linearGradient>
<linearGradient id="paint27_linear_2293_1286" x1="6219.47" y1="3097.42" x2="6310.95" y2="3104.94" gradientUnits="userSpaceOnUse">
<stop stop-color="#94B1F7"/>
<stop offset="1" stop-color="#476EF8"/>
</linearGradient>
</defs>
</svg>
