<svg width="32" height="33" viewBox="0 0 32 33" fill="none" xmlns="http://www.w3.org/2000/svg">
<path d="M20 14.4307H17.3207V12.9118C17.3207 12.128 17.3845 11.6343 18.5087 11.6343H19.9286V9.21912C19.2376 9.14772 18.5429 9.11279 17.8474 9.11431C15.7853 9.11431 14.2803 10.3728 14.2803 12.6832V14.4307H12V17.4687L14.2803 17.4679V24.3041H17.3207V17.4664L19.6511 17.4657L20 14.4307Z" fill="white"/>
<path opacity="0.1" fill-rule="evenodd" clip-rule="evenodd" d="M0 16.2025C0 7.25412 7.16344 0 16 0C24.8366 0 32 7.25412 32 16.2025C32 25.1509 24.8366 32.4051 16 32.4051C7.16344 32.4051 0 25.1509 0 16.2025Z" fill="white"/>
</svg>
