<svg width="28" height="28" viewBox="0 0 28 28" fill="none" xmlns="http://www.w3.org/2000/svg">
<path d="M14 5.83334C13.6906 5.83334 13.3938 5.95626 13.1751 6.17505C12.9563 6.39384 12.8333 6.69059 12.8333 7.00001C12.8333 7.30943 12.9563 7.60618 13.1751 7.82497C13.3938 8.04376 13.6906 8.16668 14 8.16668H23.3333C23.6428 8.16668 23.9395 8.04376 24.1583 7.82497C24.3771 7.60618 24.5 7.30943 24.5 7.00001C24.5 6.69059 24.3771 6.39384 24.1583 6.17505C23.9395 5.95626 23.6428 5.83334 23.3333 5.83334H14Z" fill="black"/>
<path d="M8.16666 14C8.16666 13.6906 8.28957 13.3938 8.50837 13.1751C8.72716 12.9563 9.0239 12.8333 9.33332 12.8333H18.6667C18.9761 12.8333 19.2728 12.9563 19.4916 13.1751C19.7104 13.3938 19.8333 13.6906 19.8333 14C19.8333 14.3094 19.7104 14.6062 19.4916 14.825C19.2728 15.0438 18.9761 15.1667 18.6667 15.1667H9.33332C9.0239 15.1667 8.72716 15.0438 8.50837 14.825C8.28957 14.6062 8.16666 14.3094 8.16666 14Z" fill="black"/>
<path d="M3.5 21C3.5 20.6906 3.62292 20.3938 3.84171 20.1751C4.0605 19.9563 4.35725 19.8333 4.66667 19.8333H14C14.3094 19.8333 14.6062 19.9563 14.825 20.1751C15.0438 20.3938 15.1667 20.6906 15.1667 21C15.1667 21.3094 15.0438 21.6062 14.825 21.825C14.6062 22.0438 14.3094 22.1667 14 22.1667H4.66667C4.35725 22.1667 4.0605 22.0438 3.84171 21.825C3.62292 21.6062 3.5 21.3094 3.5 21Z" fill="black"/>
</svg>
