<svg width="32" height="33" viewBox="0 0 32 33" fill="none" xmlns="http://www.w3.org/2000/svg">
<path opacity="0.1" fill-rule="evenodd" clip-rule="evenodd" d="M0 16.2025C0 7.25412 7.16344 0 16 0C24.8366 0 32 7.25412 32 16.2025C32 25.1509 24.8366 32.4051 16 32.4051C7.16344 32.4051 0 25.1509 0 16.2025Z" fill="white"/>
<path fill-rule="evenodd" clip-rule="evenodd" d="M16.0009 7.56152C13.6834 7.56152 13.3925 7.57179 12.4823 7.61373C11.5739 7.65586 10.9538 7.8015 10.4112 8.0152C9.84993 8.23592 9.37384 8.53117 8.89952 9.01167C8.42485 9.49199 8.13329 9.97411 7.91462 10.5423C7.70307 11.0919 7.55906 11.72 7.51818 12.6396C7.47746 13.5614 7.4668 13.8561 7.4668 16.203C7.4668 18.5498 7.47711 18.8435 7.51835 19.7652C7.56013 20.6852 7.70395 21.3131 7.9148 21.8626C8.13294 22.4309 8.4245 22.913 8.89899 23.3934C9.37313 23.874 9.84922 24.17 10.4101 24.3907C10.9531 24.6044 11.5733 24.7501 12.4816 24.7922C13.3918 24.8341 13.6825 24.8444 15.9999 24.8444C18.3176 24.8444 18.6075 24.8341 19.5178 24.7922C20.4262 24.7501 21.047 24.6044 21.59 24.3907C22.151 24.17 22.6264 23.874 23.1006 23.3934C23.5752 22.913 23.8668 22.4309 24.0855 21.8627C24.2952 21.3131 24.4392 20.685 24.4819 19.7654C24.5228 18.8436 24.5335 18.5498 24.5335 16.203C24.5335 13.8561 24.5228 13.5616 24.4819 12.6398C24.4392 11.7199 24.2952 11.0919 24.0855 10.5425C23.8668 9.97411 23.5752 9.49199 23.1006 9.01167C22.6259 8.53099 22.1512 8.23574 21.5894 8.0152C21.0454 7.8015 20.425 7.65586 19.5165 7.61373C18.6063 7.57179 18.3165 7.56152 15.9983 7.56152H16.0009ZM15.2354 9.11876C15.4626 9.1184 15.7161 9.11876 16.0009 9.11876C18.2793 9.11876 18.5494 9.12704 19.4491 9.16845C20.2811 9.20697 20.7327 9.34776 21.0335 9.46604C21.4317 9.62266 21.7156 9.80989 22.0141 10.1123C22.3128 10.4148 22.4977 10.7028 22.6527 11.1061C22.7695 11.4104 22.9087 11.8676 22.9466 12.7102C22.9875 13.6211 22.9963 13.8948 22.9963 16.201C22.9963 18.5071 22.9875 18.7808 22.9466 19.6917C22.9085 20.5343 22.7695 20.9916 22.6527 21.2958C22.498 21.6991 22.3128 21.9862 22.0141 22.2885C21.7154 22.5909 21.4319 22.7782 21.0335 22.9348C20.733 23.0536 20.2811 23.194 19.4491 23.2326C18.5495 23.274 18.2793 23.283 16.0009 23.283C13.7223 23.283 13.4522 23.274 12.5527 23.2326C11.7207 23.1937 11.2691 23.0529 10.9681 22.9346C10.5699 22.778 10.2855 22.5908 9.98679 22.2883C9.68812 21.9859 9.50323 21.6985 9.3482 21.2951C9.2314 20.9908 9.0922 20.5336 9.05433 19.691C9.01344 18.7801 9.00527 18.5064 9.00527 16.1988C9.00527 13.8912 9.01344 13.619 9.05433 12.708C9.09238 11.8655 9.2314 11.4082 9.3482 11.1036C9.50287 10.7003 9.68812 10.4123 9.98679 10.1098C10.2855 9.80737 10.5699 9.62014 10.9681 9.46316C11.2689 9.34434 11.7207 9.20391 12.5527 9.16521C13.3399 9.1292 13.645 9.1184 15.2354 9.1166V9.11876ZM20.556 10.5536C19.9906 10.5536 19.532 11.0175 19.532 11.5902C19.532 12.1627 19.9906 12.6272 20.556 12.6272C21.1213 12.6272 21.58 12.1627 21.58 11.5902C21.58 11.0177 21.1213 10.5536 20.556 10.5536ZM16.0009 11.7652C13.5808 11.7652 11.6187 13.7522 11.6187 16.2029C11.6187 18.6537 13.5808 20.6398 16.0009 20.6398C18.4211 20.6398 20.3825 18.6537 20.3825 16.2029C20.3825 13.7522 18.4211 11.7652 16.0009 11.7652ZM16.0009 13.3225C17.5718 13.3225 18.8454 14.612 18.8454 16.2029C18.8454 17.7937 17.5718 19.0834 16.0009 19.0834C14.4299 19.0834 13.1564 17.7937 13.1564 16.2029C13.1564 14.612 14.4299 13.3225 16.0009 13.3225Z" fill="white"/>
</svg>
