<svg width="32" height="33" viewBox="0 0 32 33" fill="none" xmlns="http://www.w3.org/2000/svg">
<path opacity="0.1" fill-rule="evenodd" clip-rule="evenodd" d="M0 16.2152C0 7.26682 7.16344 0.0126953 16 0.0126953C24.8366 0.0126953 32 7.26682 32 16.2152C32 25.1636 24.8366 32.4178 16 32.4178C7.16344 32.4178 0 25.1636 0 16.2152Z" fill="white"/>
<path d="M10.7188 9.12646C9.76953 9.12646 9 9.90574 9 10.867C9 11.8282 9.76953 12.6075 10.7188 12.6075C11.668 12.6075 12.4375 11.8282 12.4375 10.867C12.4375 9.90574 11.668 9.12646 10.7188 9.12646ZM19.75 13.7467C18.3164 13.7467 17.3633 14.5418 16.9688 15.2974H16.9062V13.9682H14.0938V23.5885H17.0312V18.8417C17.0312 17.5877 17.2773 16.3733 18.8125 16.3733C20.3242 16.3733 20.3438 17.7894 20.3438 18.9049V23.5885H23.2812V18.3037C23.2812 15.7167 22.7383 13.7467 19.75 13.7467ZM9.28125 13.9682V23.5885H12.25V13.9682H9.28125Z" fill="white"/>
</svg>
