<svg width="1440" height="610" viewBox="0 0 1440 610" fill="none" xmlns="http://www.w3.org/2000/svg">
<rect width="1440" height="610" fill="#E2EAFE" fill-opacity="0.2"/>
<g opacity="0.4" clip-path="url(#clip0_2266_5458)">
<path fill-rule="evenodd" clip-rule="evenodd" d="M1168.77 173.729C1195.02 160.8 1208.14 145.61 1208.14 128.156C1196.95 126.863 1187.7 122.285 1180.39 114.42C1173.07 106.555 1169.42 97.4512 1169.42 87.1085C1169.42 76.1193 1172.97 66.854 1180.07 59.3124C1187.16 51.7708 1196.09 48 1206.85 48C1218.9 48 1229.33 52.902 1238.15 62.7061C1246.97 72.5102 1251.38 84.415 1251.38 98.4208C1251.38 140.438 1227.93 173.298 1181.03 197L1168.77 173.729ZM1261.39 173.729C1287.85 160.8 1301.08 145.61 1301.08 128.156C1289.68 126.863 1280.32 122.285 1273.01 114.42C1265.69 106.555 1262.04 97.4512 1262.04 87.1085C1262.04 76.1193 1265.64 66.854 1272.85 59.3124C1280.05 51.7708 1289.04 48 1299.79 48C1311.84 48 1322.22 52.902 1330.93 62.7061C1339.64 72.5102 1344 84.415 1344 98.4208C1344 140.438 1320.66 173.298 1273.98 197L1261.39 173.729Z" fill="#F19E38"/>
</g>
<defs>
<clipPath id="clip0_2266_5458">
<rect width="176" height="149" fill="white" transform="matrix(-1 0 0 -1 1344 197)"/>
</clipPath>
</defs>
</svg>
