<svg width="32" height="33" viewBox="0 0 32 33" fill="none" xmlns="http://www.w3.org/2000/svg">
<path opacity="0.1" fill-rule="evenodd" clip-rule="evenodd" d="M0 16.2025C0 7.25412 7.16344 0 16 0C24.8366 0 32 7.25412 32 16.2025C32 25.1509 24.8366 32.4051 16 32.4051C7.16344 32.4051 0 25.1509 0 16.2025Z" fill="white"/>
<path fill-rule="evenodd" clip-rule="evenodd" d="M15.5208 13.1693L15.5544 13.7299L14.9948 13.6613C12.9579 13.3981 11.1784 12.5057 9.66756 11.0068L8.92891 10.2631L8.73865 10.8123C8.33575 12.0366 8.59316 13.3295 9.43253 14.199C9.8802 14.6796 9.77948 14.7483 9.00725 14.4622C8.73865 14.3707 8.50363 14.302 8.48124 14.3363C8.4029 14.4164 8.6715 15.4576 8.88414 15.8695C9.17513 16.4416 9.76828 17.0023 10.4174 17.3341L10.9658 17.5972L10.3167 17.6087C9.68994 17.6087 9.66756 17.6201 9.73471 17.8604C9.95854 18.6041 10.8427 19.3936 11.8276 19.7368L12.5214 19.9771L11.9171 20.3433C11.0218 20.8696 9.96973 21.1671 8.91772 21.1899C8.41409 21.2014 8 21.2471 8 21.2815C8 21.3959 9.36538 22.0366 10.16 22.2883C12.5438 23.0321 15.3753 22.7117 17.5017 21.4417C19.0126 20.5378 20.5235 18.7414 21.2286 17.0023C21.6091 16.0755 21.9896 14.3821 21.9896 13.5698C21.9896 13.0434 22.0232 12.9748 22.6499 12.3455C23.0192 11.9794 23.3662 11.5789 23.4333 11.4645C23.5452 11.2471 23.534 11.2471 22.9633 11.4416C22.012 11.7848 21.8777 11.7391 22.3477 11.2242C22.6947 10.8581 23.1088 10.1944 23.1088 9.99994C23.1088 9.96561 22.9409 10.0228 22.7506 10.1258C22.5492 10.2402 22.1015 10.4118 21.7658 10.5148L21.1614 10.7093L20.613 10.3317C20.3108 10.1258 19.8856 9.89696 19.6617 9.82831C19.0909 9.66813 18.218 9.69101 17.7032 9.87408C16.3042 10.389 15.4201 11.7162 15.5208 13.1693Z" fill="white"/>
</svg>
